<svg width="44" height="23" viewBox="0 0 44 23" fill="none" xmlns="http://www.w3.org/2000/svg">
<path d="M8.18288 22.5381H6.71025V6.53449C6.71025 5.08189 6.77036 3.5742 6.89057 2.01141C6.7403 2.16168 6.58503 2.30694 6.42474 2.44719C6.26445 2.58744 4.71669 3.80461 1.78144 6.09871L0.924914 5.0318L6.89057 0.56883H8.18288V22.5381ZM17.4845 13.1764C17.4845 10.3213 17.8702 7.92197 18.6416 5.9785C19.423 4.02501 20.5249 2.57742 21.9475 1.63574C23.38 0.694054 25.1031 0.223213 27.1167 0.223213C28.0584 0.223213 28.9199 0.338419 29.7013 0.56883V1.89119C28.97 1.62071 28.0885 1.48547 27.0566 1.48547C24.5822 1.48547 22.6537 2.37706 21.2713 4.16025C19.8988 5.94343 19.1274 8.53807 18.9571 11.9442H19.1525C19.9138 10.9624 20.7854 10.2211 21.7672 9.72018C22.7489 9.21929 23.7858 8.96884 24.8777 8.96884C26.9314 8.96884 28.5342 9.55489 29.6863 10.727C30.8484 11.8991 31.4294 13.517 31.4294 15.5807C31.4294 17.8247 30.8183 19.5978 29.5961 20.9002C28.384 22.1925 26.7461 22.8386 24.6824 22.8386C22.4584 22.8386 20.7002 21.9921 19.4079 20.2991C18.1256 18.596 17.4845 16.2218 17.4845 13.1764ZM24.6824 21.5163C26.3253 21.5163 27.6026 21.0003 28.5142 19.9685C29.4258 18.9367 29.8817 17.464 29.8817 15.5506C29.8817 13.8676 29.4308 12.5552 28.5292 11.6136C27.6276 10.6719 26.4004 10.201 24.8477 10.201C23.8258 10.201 22.8741 10.4264 21.9926 10.8772C21.121 11.3281 20.4248 11.9291 19.9038 12.6805C19.3829 13.4218 19.1224 14.1832 19.1224 14.9646C19.1224 16.0765 19.3679 17.1485 19.8587 18.1803C20.3596 19.2021 21.0308 20.0136 21.8723 20.6146C22.7239 21.2157 23.6605 21.5163 24.6824 21.5163ZM43.1654 5.39245C43.1654 7.00533 42.7647 8.26258 41.9632 9.16419C41.1618 10.0558 40.0448 10.5016 38.6123 10.5016C37.1797 10.5016 36.0777 10.0708 35.3063 9.20927C34.535 8.34773 34.1493 7.07546 34.1493 5.39245C34.1493 3.76955 34.54 2.51731 35.3214 1.63574C36.1028 0.754161 37.2198 0.313374 38.6724 0.313374C40.0949 0.313374 41.1969 0.749153 41.9783 1.62071C42.7697 2.49227 43.1654 3.74951 43.1654 5.39245ZM35.5017 5.39245C35.5017 8.03718 36.5486 9.35954 38.6423 9.35954C40.736 9.35954 41.7829 8.03718 41.7829 5.39245C41.7829 4.0801 41.5325 3.10837 41.0316 2.47724C40.5307 1.83609 39.7343 1.51552 38.6423 1.51552C37.5504 1.51552 36.7539 1.83609 36.253 2.47724C35.7521 3.10837 35.5017 4.0801 35.5017 5.39245Z" fill="#545E66"/>
</svg>
