<svg width="19" height="20" viewBox="0 0 19 20" fill="none" xmlns="http://www.w3.org/2000/svg">
<path d="M1.14509 12.8289L0.0279561 17.6502C-0.0105814 17.8265 -0.00926034 18.0091 0.0318227 18.1848C0.0729058 18.3604 0.152713 18.5247 0.265414 18.6656C0.378116 18.8065 0.520864 18.9204 0.683232 18.999C0.845599 19.0777 1.02348 19.119 1.20389 19.1201C1.28795 19.1286 1.37266 19.1286 1.45672 19.1201L6.30745 18.003L15.6208 8.72487L10.4232 3.539L1.14509 12.8289Z" fill="#404A3D" fill-opacity="0.6"/>
<path d="M18.5489 4.0799L15.0798 0.610893C14.8518 0.383976 14.5431 0.256592 14.2214 0.256592C13.8997 0.256592 13.5911 0.383976 13.363 0.610893L11.4344 2.53943L16.6262 7.73118L18.5547 5.80265C18.6676 5.68921 18.757 5.55464 18.8178 5.40663C18.8786 5.25861 18.9096 5.10007 18.909 4.94005C18.9085 4.78004 18.8764 4.62171 18.8146 4.47411C18.7528 4.32652 18.6625 4.19256 18.5489 4.0799Z" fill="#404A3D" fill-opacity="0.6"/>
</svg>
