<svg width="27" height="30" viewBox="0 0 27 30" fill="none" xmlns="http://www.w3.org/2000/svg">
<path d="M19.6004 7.09415C19.6004 3.60678 16.7065 0.780121 13.1309 0.780121C9.55531 0.780121 6.66134 3.60678 6.66134 7.09415V9.80017H2.96445C1.43371 9.80017 0.19179 11.0122 0.19179 12.5062V24.2322C0.19179 27.2201 2.67563 29.6443 5.73712 29.6443H20.5247C23.5873 29.6443 26.07 27.2201 26.07 24.2322V12.5062C26.07 11.0122 24.8286 9.80017 23.2973 9.80017H19.6004V7.09415ZM16.8278 9.80017H9.43401V7.09415C9.43401 5.10129 11.0918 3.48614 13.1309 3.48614C15.17 3.48614 16.8278 5.10129 16.8278 7.09415V9.80017ZM18.2141 15.2122C17.4459 15.2122 16.8278 14.609 16.8278 13.8592C16.8278 13.1094 17.4459 12.5062 18.2141 12.5062C18.9824 12.5062 19.6004 13.1094 19.6004 13.8592C19.6004 14.609 18.9824 15.2122 18.2141 15.2122ZM8.04767 12.5062C8.81593 12.5062 9.43401 13.1094 9.43401 13.8592C9.43401 14.609 8.81593 15.2122 8.04767 15.2122C7.27941 15.2122 6.66134 14.609 6.66134 13.8592C6.66134 13.1094 7.27941 12.5062 8.04767 12.5062Z" fill="#8BC38A"/>
</svg>
