<svg width="35" height="21" viewBox="0 0 35 21" fill="none" xmlns="http://www.w3.org/2000/svg">
<path d="M0.82666 10.6251C2.48272 13.6588 4.93607 16.1823 7.92177 17.9233C10.9075 19.6643 14.3121 20.5565 17.7679 20.5036C21.2068 20.5886 24.6006 19.7082 27.5645 17.9621C30.5284 16.2161 32.9436 13.6743 34.5361 10.6251C32.8805 7.5957 30.429 5.07593 27.4462 3.33779C24.4633 1.59965 21.0624 0.709164 17.6105 0.762437C14.1713 0.676621 10.7767 1.55486 7.81064 3.29781C4.84456 5.04077 2.42538 7.5789 0.82666 10.6251Z" fill="white"/>
<path d="M17.6421 16.7443C21.0215 16.7443 23.761 14.0047 23.761 10.6253C23.761 7.24587 21.0215 4.50632 17.6421 4.50632C14.2627 4.50632 11.5231 7.24587 11.5231 10.6253C11.5231 14.0047 14.2627 16.7443 17.6421 16.7443Z" fill="#8BC53E"/>
<path d="M20.9457 10.6254C20.9457 9.97204 20.752 9.33338 20.389 8.79016C20.026 8.24693 19.5101 7.82353 18.9065 7.57351C18.3029 7.3235 17.6388 7.25808 16.998 7.38554C16.3572 7.513 15.7686 7.82761 15.3066 8.28958C14.8447 8.75156 14.53 9.34016 14.4026 9.98094C14.2751 10.6217 14.3405 11.2859 14.5906 11.8895C14.8406 12.4931 15.264 13.009 15.8072 13.372C16.3504 13.7349 16.9891 13.9287 17.6424 13.9287C18.5185 13.9287 19.3587 13.5806 19.9782 12.9612C20.5977 12.3417 20.9457 11.5015 20.9457 10.6254Z" fill="white"/>
<path d="M27.573 12.146C28.4417 12.146 29.146 11.4417 29.146 10.573C29.146 9.70426 28.4417 9 27.573 9C26.7043 9 26 9.70426 26 10.573C26 11.4417 26.7043 12.146 27.573 12.146Z" fill="white"/>
</svg>
