<svg width="35" height="34" viewBox="0 0 35 34" fill="none" xmlns="http://www.w3.org/2000/svg">
<path d="M14.3098 9.00843C6.91269 8.81302 -1.78992 0.747603 1.15249 9.36809C2.846 14.324 8.57222 16.7397 14.3098 16.666C20.0473 16.7397 25.7735 14.3268 27.4671 9.36809C30.4095 0.747603 21.7069 8.81302 14.3098 9.00843Z" fill="#E59600"/>
<path d="M14.3807 23.947H11.8546V26.9716C11.8546 28.3394 12.8826 29.4467 14.1513 29.4467H14.6101C15.8788 29.4467 16.9068 28.3366 16.9068 26.9716V23.947H14.3807ZM21.9109 12.9307H6.7089C5.06919 12.9307 3.72968 14.358 3.72968 16.1054C3.72968 17.8527 5.06919 19.28 6.7089 19.28H21.9137C23.5534 19.28 24.8929 17.8527 24.8929 16.1054C24.8929 14.358 23.5506 12.9307 21.9109 12.9307Z" fill="#7A4C32"/>
<path d="M14.3098 1.97955C9.46712 1.97955 4.98413 7.15638 4.98413 14.6073C4.98413 22.0185 9.60306 25.6802 14.3098 25.6802C19.0165 25.6802 23.6354 22.0185 23.6354 14.6073C23.6354 7.15638 19.1524 1.97955 14.3098 1.97955Z" fill="#A56C43"/>
<path d="M7.85297 12.9477C8.6884 11.7611 10.5943 11.6506 11.6846 12.5314C11.8574 12.6701 12.0867 12.8684 12.1575 13.0864C12.268 13.4433 11.9282 13.7208 11.594 13.6358C11.3816 13.582 11.1834 13.4687 10.971 13.4036C10.5886 13.2818 10.3111 13.2507 9.96561 13.2479C9.45586 13.245 9.12735 13.3102 8.64309 13.5056C8.44485 13.5877 8.2806 13.7151 8.05404 13.6217C7.7935 13.5141 7.69721 13.1827 7.85297 12.9477ZM20.2145 13.6217C20.1323 13.5877 20.0559 13.5395 19.9738 13.5056C19.4753 13.296 19.1921 13.245 18.6512 13.2479C18.1755 13.2507 17.8894 13.3158 17.5213 13.4433C17.2919 13.5226 17.0059 13.718 16.7538 13.6415C16.3857 13.5282 16.397 13.1261 16.5981 12.8684C16.8388 12.5653 17.1673 12.336 17.5213 12.183C18.3341 11.8319 19.3281 11.88 20.0927 12.336C20.3447 12.4861 20.6166 12.69 20.7667 12.9477C20.9763 13.313 20.6449 13.7973 20.2145 13.6217Z" fill="#42312C"/>
<path d="M9.97669 16.6801C10.7337 16.6801 11.3474 16.0449 11.3474 15.2613C11.3474 14.4777 10.7337 13.8425 9.97669 13.8425C9.21969 13.8425 8.60602 14.4777 8.60602 15.2613C8.60602 16.0449 9.21969 16.6801 9.97669 16.6801Z" fill="#42312C"/>
<path d="M18.6425 16.6801C19.3995 16.6801 20.0132 16.0449 20.0132 15.2613C20.0132 14.4777 19.3995 13.8425 18.6425 13.8425C17.8855 13.8425 17.2719 14.4777 17.2719 15.2613C17.2719 16.0449 17.8855 16.6801 18.6425 16.6801Z" fill="#42312C"/>
<path d="M16.6829 20.0843C15.7965 20.611 12.8909 20.611 12.0045 20.0843C11.4948 19.7813 10.9765 20.2457 11.1861 20.7073C11.3928 21.1633 12.9787 22.2167 14.3494 22.2167C15.7201 22.2167 17.2833 21.1633 17.4929 20.7073C17.7053 20.2429 17.1927 19.7813 16.6829 20.0843Z" fill="#473530"/>
<path d="M15.383 17.8328C15.3547 17.8215 15.3235 17.813 15.2924 17.8102H13.327C13.2958 17.813 13.2675 17.8215 13.2364 17.8328C13.0579 17.9065 12.9588 18.0905 13.0438 18.2859C13.1287 18.4814 13.5196 19.0336 14.3097 19.0336C15.0998 19.0336 15.4906 18.4814 15.5756 18.2859C15.6605 18.0905 15.5614 17.9065 15.383 17.8328Z" fill="#875334"/>
<path d="M24.4765 14.5789L24.4368 14.6808L24.4028 14.7715L24.3066 15.0179C24.2981 15.0433 24.2896 15.066 24.2782 15.0915L23.6354 16.734C23.5986 16.8303 23.4598 16.8218 23.4372 16.7199C23.4003 16.5613 23.3522 16.3517 23.2956 16.1025C23.2332 15.8165 23.154 15.4766 23.069 15.1085C22.9047 14.4033 22.7122 13.5877 22.5168 12.8004C22.4091 12.3756 22.3044 11.9565 22.2024 11.5685C22.1146 11.2457 22.0325 10.9455 21.9532 10.6793C21.8824 10.4357 21.8144 10.2177 21.7521 10.0393C21.7323 9.97696 21.7125 9.92033 21.6927 9.86935C21.401 9.09339 20.5967 8.64311 19.7811 8.79037C18.5294 9.01693 16.5357 9.30013 14.3324 9.30013C14.3267 9.30013 14.3182 9.29729 14.3097 9.29729C14.3012 9.29729 14.2956 9.30013 14.2871 9.30013C12.0867 9.30013 10.0901 9.01693 8.8384 8.79037C8.0228 8.64311 7.21852 9.09339 6.92683 9.86935C6.72576 10.4018 6.44539 11.4326 6.16503 12.5512C6.13105 12.6872 6.09706 12.8231 6.06308 12.9619C6.00927 13.1714 5.9583 13.3866 5.90732 13.599C5.86484 13.769 5.82519 13.9389 5.78555 14.106C5.78271 14.1088 5.78271 14.1116 5.78271 14.1173C5.74307 14.2815 5.70342 14.4458 5.6666 14.6072C5.66377 14.6129 5.66377 14.6157 5.66377 14.6185C5.62412 14.78 5.58731 14.9386 5.55333 15.0887C5.47969 15.403 5.41173 15.6975 5.35226 15.9552C5.30978 16.1421 5.27013 16.3092 5.23898 16.4565C5.21632 16.5556 5.1965 16.6462 5.17951 16.7227C5.17667 16.7369 5.17101 16.7482 5.16535 16.7567C5.15662 16.7745 5.14286 16.7895 5.12576 16.7996C5.10866 16.8098 5.08897 16.8147 5.0691 16.8138C5.04924 16.8129 5.03007 16.8062 5.01396 16.7945C4.99785 16.7829 4.98551 16.7668 4.97844 16.7482C4.78303 16.2498 4.41205 15.2784 4.2393 14.8253L4.21947 14.7715C4.19965 14.7205 4.18266 14.678 4.17133 14.6469L4.14584 14.5789C4.14584 14.5789 3.85132 12.9392 3.94194 10.7558C3.94477 10.685 3.9476 10.6113 3.95327 10.5377C3.95893 10.3933 3.97026 10.2432 3.98159 10.0931C3.98442 10.0308 3.99008 9.96847 3.99575 9.90617C4.06088 9.1472 4.17699 8.34009 4.36957 7.53015H24.2499C25.0995 11.0984 24.4765 14.5789 24.4765 14.5789Z" fill="#3C2C23"/>
<path d="M24.4765 14.5789L24.4368 14.6808L24.4028 14.7715C24.3774 14.8394 24.3434 14.9244 24.3066 15.0179C24.2981 15.0433 24.2896 15.066 24.2782 15.0915C24.0885 15.5927 23.7996 16.3375 23.6354 16.751C23.6277 16.7718 23.6136 16.7895 23.595 16.8014C23.5764 16.8134 23.5544 16.819 23.5324 16.8174C23.5103 16.8158 23.4894 16.8071 23.4727 16.7926C23.456 16.778 23.4446 16.7585 23.44 16.7369C23.44 16.7312 23.4372 16.7255 23.4372 16.7199C23.4003 16.5613 23.3522 16.3517 23.2956 16.1025C23.2304 15.8165 23.154 15.4766 23.069 15.1085C22.9047 14.4033 22.7122 13.5877 22.5168 12.8004C22.412 12.3728 22.3044 11.9565 22.2024 11.5685C22.1146 11.2457 22.0325 10.9455 21.9532 10.6793C21.8824 10.4357 21.8144 10.2177 21.7521 10.0393C21.7323 9.97696 21.7125 9.92033 21.6927 9.86935C21.401 9.09339 20.5967 8.64311 19.7811 8.79037C18.5294 9.01693 16.5357 9.30013 14.3324 9.30013C14.3267 9.30013 14.3182 9.29729 14.3097 9.29729C14.3012 9.29729 14.2956 9.30013 14.2871 9.30013C12.0867 9.30013 10.0901 9.01693 8.8384 8.79037C8.0228 8.64311 7.21852 9.09339 6.92683 9.86935C6.72576 10.4018 6.44539 11.4326 6.16503 12.5512C6.13105 12.6871 6.09706 12.8231 6.06308 12.9618C6.00927 13.1714 5.9583 13.3866 5.90732 13.599C5.86484 13.769 5.82519 13.9389 5.78555 14.106C5.78271 14.1088 5.78271 14.1116 5.78271 14.1173C5.74307 14.2844 5.70342 14.4486 5.6666 14.6072C5.66377 14.6129 5.66377 14.6157 5.66377 14.6185C5.62412 14.78 5.59014 14.9357 5.55333 15.0887C5.47969 15.403 5.41173 15.6975 5.35226 15.9552C5.30978 16.1421 5.27296 16.3121 5.23898 16.4565C5.21632 16.5556 5.1965 16.6462 5.17951 16.7227C5.17667 16.7369 5.17101 16.7482 5.16535 16.7567C5.12287 16.8218 5.01525 16.819 4.98127 16.7369L4.2393 14.8253L4.21947 14.7715L4.17133 14.6469L4.14584 14.5789C4.14584 14.5789 3.85132 12.9392 3.94194 10.7558C3.94477 10.685 3.9476 10.6113 3.95327 10.5377C3.95893 10.3933 3.97026 10.2432 3.98159 10.0931C3.98442 10.0308 3.99008 9.96847 3.99575 9.90617C4.06088 9.1472 4.17699 8.34009 4.36957 7.53015H24.2499C25.0995 11.0984 24.4765 14.5789 24.4765 14.5789Z" fill="url(#paint0_radial_1719_7959)"/>
<path d="M21.6784 6.49085C20.3134 3.09533 18.9711 0.416298 17.2521 0.209565C16.7933 0.155758 15.5925 0.00283196 14.3776 0C13.1174 0 11.843 0.152926 11.3701 0.209565C9.65109 0.416298 8.30874 3.09533 6.94091 6.48802C6.19893 8.32879 22.4204 8.32879 21.6784 6.49085Z" fill="url(#paint1_linear_1719_7959)"/>
<path d="M25.6661 5.26743C22.9955 5.7517 18.5352 6.31526 14.4713 6.33225H14.1485C10.0846 6.31526 5.62429 5.7517 2.95375 5.26743C0.648533 4.8483 0.566406 6.35491 0.566406 6.35491C0.566406 6.35491 1.29705 5.45151 2.57993 6.70324C4.5708 8.64596 7.81339 11.73 14.1258 11.7555C14.1881 11.7555 14.2476 11.7526 14.3099 11.7526C14.3722 11.7526 14.4317 11.7555 14.494 11.7555C20.8093 11.7271 24.049 8.64596 26.0399 6.70324C27.3228 5.45151 28.0534 6.35491 28.0534 6.35491C28.0534 6.35491 27.9713 4.8483 25.6661 5.26743Z" fill="url(#paint2_linear_1719_7959)"/>
<path d="M14.3098 6.03491C12.1745 6.03491 9.48976 5.82251 8.12476 5.70357C9.21789 5.16833 11.4268 4.31024 14.3098 4.31024C17.1927 4.31024 19.3988 5.17116 20.4948 5.70357C19.1298 5.82251 16.4451 6.03491 14.3098 6.03491Z" fill="#78909C"/>
<path d="M14.3098 4.57926C16.4451 4.57926 18.2037 5.06069 19.396 5.51947C17.9545 5.63275 15.9665 5.76019 14.3098 5.76019C12.6531 5.76019 10.665 5.63275 9.22356 5.51947C10.8474 4.89855 12.5712 4.57991 14.3098 4.57926ZM14.3098 4.03552C10.0108 4.03552 7.2157 5.89046 7.2157 5.89046C7.2157 5.89046 11.2852 6.30675 14.3098 6.30675C17.3343 6.30675 21.4038 5.89046 21.4038 5.89046C21.4038 5.89046 18.6087 4.03552 14.3098 4.03552Z" fill="#90A4AE"/>
<path d="M30.1717 29.138V33.3831" stroke="#D18100" stroke-width="1.41598" stroke-miterlimit="10"/>
<path d="M30.5 31.3328H29.843C29.4493 31.3328 29.1321 31.3328 29.1321 30.6219V27.2208H31.208V30.6219C31.2108 31.2252 30.8908 31.3328 30.5 31.3328Z" fill="#636363"/>
<path d="M32.7911 26.4448C32.27 26.4448 30.5992 26.4618 30.2225 26.4618C29.6221 26.4618 28.0306 26.408 27.3821 26.408C25.2638 26.408 25.2468 18.8495 25.2468 18.8495V25.8473C25.2468 27.7418 26.2153 28.3479 27.9145 28.4102H32.27C33.8049 28.4102 34.3515 27.3595 34.3515 26.1021L34.2439 24.7258C34.2382 24.7286 33.8276 26.4448 32.7911 26.4448Z" fill="#616161"/>
<path d="M34.6715 9.14155C34.6403 9.02261 34.4647 9.02544 34.4364 9.14438L34.1107 10.4697L33.5443 25.2469C33.5443 25.2469 33.5415 25.3234 33.5415 25.363C33.5415 25.7991 33.2045 26.1107 32.7684 26.1107C32.3323 26.1107 31.9726 25.7935 31.9726 25.3574C31.9726 25.295 32.1425 10.5235 32.1425 10.5235L31.8055 9.07075C31.7744 8.95181 31.6016 8.95181 31.5705 9.06792L31.1882 10.4981L31.0126 25.2667C31.0126 25.7482 30.7209 26.1135 30.2395 26.1135C29.758 26.1135 29.3672 25.7227 29.3672 25.2412L29.2822 10.4669L28.9481 9.06792C28.9169 8.95181 28.747 8.95181 28.713 9.06792L28.2882 10.5264L28.2967 25.2129C28.2967 25.7113 27.9512 26.1163 27.4528 26.1163C26.8977 26.1163 26.4899 25.7113 26.4899 25.2129L25.9122 10.4697L25.5327 9.06225C25.5016 8.94331 25.3628 8.96597 25.3288 9.08208L24.9409 10.4981L25.394 25.6859C25.394 26.9659 26.2096 27.9344 27.9087 27.9996H32.2643C33.7992 27.9996 34.3883 26.9432 34.3883 25.6859L35 10.5632L34.6715 9.14155Z" fill="url(#paint3_linear_1719_7959)"/>
<path d="M26.8442 32.4797C26.8442 27.4416 19.6057 26.2805 17.0286 26.0285L14.8565 29.0134H13.9134L11.7753 26.0228C8.98582 26.2862 6.61264 26.9489 4.8993 27.9429C2.92259 29.0898 1.92291 30.6163 1.92291 32.4769V33.3831H26.8498V32.4797H26.8442Z" fill="url(#paint4_linear_1719_7959)"/>
<path d="M23.4203 32.2729L21.3898 30.7097L21.4606 30.5992L14.1003 30.738L7.34044 30.5992L7.41124 30.7103L0 32.2729L5.33258 33.3831H23.4684L23.4203 32.2729Z" fill="url(#paint5_linear_1719_7959)"/>
<path d="M9.29997 28.6056L9.26882 26.391C9.26882 26.391 7.62911 26.7308 7.04007 26.9857L6.21313 28.8548L7.28362 30.5143L9.29997 28.6056Z" fill="url(#paint6_linear_1719_7959)"/>
<path d="M19.5007 28.6056L19.5318 26.391C19.5318 26.391 21.1715 26.7308 21.7606 26.9857L22.5875 28.8548L21.5142 30.5143L19.5007 28.6056Z" fill="url(#paint7_linear_1719_7959)"/>
<path d="M20.3985 31.0071L21.8626 31.2847C22.0507 31.3195 22.2449 31.2787 22.4029 31.171C22.561 31.0633 22.6701 30.8976 22.7065 30.7098C22.7414 30.5217 22.7005 30.3275 22.5929 30.1694C22.4852 30.0114 22.3194 29.9023 22.1316 29.8659L20.6675 29.5883C20.4795 29.5535 20.2852 29.5943 20.1272 29.702C19.9691 29.8097 19.86 29.9754 19.8236 30.1632C19.75 30.5569 20.0048 30.9335 20.3985 31.0071ZM8.4023 31.0071L6.93817 31.2847C6.54736 31.3583 6.16788 31.1006 6.09425 30.7098C6.05937 30.5217 6.10023 30.3275 6.20791 30.1694C6.31559 30.0114 6.48137 29.9023 6.66914 29.8659L8.13326 29.5883C8.32132 29.5535 8.51553 29.5943 8.6736 29.702C8.83168 29.8097 8.94079 29.9754 8.97718 30.1632C9.05081 30.5569 8.79594 30.9335 8.4023 31.0071Z" fill="#BDBDBD"/>
<path d="M11.7355 26.0285C10.9963 26.0993 10.2883 26.2013 9.61151 26.3259L9.54071 32.2588L14.3805 28.9936L11.7355 26.0285Z" fill="url(#paint8_linear_1719_7959)"/>
<path d="M19.1497 26.3344C18.3115 26.1758 17.5667 26.0823 17.0286 26.0285L14.3835 28.9964L19.2234 32.2616L19.1497 26.3344Z" fill="url(#paint9_linear_1719_7959)"/>
<defs>
<radialGradient id="paint0_radial_1719_7959" cx="0" cy="0" r="1" gradientUnits="userSpaceOnUse" gradientTransform="translate(14.3106 14.1852) scale(10.035 11.3215)">
<stop offset="0.794" stop-color="#554138" stop-opacity="0"/>
<stop offset="1" stop-color="#554138"/>
</radialGradient>
<linearGradient id="paint1_linear_1719_7959" x1="14.3099" y1="0.411767" x2="14.3099" y2="7.14758" gradientUnits="userSpaceOnUse">
<stop offset="0.003" stop-color="#FFF59D"/>
<stop offset="0.553" stop-color="#FEE565"/>
<stop offset="0.996" stop-color="#FDD835"/>
</linearGradient>
<linearGradient id="paint2_linear_1719_7959" x1="14.3099" y1="5.78483" x2="14.3099" y2="14.0054" gradientUnits="userSpaceOnUse">
<stop offset="0.003" stop-color="#FFF59D"/>
<stop offset="0.553" stop-color="#FEE565"/>
<stop offset="0.996" stop-color="#FDD835"/>
</linearGradient>
<linearGradient id="paint3_linear_1719_7959" x1="29.9727" y1="28.9845" x2="29.9727" y2="12.3694" gradientUnits="userSpaceOnUse">
<stop stop-color="#757575"/>
<stop offset="0.482" stop-color="#9E9E9E"/>
</linearGradient>
<linearGradient id="paint4_linear_1719_7959" x1="14.3807" y1="33.3831" x2="14.3807" y2="26.0251" gradientUnits="userSpaceOnUse">
<stop stop-color="#709E3B"/>
<stop offset="0.328" stop-color="#73A13E"/>
<stop offset="0.595" stop-color="#7DAB47"/>
<stop offset="0.839" stop-color="#8DBC57"/>
<stop offset="1" stop-color="#9CCC65"/>
</linearGradient>
<linearGradient id="paint5_linear_1719_7959" x1="14.4008" y1="33.5298" x2="14.4008" y2="26.5654" gradientUnits="userSpaceOnUse">
<stop stop-color="#1E88E5"/>
<stop offset="1" stop-color="#1565C0"/>
</linearGradient>
<linearGradient id="paint6_linear_1719_7959" x1="7.75769" y1="33.3808" x2="7.75769" y2="26.7606" gradientUnits="userSpaceOnUse">
<stop stop-color="#1E88E5"/>
<stop offset="1" stop-color="#1565C0"/>
</linearGradient>
<linearGradient id="paint7_linear_1719_7959" x1="21.0432" y1="33.3808" x2="21.0432" y2="26.7606" gradientUnits="userSpaceOnUse">
<stop stop-color="#1E88E5"/>
<stop offset="1" stop-color="#1565C0"/>
</linearGradient>
<linearGradient id="paint8_linear_1719_7959" x1="11.9606" y1="26.6626" x2="11.9606" y2="30.8474" gradientUnits="userSpaceOnUse">
<stop stop-color="#AED581"/>
<stop offset="1" stop-color="#8BC34A"/>
</linearGradient>
<linearGradient id="paint9_linear_1719_7959" x1="16.8006" y1="26.0449" x2="16.8006" y2="30.9822" gradientUnits="userSpaceOnUse">
<stop stop-color="#AED581"/>
<stop offset="1" stop-color="#8BC34A"/>
</linearGradient>
</defs>
</svg>
