<svg width="16" height="16" viewBox="0 0 16 16" fill="none" xmlns="http://www.w3.org/2000/svg">
<path d="M9.34656 6.75403V1.12903C9.34656 0.611261 8.92682 0.191528 8.40906 0.191528C7.89129 0.191528 7.47156 0.611261 7.47156 1.12903V6.75403H1.84656C1.32879 6.75403 0.909058 7.17376 0.909058 7.69153C0.909058 8.2093 1.32879 8.62903 1.84656 8.62903H7.47156V14.254C7.47156 14.7718 7.89129 15.1915 8.40906 15.1915C8.92682 15.1915 9.34656 14.7718 9.34656 14.254V8.62903H14.9716C15.4893 8.62903 15.9091 8.2093 15.9091 7.69153C15.9091 7.17376 15.4893 6.75403 14.9716 6.75403H9.34656Z" fill="#404A3D" fill-opacity="0.6"/>
</svg>
