<svg width="47" height="46" viewBox="0 0 47 46" fill="none" xmlns="http://www.w3.org/2000/svg">
<circle cx="23.476" cy="23.0002" r="22.619" fill="#8BC53E"/>
<path d="M16.4653 14.9327L16.4619 17.3183V29.1217C16.4619 30.0903 16.8467 31.0192 17.5316 31.7041C18.2165 32.3889 19.1454 32.7737 20.114 32.7737H29.7958C29.6213 33.2667 29.2983 33.6935 28.8713 33.9953C28.4443 34.2972 27.9342 34.4593 27.4113 34.4593H20.114C18.6983 34.4593 17.3407 33.8969 16.3397 32.8959C15.3387 31.8949 14.7764 30.5373 14.7764 29.1217V17.3183C14.7764 16.2171 15.4809 15.2788 16.4653 14.9327ZM30.2273 11.9807C30.5593 11.9807 30.8881 12.0461 31.1948 12.1732C31.5016 12.3002 31.7803 12.4865 32.0151 12.7212C32.2499 12.956 32.4361 13.2347 32.5632 13.5415C32.6902 13.8482 32.7556 14.177 32.7556 14.509V29.1172C32.7556 29.4492 32.6902 29.778 32.5632 30.0847C32.4361 30.3915 32.2499 30.6702 32.0151 30.905C31.7803 31.1398 31.5016 31.326 31.1948 31.4531C30.8881 31.5801 30.5593 31.6455 30.2273 31.6455H20.114C19.4434 31.6455 18.8003 31.3791 18.3262 30.905C17.852 30.4308 17.5856 29.7877 17.5856 29.1172V14.509C17.5856 13.8385 17.852 13.1954 18.3262 12.7212C18.8003 12.2471 19.4434 11.9807 20.114 11.9807H30.2273ZM30.2273 13.6663H20.114C19.8904 13.6663 19.6761 13.7551 19.518 13.9131C19.36 14.0712 19.2712 14.2855 19.2712 14.509V29.1172C19.2712 29.5824 19.6487 29.96 20.114 29.96H30.2273C30.4508 29.96 30.6652 29.8712 30.8232 29.7131C30.9813 29.5551 31.0701 29.3407 31.0701 29.1172V14.509C31.0701 14.2855 30.9813 14.0712 30.8232 13.9131C30.6652 13.7551 30.4508 13.6663 30.2273 13.6663Z" fill="white"/>
</svg>
