<svg width="204" height="33" viewBox="0 0 204 33" fill="none" xmlns="http://www.w3.org/2000/svg">
<path d="M39.9531 26H30.2617V8.86719H39.9531V11.2344H33.0625V15.8984H39.5195V18.2422H33.0625V23.6211H39.9531V26ZM56.2891 26H53.0664L48.7773 18.9922L44.4531 26H41.4531L47.1367 17.1172L41.8164 8.86719H44.9336L48.8945 15.3477L52.8555 8.86719H55.8789L50.5234 17.1641L56.2891 26ZM69.9414 14.0469C69.9414 15.8359 69.3555 17.207 68.1836 18.1602C67.0117 19.1133 65.3438 19.5898 63.1797 19.5898H61.3984V26H58.5977V8.86719H63.5312C65.6719 8.86719 67.2734 9.30469 68.3359 10.1797C69.4062 11.0547 69.9414 12.3438 69.9414 14.0469ZM61.3984 17.2344H62.8867C64.3242 17.2344 65.3789 16.9844 66.0508 16.4844C66.7227 15.9844 67.0586 15.2031 67.0586 14.1406C67.0586 13.1562 66.7578 12.4219 66.1562 11.9375C65.5547 11.4531 64.6172 11.2109 63.3438 11.2109H61.3984V17.2344ZM88.5742 17.4102C88.5742 20.1992 87.875 22.3672 86.4766 23.9141C85.0859 25.4609 83.1133 26.2344 80.5586 26.2344C77.9727 26.2344 75.9844 25.4688 74.5938 23.9375C73.2109 22.3984 72.5195 20.2148 72.5195 17.3867C72.5195 14.5586 73.2148 12.3867 74.6055 10.8711C76.0039 9.35547 77.9961 8.59766 80.582 8.59766C83.1289 8.59766 85.0977 9.36719 86.4883 10.9062C87.8789 12.4453 88.5742 14.6133 88.5742 17.4102ZM75.4961 17.4102C75.4961 19.5195 75.9219 21.1211 76.7734 22.2148C77.625 23.3008 78.8867 23.8438 80.5586 23.8438C82.2227 23.8438 83.4766 23.3047 84.3203 22.2266C85.1719 21.1484 85.5977 19.543 85.5977 17.4102C85.5977 15.3086 85.1758 13.7148 84.332 12.6289C83.4961 11.543 82.2461 11 80.582 11C78.9023 11 77.6328 11.543 76.7734 12.6289C75.9219 13.7148 75.4961 15.3086 75.4961 17.4102ZM95.0547 16.8359H97C98.3047 16.8359 99.25 16.5938 99.8359 16.1094C100.422 15.625 100.715 14.9062 100.715 13.9531C100.715 12.9844 100.398 12.2891 99.7656 11.8672C99.1328 11.4453 98.1797 11.2344 96.9062 11.2344H95.0547V16.8359ZM95.0547 19.1562V26H92.2539V8.86719H97.0938C99.3047 8.86719 100.941 9.28125 102.004 10.1094C103.066 10.9375 103.598 12.1875 103.598 13.8594C103.598 15.9922 102.488 17.5117 100.27 18.418L105.109 26H101.922L97.8203 19.1562H95.0547ZM113.523 26H110.723V11.2695H105.684V8.86719H118.562V11.2695H113.523V26ZM138.062 26L136.352 21.2422H129.801L128.125 26H125.172L131.582 8.79688H134.629L141.039 26H138.062ZM135.613 18.8281L134.008 14.1641C133.891 13.8516 133.727 13.3594 133.516 12.6875C133.312 12.0156 133.172 11.5234 133.094 11.2109C132.883 12.1719 132.574 13.2227 132.168 14.3633L130.621 18.8281H135.613ZM153.18 21.3477C153.18 22.8711 152.629 24.0664 151.527 24.9336C150.426 25.8008 148.906 26.2344 146.969 26.2344C145.031 26.2344 143.445 25.9336 142.211 25.332V22.6836C142.992 23.0508 143.82 23.3398 144.695 23.5508C145.578 23.7617 146.398 23.8672 147.156 23.8672C148.266 23.8672 149.082 23.6562 149.605 23.2344C150.137 22.8125 150.402 22.2461 150.402 21.5352C150.402 20.8945 150.16 20.3516 149.676 19.9062C149.191 19.4609 148.191 18.9336 146.676 18.3242C145.113 17.6914 144.012 16.9688 143.371 16.1562C142.73 15.3438 142.41 14.3672 142.41 13.2266C142.41 11.7969 142.918 10.6719 143.934 9.85156C144.949 9.03125 146.312 8.62109 148.023 8.62109C149.664 8.62109 151.297 8.98047 152.922 9.69922L152.031 11.9844C150.508 11.3438 149.148 11.0234 147.953 11.0234C147.047 11.0234 146.359 11.2227 145.891 11.6211C145.422 12.0117 145.188 12.5312 145.188 13.1797C145.188 13.625 145.281 14.0078 145.469 14.3281C145.656 14.6406 145.965 14.9375 146.395 15.2188C146.824 15.5 147.598 15.8711 148.715 16.332C149.973 16.8555 150.895 17.3438 151.48 17.7969C152.066 18.25 152.496 18.7617 152.77 19.332C153.043 19.9023 153.18 20.5742 153.18 21.3477ZM170.02 11.0234C168.41 11.0234 167.145 11.5938 166.223 12.7344C165.301 13.875 164.84 15.4492 164.84 17.457C164.84 19.5586 165.281 21.1484 166.164 22.2266C167.055 23.3047 168.34 23.8438 170.02 23.8438C170.746 23.8438 171.449 23.7734 172.129 23.6328C172.809 23.4844 173.516 23.2969 174.25 23.0703V25.4727C172.906 25.9805 171.383 26.2344 169.68 26.2344C167.172 26.2344 165.246 25.4766 163.902 23.9609C162.559 22.4375 161.887 20.2617 161.887 17.4336C161.887 15.6523 162.211 14.0938 162.859 12.7578C163.516 11.4219 164.461 10.3984 165.695 9.6875C166.93 8.97656 168.379 8.62109 170.043 8.62109C171.793 8.62109 173.41 8.98828 174.895 9.72266L173.887 12.0547C173.309 11.7812 172.695 11.543 172.047 11.3398C171.406 11.1289 170.73 11.0234 170.02 11.0234ZM187.82 21.3477C187.82 22.8711 187.27 24.0664 186.168 24.9336C185.066 25.8008 183.547 26.2344 181.609 26.2344C179.672 26.2344 178.086 25.9336 176.852 25.332V22.6836C177.633 23.0508 178.461 23.3398 179.336 23.5508C180.219 23.7617 181.039 23.8672 181.797 23.8672C182.906 23.8672 183.723 23.6562 184.246 23.2344C184.777 22.8125 185.043 22.2461 185.043 21.5352C185.043 20.8945 184.801 20.3516 184.316 19.9062C183.832 19.4609 182.832 18.9336 181.316 18.3242C179.754 17.6914 178.652 16.9688 178.012 16.1562C177.371 15.3438 177.051 14.3672 177.051 13.2266C177.051 11.7969 177.559 10.6719 178.574 9.85156C179.59 9.03125 180.953 8.62109 182.664 8.62109C184.305 8.62109 185.938 8.98047 187.562 9.69922L186.672 11.9844C185.148 11.3438 183.789 11.0234 182.594 11.0234C181.688 11.0234 181 11.2227 180.531 11.6211C180.062 12.0117 179.828 12.5312 179.828 13.1797C179.828 13.625 179.922 14.0078 180.109 14.3281C180.297 14.6406 180.605 14.9375 181.035 15.2188C181.465 15.5 182.238 15.8711 183.355 16.332C184.613 16.8555 185.535 17.3438 186.121 17.7969C186.707 18.25 187.137 18.7617 187.41 19.332C187.684 19.9023 187.82 20.5742 187.82 21.3477ZM200.898 8.86719H203.805L197.805 26H194.852L188.875 8.86719H191.758L195.332 19.5195C195.52 20.0273 195.719 20.6836 195.93 21.4883C196.141 22.2852 196.277 22.8789 196.34 23.2695C196.441 22.6758 196.598 21.9883 196.809 21.207C197.02 20.4258 197.191 19.8477 197.324 19.4727L200.898 8.86719Z" fill="white"/>
<path fill-rule="evenodd" clip-rule="evenodd" d="M1.375 25.2632H20.625C20.9897 25.2632 21.3394 25.4073 21.5973 25.664C21.8551 25.9206 22 26.2687 22 26.6316C22 26.9945 21.8551 27.3426 21.5973 27.5992C21.3394 27.8558 20.9897 28 20.625 28H1.375C1.01033 28 0.660591 27.8558 0.402728 27.5992C0.144866 27.3426 0 26.9945 0 26.6316C0 26.2687 0.144866 25.9206 0.402728 25.664C0.660591 25.4073 1.01033 25.2632 1.375 25.2632ZM12.375 17.2921L16.8341 12.8557L18.7784 14.7906L11 22.5318L3.22163 14.7906L5.16587 12.8557L9.625 17.2921V2H12.375V17.2921Z" fill="white"/>
</svg>
