<svg width="17" height="17" viewBox="0 0 17 17" fill="none" xmlns="http://www.w3.org/2000/svg">
<path d="M7.40906 2.94153H10.4091C10.4091 2.5437 10.251 2.16217 9.96972 1.88087C9.68841 1.59956 9.30688 1.44153 8.90906 1.44153C8.51123 1.44153 8.1297 1.59956 7.8484 1.88087C7.56709 2.16217 7.40906 2.5437 7.40906 2.94153ZM6.40906 2.94153C6.40906 2.27849 6.67245 1.6426 7.14129 1.17376C7.61013 0.70492 8.24602 0.441528 8.90906 0.441528C9.5721 0.441528 10.208 0.70492 10.6768 1.17376C11.1457 1.6426 11.4091 2.27849 11.4091 2.94153H16.4091C16.5417 2.94153 16.6688 2.99421 16.7626 3.08798C16.8564 3.18174 16.9091 3.30892 16.9091 3.44153C16.9091 3.57414 16.8564 3.70131 16.7626 3.79508C16.6688 3.88885 16.5417 3.94153 16.4091 3.94153H15.3551L14.1611 14.2855C14.0767 15.0167 13.7264 15.6914 13.1769 16.1811C12.6274 16.6708 11.9171 16.9415 11.1811 16.9415H6.63706C5.90101 16.9415 5.19067 16.6708 4.64119 16.1811C4.09172 15.6914 3.74146 15.0167 3.65706 14.2855L2.46306 3.94153H1.40906C1.27645 3.94153 1.14927 3.88885 1.0555 3.79508C0.961736 3.70131 0.909058 3.57414 0.909058 3.44153C0.909058 3.30892 0.961736 3.18174 1.0555 3.08798C1.14927 2.99421 1.27645 2.94153 1.40906 2.94153H6.40906ZM7.90906 6.94153C7.90906 6.80892 7.85638 6.68174 7.76261 6.58798C7.66884 6.49421 7.54167 6.44153 7.40906 6.44153C7.27645 6.44153 7.14927 6.49421 7.0555 6.58798C6.96174 6.68174 6.90906 6.80892 6.90906 6.94153V12.9415C6.90906 13.0741 6.96174 13.2013 7.0555 13.2951C7.14927 13.3889 7.27645 13.4415 7.40906 13.4415C7.54167 13.4415 7.66884 13.3889 7.76261 13.2951C7.85638 13.2013 7.90906 13.0741 7.90906 12.9415V6.94153ZM10.4091 6.44153C10.2764 6.44153 10.1493 6.49421 10.0555 6.58798C9.96174 6.68174 9.90906 6.80892 9.90906 6.94153V12.9415C9.90906 13.0741 9.96174 13.2013 10.0555 13.2951C10.1493 13.3889 10.2764 13.4415 10.4091 13.4415C10.5417 13.4415 10.6688 13.3889 10.7626 13.2951C10.8564 13.2013 10.9091 13.0741 10.9091 12.9415V6.94153C10.9091 6.80892 10.8564 6.68174 10.7626 6.58798C10.6688 6.49421 10.5417 6.44153 10.4091 6.44153Z" fill="#FF3D00" fill-opacity="0.6"/>
</svg>
