<svg width="35" height="31" viewBox="0 0 35 31" fill="none" xmlns="http://www.w3.org/2000/svg">
<path d="M32.7968 10.4243C31.94 8.39621 30.6978 6.55367 29.1392 4.99877C27.5843 3.44011 25.7417 2.19795 23.7137 1.34113C21.6067 0.449584 19.374 0 17.069 0C14.7639 0 12.5312 0.449584 10.4243 1.34113C8.39621 2.19795 6.55367 3.44011 4.99877 4.99877C3.44011 6.55367 2.19795 8.39621 1.34113 10.4243C0.449584 12.5312 0 14.7639 0 17.069C0 22.1249 2.22125 26.8874 6.09225 30.1412L6.15702 30.1945C6.378 30.3774 6.65613 30.4803 6.94189 30.4803H27.1999C27.4856 30.4803 27.7637 30.3774 27.9847 30.1945L28.0495 30.1412C31.9167 26.8874 34.1379 22.1249 34.1379 17.069C34.1379 14.7639 33.6845 12.5312 32.7968 10.4243ZM26.5712 27.5847H7.56673C6.09452 26.2572 4.91787 24.6351 4.11315 22.8235C3.30843 21.0118 2.89361 19.0513 2.89563 17.069C2.89563 13.2818 4.37011 9.72322 7.04857 7.04857C9.72702 4.37011 13.2856 2.89563 17.069 2.89563C20.8561 2.89563 24.4147 4.37011 27.0894 7.04857C29.7678 9.72703 31.2423 13.2856 31.2423 17.069C31.2423 21.0924 29.5468 24.8986 26.5712 27.5847ZM21.3172 11.7921C21.2599 11.7353 21.1825 11.7035 21.1019 11.7035C21.0213 11.7035 20.9439 11.7353 20.8866 11.7921L17.6671 15.0115C16.9547 14.821 16.166 15.0039 15.6059 15.564C15.4075 15.762 15.2502 15.9972 15.1428 16.2561C15.0354 16.515 14.9801 16.7925 14.9801 17.0728C14.9801 17.3531 15.0354 17.6306 15.1428 17.8895C15.2502 18.1484 15.4075 18.3836 15.6059 18.5816C15.8039 18.7799 16.0391 18.9373 16.298 19.0447C16.5569 19.1521 16.8344 19.2073 17.1147 19.2073C17.395 19.2073 17.6725 19.1521 17.9314 19.0447C18.1903 18.9373 18.4255 18.7799 18.6235 18.5816C18.8888 18.317 19.0796 17.9871 19.1766 17.6252C19.2736 17.2632 19.2734 16.8821 19.1759 16.5203L22.3954 13.3008C22.5135 13.1827 22.5135 12.9884 22.3954 12.8703L21.3172 11.7921V11.7921ZM16.2308 7.92488H17.9072C18.0748 7.92488 18.212 7.78772 18.212 7.62007V4.57204C18.212 4.4044 18.0748 4.26724 17.9072 4.26724H16.2308C16.0631 4.26724 15.926 4.4044 15.926 4.57204V7.62007C15.926 7.78772 16.0631 7.92488 16.2308 7.92488ZM26.1369 16.2308V17.9072C26.1369 18.0748 26.274 18.212 26.4417 18.212H29.4897C29.6573 18.212 29.7945 18.0748 29.7945 17.9072V16.2308C29.7945 16.0631 29.6573 15.926 29.4897 15.926H26.4417C26.274 15.926 26.1369 16.0631 26.1369 16.2308ZM26.6207 8.71736L25.4358 7.53244C25.3785 7.47572 25.3012 7.4439 25.2205 7.4439C25.1399 7.4439 25.0626 7.47572 25.0053 7.53244L22.8488 9.68892C22.7921 9.74621 22.7602 9.82357 22.7602 9.90419C22.7602 9.98481 22.7921 10.0622 22.8488 10.1195L24.0337 11.3044C24.1518 11.4225 24.3461 11.4225 24.4642 11.3044L26.6207 9.1479C26.7388 9.02979 26.7388 8.83548 26.6207 8.71736ZM9.1479 7.53244C9.09061 7.47572 9.01325 7.4439 8.93263 7.4439C8.85201 7.4439 8.77465 7.47572 8.71736 7.53244L7.53244 8.71736C7.47572 8.77465 7.4439 8.85201 7.4439 8.93263C7.4439 9.01325 7.47572 9.09061 7.53244 9.1479L9.68892 11.3044C9.80703 11.4225 10.0013 11.4225 10.1195 11.3044L11.3044 10.1195C11.4225 10.0013 11.4225 9.80704 11.3044 9.68892L9.1479 7.53244ZM7.54387 15.926H4.49584C4.3282 15.926 4.19104 16.0631 4.19104 16.2308V17.9072C4.19104 18.0748 4.3282 18.212 4.49584 18.212H7.54387C7.71151 18.212 7.84868 18.0748 7.84868 17.9072V16.2308C7.84868 16.0631 7.71151 15.926 7.54387 15.926Z" fill="#F5F5F5"/>
</svg>
