<svg width="66" height="66" viewBox="0 0 66 66" fill="none" xmlns="http://www.w3.org/2000/svg">
<circle cx="33" cy="33" r="33" fill="white"/>
<path d="M48.728 28.6312C47.8711 26.6031 46.629 24.7606 45.0703 23.2057C43.5154 21.647 41.6729 20.4049 39.6448 19.548C37.5379 18.6565 35.3052 18.2069 33.0001 18.2069C30.695 18.2069 28.4624 18.6565 26.3554 19.548C24.3274 20.4049 22.4848 21.647 20.9299 23.2057C19.3713 24.7606 18.1291 26.6031 17.2723 28.6312C16.3807 30.7381 15.9312 32.9708 15.9312 35.2759C15.9312 40.3318 18.1524 45.0943 22.0234 48.3481L22.0882 48.4015C22.3092 48.5843 22.5873 48.6872 22.873 48.6872H43.131C43.4168 48.6872 43.6949 48.5843 43.9159 48.4015L43.9806 48.3481C47.8478 45.0943 50.0691 40.3318 50.0691 35.2759C50.0691 32.9708 49.6157 30.7381 48.728 28.6312ZM42.5023 45.7916H23.4979C22.0257 44.4641 20.849 42.842 20.0443 41.0304C19.2396 39.2188 18.8248 37.2582 18.8268 35.2759C18.8268 31.4887 20.3013 27.9301 22.9797 25.2555C25.6582 22.577 29.2168 21.1025 33.0001 21.1025C36.7873 21.1025 40.3459 22.577 43.0205 25.2555C45.699 27.9339 47.1735 31.4925 47.1735 35.2759C47.1735 39.2993 45.478 43.1055 42.5023 45.7916ZM37.2483 29.999C37.191 29.9423 37.1137 29.9104 37.033 29.9104C36.9524 29.9104 36.8751 29.9423 36.8178 29.999L33.5983 33.2185C32.8858 33.028 32.0971 33.2108 31.5371 33.7709C31.3387 33.9689 31.1813 34.2041 31.0739 34.463C30.9665 34.7219 30.9113 34.9994 30.9113 35.2797C30.9113 35.56 30.9665 35.8375 31.0739 36.0964C31.1813 36.3553 31.3387 36.5905 31.5371 36.7885C31.7351 36.9868 31.9702 37.1442 32.2291 37.2516C32.488 37.359 32.7656 37.4143 33.0458 37.4143C33.3261 37.4143 33.6036 37.359 33.8625 37.2516C34.1214 37.1442 34.3566 36.9868 34.5546 36.7885C34.82 36.5239 35.0108 36.194 35.1078 35.8321C35.2048 35.4701 35.2045 35.089 35.1071 34.7272L38.3265 31.5077C38.4447 31.3896 38.4447 31.1953 38.3265 31.0772L37.2483 29.999ZM32.1619 26.1318H33.8383C34.006 26.1318 34.1431 25.9946 34.1431 25.827V22.779C34.1431 22.6113 34.006 22.4742 33.8383 22.4742H32.1619C31.9943 22.4742 31.8571 22.6113 31.8571 22.779V25.827C31.8571 25.9946 31.9943 26.1318 32.1619 26.1318ZM42.068 34.4377V36.1141C42.068 36.2817 42.2052 36.4189 42.3728 36.4189H45.4208C45.5885 36.4189 45.7256 36.2817 45.7256 36.1141V34.4377C45.7256 34.27 45.5885 34.1329 45.4208 34.1329H42.3728C42.2052 34.1329 42.068 34.27 42.068 34.4377ZM42.5519 26.9243L41.367 25.7394C41.3097 25.6826 41.2323 25.6508 41.1517 25.6508C41.0711 25.6508 40.9937 25.6826 40.9364 25.7394L38.7799 27.8958C38.7232 27.9531 38.6914 28.0305 38.6914 28.1111C38.6914 28.1917 38.7232 28.2691 38.7799 28.3264L39.9649 29.5113C40.083 29.6294 40.2773 29.6294 40.3954 29.5113L42.5519 27.3548C42.67 27.2367 42.67 27.0424 42.5519 26.9243ZM25.0791 25.7394C25.0218 25.6826 24.9444 25.6508 24.8638 25.6508C24.7832 25.6508 24.7058 25.6826 24.6485 25.7394L23.4636 26.9243C23.4069 26.9816 23.3751 27.0589 23.3751 27.1395C23.3751 27.2202 23.4069 27.2975 23.4636 27.3548L25.6201 29.5113C25.7382 29.6294 25.9325 29.6294 26.0506 29.5113L27.2355 28.3264C27.3536 28.2083 27.3536 28.0139 27.2355 27.8958L25.0791 25.7394ZM23.475 34.1329H20.427C20.2594 34.1329 20.1222 34.27 20.1222 34.4377V36.1141C20.1222 36.2817 20.2594 36.4189 20.427 36.4189H23.475C23.6427 36.4189 23.7798 36.2817 23.7798 36.1141V34.4377C23.7798 34.27 23.6427 34.1329 23.475 34.1329Z" fill="#8BC53E"/>
</svg>
