<svg width="19" height="19" viewBox="0 0 19 19" fill="none" xmlns="http://www.w3.org/2000/svg">
<path d="M1.14509 12.5723L0.0279561 17.3936C-0.0105814 17.5699 -0.00926034 17.7525 0.0318227 17.9282C0.0729058 18.1038 0.152713 18.2681 0.265414 18.409C0.378116 18.5499 0.520864 18.6638 0.683232 18.7424C0.845599 18.8211 1.02348 18.8625 1.20389 18.8635C1.28795 18.872 1.37266 18.872 1.45672 18.8635L6.30745 17.7464L15.6208 8.46828L10.4232 3.28241L1.14509 12.5723Z" fill="#404A3D"/>
<path d="M18.5489 3.82331L15.0799 0.354302C14.8518 0.127384 14.5432 0 14.2215 0C13.8997 0 13.5911 0.127384 13.363 0.354302L11.4345 2.28283L16.6263 7.47459L18.5548 5.54605C18.6677 5.43262 18.757 5.29805 18.8178 5.15004C18.8786 5.00202 18.9096 4.84347 18.9091 4.68346C18.9085 4.52345 18.8765 4.36512 18.8147 4.21752C18.7528 4.06993 18.6625 3.93597 18.5489 3.82331Z" fill="#404A3D"/>
</svg>
