<svg width="30" height="30" viewBox="0 0 30 30" fill="none" xmlns="http://www.w3.org/2000/svg">
<circle cx="15.0536" cy="14.9464" r="14.9464" fill="#49A760"/>
<path d="M14.9075 11.4746C13.0747 11.4746 11.5791 12.9703 11.5791 14.8031C11.5791 16.6359 13.0747 18.1316 14.9075 18.1316C16.7402 18.1316 18.2359 16.6359 18.2359 14.8031C18.2359 12.9703 16.7402 11.4746 14.9075 11.4746ZM24.8902 14.8031C24.8902 13.4247 24.9027 12.0589 24.8253 10.683C24.7479 9.08497 24.3834 7.66668 23.2148 6.49809C22.0437 5.327 20.628 4.96494 19.0299 4.88753C17.6516 4.81013 16.2858 4.82261 14.91 4.82261C13.5317 4.82261 12.1658 4.81013 10.79 4.88753C9.19198 4.96494 7.77371 5.3295 6.60515 6.49809C5.43408 7.66918 5.07202 9.08497 4.99462 10.683C4.91721 12.0614 4.9297 13.4272 4.9297 14.8031C4.9297 16.1789 4.91721 17.5473 4.99462 18.9231C5.07202 20.5212 5.43658 21.9395 6.60515 23.1081C7.77621 24.2791 9.19198 24.6412 10.79 24.7186C12.1683 24.796 13.5342 24.7835 14.91 24.7835C16.2883 24.7835 17.6541 24.796 19.0299 24.7186C20.628 24.6412 22.0462 24.2766 23.2148 23.1081C24.3859 21.937 24.7479 20.5212 24.8253 18.9231C24.9052 17.5473 24.8902 16.1814 24.8902 14.8031V14.8031ZM14.9075 19.9244C12.0734 19.9244 9.78625 17.6372 9.78625 14.8031C9.78625 11.969 12.0734 9.68175 14.9075 9.68175C17.7415 9.68175 20.0287 11.969 20.0287 14.8031C20.0287 17.6372 17.7415 19.9244 14.9075 19.9244ZM20.2384 10.6681C19.5768 10.6681 19.0424 10.1337 19.0424 9.472C19.0424 8.8103 19.5768 8.27595 20.2384 8.27595C20.9001 8.27595 21.4345 8.8103 21.4345 9.472C21.4347 9.62913 21.4039 9.78475 21.3438 9.92995C21.2838 10.0751 21.1957 10.2071 21.0846 10.3182C20.9735 10.4293 20.8416 10.5174 20.6964 10.5774C20.5512 10.6375 20.3956 10.6683 20.2384 10.6681V10.6681Z" fill="white"/>
</svg>
