<svg width="31" height="30" viewBox="0 0 31 30" fill="none" xmlns="http://www.w3.org/2000/svg">
<circle cx="15.8393" cy="14.9464" r="14.9464" fill="#49A760"/>
<path d="M25.6769 14.8636C25.6769 9.31724 21.2084 4.82127 15.6969 4.82127C10.183 4.82252 5.71448 9.31724 5.71448 14.8649C5.71448 19.876 9.36465 24.0302 14.1351 24.7837V17.7665H11.6027V14.8649H14.1376V12.6505C14.1376 10.1344 15.6283 8.74464 17.9075 8.74464C19.0003 8.74464 20.1417 8.9405 20.1417 8.9405V11.4105H18.883C17.6443 11.4105 17.2575 12.1852 17.2575 12.9799V14.8636H20.0245L19.5829 17.7653H17.2563V24.7824C22.0267 24.0289 25.6769 19.8748 25.6769 14.8636Z" fill="white"/>
</svg>
