<svg width="31" height="30" viewBox="0 0 31 30" fill="none" xmlns="http://www.w3.org/2000/svg">
<circle cx="15.1607" cy="14.9464" r="14.9464" fill="#49A760"/>
<path d="M23.5048 9.59193C20.5187 4.82171 14.422 3.40354 9.69397 6.36881C5.09035 9.33408 3.59728 15.7803 6.58342 20.5505L6.83226 20.9373L5.83688 24.8051L9.56955 23.7737L9.94282 24.0315C11.5603 24.934 13.3022 25.4497 15.0441 25.4497C16.9105 25.4497 18.7768 24.934 20.3943 23.9026C24.9979 20.8084 26.3665 14.4911 23.5048 9.59193V9.59193ZM20.892 19.5191C20.3943 20.2927 19.7722 20.8084 18.9012 20.9373C18.4035 20.9373 17.7814 21.1952 15.293 20.1638C13.1778 19.1324 11.4359 17.4563 10.1917 15.5225C9.44513 14.62 9.07186 13.4597 8.94744 12.2994C8.94744 11.268 9.3207 10.3655 9.94282 9.72086C10.1917 9.46301 10.4405 9.33408 10.6893 9.33408H11.3115C11.5603 9.33408 11.8091 9.33408 11.9336 9.84978C12.1824 10.4944 12.8045 12.0415 12.8045 12.1704C12.9289 12.2994 12.9289 12.5572 12.8045 12.6861C12.9289 12.944 12.8045 13.2018 12.6801 13.3308C12.5557 13.4597 12.4313 13.7175 12.3068 13.8465C12.058 13.9754 11.9336 14.2332 12.058 14.4911C12.5557 15.2646 13.1778 16.0382 13.7999 16.6828C14.5464 17.3274 15.293 17.8431 16.1639 18.2299C16.4128 18.3588 16.6616 18.3588 16.786 18.101C16.9105 17.8431 17.5326 17.1985 17.7814 16.9406C18.0303 16.6828 18.1547 16.6828 18.4035 16.8117L20.3943 17.8431C20.6431 17.972 20.892 18.101 21.0164 18.2299C21.1408 18.6167 21.1408 19.1324 20.892 19.5191V19.5191Z" fill="white"/>
</svg>
