<svg width="30" height="30" viewBox="0 0 30 30" fill="none" xmlns="http://www.w3.org/2000/svg">
<circle cx="14.9464" cy="14.9464" r="14.9464" fill="#49A760"/>
<path d="M24.7839 8.67069C24.5107 9.07995 24.2005 9.46322 23.8571 9.81567C23.512 10.1704 23.137 10.4948 22.7364 10.7853C22.7492 10.9642 22.7559 11.1435 22.7563 11.3228C22.7563 12.1413 22.6693 12.9498 22.494 13.7497C22.3192 14.5467 22.0641 15.324 21.7325 16.0696C21.2733 17.1201 20.6664 18.0996 19.9302 18.9784C19.2247 19.8188 18.3981 20.5497 17.4777 21.1472C16.554 21.7432 15.5474 22.1997 14.4905 22.5018C13.3875 22.8175 12.2455 22.9754 11.0983 22.9709C9.99197 22.9723 8.89108 22.8163 7.82873 22.5075C6.76401 22.1975 5.75074 21.7324 4.82153 21.1272C5.89404 21.2569 6.9816 21.1738 8.02195 20.8826C9.06229 20.5914 10.035 20.098 10.8844 19.4304C10.249 19.4215 9.62452 19.2633 9.06151 18.9686C8.4985 18.6738 8.0127 18.2508 7.64336 17.7336C7.39145 17.3861 7.19562 17.0012 7.06303 16.5929C7.19278 16.6129 7.32111 16.63 7.44802 16.6428C7.93744 16.6907 8.4315 16.6477 8.90527 16.5159C8.43795 16.4238 7.99082 16.249 7.5849 15.9997C7.19158 15.758 6.84085 15.4531 6.54686 15.0972C5.9433 14.3664 5.61531 13.447 5.62003 12.4992V12.4521C6.19324 12.7758 6.8135 12.9483 7.48224 12.9683C6.92462 12.5885 6.4668 12.0798 6.14761 11.4854C5.99129 11.1922 5.8702 10.8816 5.78686 10.56C5.61709 9.87939 5.62052 9.1671 5.79684 8.48817C5.88667 8.14168 6.02641 7.8123 6.21605 7.50003C6.73507 8.14311 7.31398 8.72059 7.94993 9.22963C9.21385 10.2433 10.6743 10.9837 12.239 11.4041C13.0288 11.6157 13.8391 11.7415 14.6559 11.7791C14.6165 11.627 14.5888 11.4721 14.5732 11.3157C14.5571 11.1589 14.549 11.0014 14.5489 10.8437C14.5489 10.2777 14.6559 9.7458 14.8712 9.2496C15.2886 8.2691 16.0694 7.48829 17.0499 7.07084C17.5531 6.85547 18.0953 6.74626 18.6426 6.75002C19.204 6.74729 19.7599 6.86107 20.2751 7.08417C20.7902 7.30727 21.2535 7.63483 21.6356 8.04615C22.5504 7.86555 23.4272 7.52888 24.2278 7.05088C23.931 8.00105 23.2917 8.80703 22.4341 9.31234C23.2451 9.21808 24.0372 9.00225 24.7839 8.67211V8.67069Z" fill="white"/>
</svg>
