<svg width="34" height="21" viewBox="0 0 34 21" fill="none" xmlns="http://www.w3.org/2000/svg">
<path d="M0.131836 10.6505C1.79569 13.6984 4.26059 16.2338 7.26034 17.983C10.2601 19.7322 13.6807 20.6286 17.1528 20.5754C20.6078 20.6609 24.0177 19.7763 26.9955 18.022C29.9733 16.2677 32.3999 13.714 33.9999 10.6505C32.3365 7.60678 29.8735 5.07515 26.8766 3.32883C23.8798 1.58252 20.4629 0.687838 16.9947 0.741361C13.5393 0.655141 10.1287 1.53751 7.14869 3.28867C4.16865 5.03983 1.73808 7.5899 0.131836 10.6505Z" fill="#8BC53E"/>
<path d="M17.0262 16.7985C20.4215 16.7985 23.174 14.046 23.174 10.6507C23.174 7.25538 20.4215 4.50293 17.0262 4.50293C13.6309 4.50293 10.8784 7.25538 10.8784 10.6507C10.8784 14.046 13.6309 16.7985 17.0262 16.7985Z" fill="white"/>
<path d="M20.3457 10.6506C20.3457 9.99423 20.151 9.35257 19.7864 8.80679C19.4217 8.261 18.9034 7.83561 18.2969 7.58442C17.6905 7.33322 17.0232 7.2675 16.3794 7.39556C15.7356 7.52362 15.1442 7.8397 14.6801 8.30385C14.2159 8.768 13.8998 9.35938 13.7718 10.0032C13.6437 10.647 13.7095 11.3143 13.9606 11.9207C14.2118 12.5271 14.6372 13.0455 15.183 13.4102C15.7288 13.7748 16.3705 13.9695 17.0269 13.9695C17.9071 13.9695 18.7513 13.6198 19.3737 12.9974C19.9961 12.375 20.3457 11.5308 20.3457 10.6506Z" fill="#8BC53E"/>
<path d="M17.0262 12.2309C17.899 12.2309 18.6066 11.5233 18.6066 10.6505C18.6066 9.77764 17.899 9.07007 17.0262 9.07007C16.1534 9.07007 15.4458 9.77764 15.4458 10.6505C15.4458 11.5233 16.1534 12.2309 17.0262 12.2309Z" fill="#8BC53E"/>
</svg>
