<svg width="124" height="118" viewBox="0 0 124 118" fill="none" xmlns="http://www.w3.org/2000/svg">
<path d="M50.5296 31.8099C24.4096 31.1199 -6.32039 2.63995 4.06961 33.0799C10.0496 50.5799 30.2696 59.1099 50.5296 58.8499C70.7896 59.1099 91.0096 50.5899 96.9896 33.0799C107.38 2.63995 76.6496 31.1199 50.5296 31.8099Z" fill="#E59600"/>
<path d="M50.7799 84.5599H41.8599V95.2399C41.8599 100.07 45.4899 103.98 49.9699 103.98H51.5899C56.0699 103.98 59.6999 100.06 59.6999 95.2399V84.5599H50.7799ZM77.3699 45.6599H23.6899C17.8999 45.6599 13.1699 50.6999 13.1699 56.8699C13.1699 63.0399 17.8999 68.0799 23.6899 68.0799H77.3799C83.1699 68.0799 87.8999 63.0399 87.8999 56.8699C87.8999 50.6999 83.1599 45.6599 77.3699 45.6599Z" fill="#7A4C32"/>
<path d="M50.5296 6.98999C33.4296 6.98999 17.5996 25.27 17.5996 51.58C17.5996 77.75 33.9096 90.68 50.5296 90.68C67.1496 90.68 83.4596 77.75 83.4596 51.58C83.4596 25.27 67.6296 6.98999 50.5296 6.98999Z" fill="#A56C43"/>
<path d="M27.7297 45.7199C30.6797 41.5299 37.4097 41.1399 41.2597 44.2499C41.8697 44.7399 42.6797 45.4399 42.9297 46.2099C43.3197 47.4699 42.1197 48.4499 40.9397 48.1499C40.1897 47.9599 39.4897 47.5599 38.7397 47.3299C37.3897 46.8999 36.4097 46.7899 35.1897 46.7799C33.3897 46.7699 32.2297 46.9999 30.5197 47.6899C29.8197 47.9799 29.2397 48.4299 28.4397 48.0999C27.5197 47.7199 27.1797 46.5499 27.7297 45.7199ZM71.3797 48.0999C71.0897 47.9799 70.8197 47.8099 70.5297 47.6899C68.7697 46.9499 67.7697 46.7699 65.8597 46.7799C64.1797 46.7899 63.1697 47.0199 61.8697 47.4699C61.0597 47.7499 60.0497 48.4399 59.1597 48.1699C57.8597 47.7699 57.8997 46.3499 58.6097 45.4399C59.4597 44.3699 60.6197 43.5599 61.8697 43.0199C64.7397 41.7799 68.2497 41.9499 70.9497 43.5599C71.8397 44.0899 72.7997 44.8099 73.3297 45.7199C74.0697 47.0099 72.8997 48.7199 71.3797 48.0999Z" fill="#42312C"/>
<path d="M35.2296 58.8999C37.9027 58.8999 40.0696 56.6568 40.0696 53.8899C40.0696 51.1229 37.9027 48.8799 35.2296 48.8799C32.5566 48.8799 30.3896 51.1229 30.3896 53.8899C30.3896 56.6568 32.5566 58.8999 35.2296 58.8999Z" fill="#42312C"/>
<path d="M65.8293 58.8999C68.5023 58.8999 70.6693 56.6568 70.6693 53.8899C70.6693 51.1229 68.5023 48.8799 65.8293 48.8799C63.1562 48.8799 60.9893 51.1229 60.9893 53.8899C60.9893 56.6568 63.1562 58.8999 65.8293 58.8999Z" fill="#42312C"/>
<path d="M58.9096 70.92C55.7796 72.78 45.5196 72.78 42.3896 70.92C40.5896 69.85 38.7596 71.49 39.4996 73.12C40.2296 74.73 45.8296 78.45 50.6696 78.45C55.5096 78.45 61.0296 74.73 61.7696 73.12C62.5196 71.48 60.7096 69.85 58.9096 70.92Z" fill="#473530"/>
<path d="M54.3191 62.9699C54.2191 62.9299 54.1091 62.8999 53.9991 62.8899H47.0591C46.9491 62.8999 46.8491 62.9299 46.7391 62.9699C46.1091 63.2299 45.7591 63.8799 46.0591 64.5699C46.3591 65.2599 47.7391 67.2099 50.5291 67.2099C53.3191 67.2099 54.6991 65.2599 54.9991 64.5699C55.2991 63.8799 54.9491 63.2299 54.3191 62.9699Z" fill="#875334"/>
<path d="M86.4296 51.4798L86.2896 51.8398L86.1696 52.1598L85.8296 53.0298C85.7996 53.1198 85.7696 53.1998 85.7296 53.2898L83.4596 59.0898C83.3296 59.4298 82.8396 59.3998 82.7596 59.0398C82.6296 58.4798 82.4595 57.7398 82.2596 56.8598C82.0396 55.8498 81.7596 54.6498 81.4596 53.3498C80.8796 50.8598 80.1996 47.9798 79.5096 45.1998C79.1296 43.6998 78.7596 42.2198 78.3996 40.8498C78.0896 39.7098 77.7996 38.6498 77.5196 37.7098C77.2696 36.8498 77.0296 36.0798 76.8096 35.4498C76.7396 35.2298 76.6696 35.0298 76.5996 34.8498C75.5696 32.1098 72.7296 30.5198 69.8496 31.0398C65.4296 31.8398 58.3896 32.8398 50.6096 32.8398C50.5896 32.8398 50.5596 32.8298 50.5296 32.8298C50.4996 32.8298 50.4796 32.8398 50.4496 32.8398C42.6796 32.8398 35.6296 31.8398 31.2096 31.0398C28.3296 30.5198 25.4896 32.1098 24.4596 34.8498C23.7496 36.7298 22.7596 40.3698 21.7696 44.3198C21.6496 44.7998 21.5296 45.2798 21.4096 45.7698C21.2196 46.5098 21.0396 47.2698 20.8596 48.0198C20.7096 48.6198 20.5696 49.2198 20.4296 49.8098C20.4196 49.8198 20.4196 49.8298 20.4196 49.8498C20.2796 50.4298 20.1396 51.0098 20.0096 51.5798C19.9996 51.5998 19.9996 51.6098 19.9996 51.6198C19.8596 52.1898 19.7296 52.7498 19.6096 53.2798C19.3496 54.3898 19.1096 55.4298 18.8996 56.3398C18.7496 56.9998 18.6096 57.5898 18.4996 58.1098C18.4196 58.4598 18.3496 58.7798 18.2896 59.0498C18.2796 59.0998 18.2596 59.1398 18.2396 59.1698C18.2087 59.2329 18.1602 59.2857 18.0998 59.3215C18.0394 59.3573 17.9698 59.3747 17.8997 59.3715C17.8296 59.3683 17.7619 59.3447 17.705 59.3035C17.6481 59.2624 17.6045 59.2055 17.5796 59.1398C16.8896 57.3798 15.5796 53.9498 14.9696 52.3498L14.8996 52.1598C14.8296 51.9798 14.7696 51.8298 14.7296 51.7198L14.6396 51.4798C14.6396 51.4798 13.5996 45.6898 13.9196 37.9798C13.9296 37.7298 13.9396 37.4698 13.9596 37.2098C13.9796 36.6998 14.0196 36.1698 14.0596 35.6398C14.0696 35.4198 14.0896 35.1998 14.1096 34.9798C14.3396 32.2998 14.7496 29.4498 15.4296 26.5898H85.6296C88.6296 39.1898 86.4296 51.4798 86.4296 51.4798Z" fill="#3C2C23"/>
<path d="M86.4296 51.4798L86.2896 51.8398L86.1696 52.1598C86.0796 52.3998 85.9595 52.6998 85.8296 53.0298C85.7996 53.1198 85.7696 53.1998 85.7296 53.2898C85.0596 55.0598 84.0396 57.6898 83.4596 59.1498C83.4326 59.2231 83.3825 59.2856 83.3168 59.3279C83.2512 59.3702 83.1736 59.3901 83.0957 59.3844C83.0179 59.3788 82.9439 59.348 82.8851 59.2966C82.8263 59.2453 82.7857 59.1762 82.7696 59.0998C82.7696 59.0798 82.7596 59.0598 82.7596 59.0398C82.6296 58.4798 82.4595 57.7398 82.2596 56.8598C82.0295 55.8498 81.7596 54.6498 81.4596 53.3498C80.8796 50.8598 80.1996 47.9798 79.5096 45.1998C79.1395 43.6898 78.7596 42.2198 78.3996 40.8498C78.0896 39.7098 77.7996 38.6498 77.5196 37.7098C77.2696 36.8498 77.0296 36.0798 76.8096 35.4498C76.7396 35.2298 76.6696 35.0298 76.5996 34.8498C75.5696 32.1098 72.7296 30.5198 69.8496 31.0398C65.4296 31.8398 58.3896 32.8398 50.6096 32.8398C50.5896 32.8398 50.5596 32.8298 50.5296 32.8298C50.4996 32.8298 50.4796 32.8398 50.4496 32.8398C42.6796 32.8398 35.6296 31.8398 31.2096 31.0398C28.3296 30.5198 25.4896 32.1098 24.4596 34.8498C23.7496 36.7298 22.7596 40.3698 21.7696 44.3198C21.6496 44.7998 21.5296 45.2798 21.4096 45.7698C21.2196 46.5098 21.0396 47.2698 20.8596 48.0198C20.7096 48.6198 20.5696 49.2198 20.4296 49.8098C20.4196 49.8198 20.4196 49.8298 20.4196 49.8498C20.2796 50.4398 20.1396 51.0198 20.0096 51.5798C19.9996 51.5998 19.9996 51.6098 19.9996 51.6198C19.8596 52.1898 19.7396 52.7398 19.6096 53.2798C19.3496 54.3898 19.1096 55.4298 18.8996 56.3398C18.7496 56.9998 18.6196 57.5998 18.4996 58.1098C18.4196 58.4598 18.3496 58.7798 18.2896 59.0498C18.2796 59.0998 18.2596 59.1398 18.2396 59.1698C18.0896 59.3998 17.7096 59.3898 17.5896 59.0998L14.9696 52.3498L14.8996 52.1598L14.7296 51.7198L14.6396 51.4798C14.6396 51.4798 13.5996 45.6898 13.9196 37.9798C13.9296 37.7298 13.9396 37.4698 13.9596 37.2098C13.9796 36.6998 14.0196 36.1698 14.0596 35.6398C14.0696 35.4198 14.0896 35.1998 14.1096 34.9798C14.3396 32.2998 14.7496 29.4498 15.4296 26.5898H85.6296C88.6296 39.1898 86.4296 51.4798 86.4296 51.4798Z" fill="url(#paint0_radial_366_982)"/>
<path d="M76.5491 22.92C71.7291 10.93 66.9891 1.47 60.9191 0.74C59.2991 0.55 55.0591 0.01 50.7691 0C46.3191 0 41.8191 0.54 40.1491 0.74C34.0791 1.47 29.3391 10.93 24.5091 22.91C21.8891 29.41 79.1691 29.41 76.5491 22.92Z" fill="url(#paint1_linear_366_982)"/>
<path d="M90.63 18.5999C81.2 20.3099 65.45 22.2999 51.1 22.3599H49.96C35.61 22.2999 19.86 20.3099 10.43 18.5999C2.29 17.1199 2 22.4399 2 22.4399C2 22.4399 4.58 19.2499 9.11 23.6699C16.14 30.5299 27.59 41.4199 49.88 41.5099C50.1 41.5099 50.31 41.4999 50.53 41.4999C50.75 41.4999 50.96 41.5099 51.18 41.5099C73.48 41.4099 84.92 30.5299 91.95 23.6699C96.48 19.2499 99.06 22.4399 99.06 22.4399C99.06 22.4399 98.77 17.1199 90.63 18.5999Z" fill="url(#paint2_linear_366_982)"/>
<path d="M50.5295 21.31C42.9895 21.31 33.5095 20.56 28.6895 20.14C32.5495 18.25 40.3495 15.22 50.5295 15.22C60.7095 15.22 68.4995 18.26 72.3695 20.14C67.5495 20.56 58.0695 21.31 50.5295 21.31Z" fill="#78909C"/>
<path d="M50.5295 16.17C58.0695 16.17 64.2795 17.87 68.4895 19.49C63.3995 19.89 56.3795 20.34 50.5295 20.34C44.6795 20.34 37.6595 19.89 32.5695 19.49C38.3036 17.2975 44.3905 16.1723 50.5295 16.17ZM50.5295 14.25C35.3495 14.25 25.4795 20.8 25.4795 20.8C25.4795 20.8 39.8495 22.27 50.5295 22.27C61.2095 22.27 75.5795 20.8 75.5795 20.8C75.5795 20.8 65.7095 14.25 50.5295 14.25Z" fill="#90A4AE"/>
<path d="M106.54 102.89V117.88" stroke="#D18100" stroke-width="5" stroke-miterlimit="10"/>
<path d="M107.699 110.64H105.379C103.989 110.64 102.869 110.64 102.869 108.13V96.1199H110.199V108.13C110.209 110.26 109.079 110.64 107.699 110.64Z" fill="#636363"/>
<path d="M115.789 93.3798C113.949 93.3798 108.049 93.4398 106.719 93.4398C104.599 93.4398 98.9794 93.2498 96.6894 93.2498C89.2094 93.2498 89.1494 66.5598 89.1494 66.5598V91.2698C89.1494 97.9598 92.5694 100.1 98.5694 100.32H113.949C119.369 100.32 121.299 96.6098 121.299 92.1698L120.919 87.3098C120.899 87.3198 119.449 93.3798 115.789 93.3798Z" fill="#616161"/>
<path d="M122.429 32.2799C122.319 31.8599 121.699 31.8699 121.599 32.2899L120.449 36.9699L118.449 89.1499C118.449 89.1499 118.439 89.4199 118.439 89.5599C118.439 91.0999 117.249 92.1999 115.709 92.1999C114.169 92.1999 112.899 91.0799 112.899 89.5399C112.899 89.3199 113.499 37.1599 113.499 37.1599L112.309 32.0299C112.199 31.6099 111.589 31.6099 111.479 32.0199L110.129 37.0699L109.509 89.2199C109.509 90.9199 108.479 92.2099 106.779 92.2099C105.079 92.2099 103.699 90.8299 103.699 89.1299L103.399 36.9599L102.219 32.0199C102.109 31.6099 101.509 31.6099 101.389 32.0199L99.8893 37.1699L99.9193 89.0299C99.9193 90.7899 98.6993 92.2199 96.9393 92.2199C94.9793 92.2199 93.5393 90.7899 93.5393 89.0299L91.4993 36.9699L90.1593 31.9999C90.0493 31.5799 89.5593 31.6599 89.4393 32.0699L88.0693 37.0699L89.6693 90.6999C89.6693 95.2199 92.5493 98.6399 98.5493 98.8699H113.929C119.349 98.8699 121.429 95.1399 121.429 90.6999L123.589 37.2999L122.429 32.2799Z" fill="url(#paint3_linear_366_982)"/>
<path d="M94.79 114.69C94.79 96.8999 69.23 92.7999 60.13 91.9099L52.46 102.45H49.13L41.58 91.8899C31.73 92.8199 23.35 95.1599 17.3 98.6699C10.32 102.72 6.79004 108.11 6.79004 114.68V117.88H94.81V114.69H94.79Z" fill="url(#paint4_linear_366_982)"/>
<path d="M82.7 113.96L75.53 108.44L75.78 108.05L49.79 108.54L25.92 108.05L26.17 108.442L0 113.96L18.83 117.88H82.87L82.7 113.96Z" fill="url(#paint5_linear_366_982)"/>
<path d="M32.8395 101.01L32.7295 93.1899C32.7295 93.1899 26.9395 94.3899 24.8595 95.2899L21.9395 101.89L25.7195 107.75L32.8395 101.01Z" fill="url(#paint6_linear_366_982)"/>
<path d="M68.8594 101.01L68.9694 93.1899C68.9694 93.1899 74.7594 94.3899 76.8394 95.2899L79.7594 101.89L75.9694 107.75L68.8594 101.01Z" fill="url(#paint7_linear_366_982)"/>
<path d="M72.0295 109.49L77.1995 110.47C77.8635 110.593 78.5493 110.449 79.1075 110.069C79.6657 109.688 80.051 109.103 80.1795 108.44C80.3026 107.776 80.1584 107.09 79.7781 106.532C79.3979 105.974 78.8125 105.588 78.1495 105.46L72.9795 104.48C72.3154 104.357 71.6296 104.501 71.0715 104.881C70.5133 105.262 70.128 105.847 69.9995 106.51C69.7395 107.9 70.6395 109.23 72.0295 109.49ZM29.6695 109.49L24.4995 110.47C23.1195 110.73 21.7795 109.82 21.5195 108.44C21.3963 107.776 21.5406 107.09 21.9208 106.532C22.3011 105.974 22.8865 105.588 23.5495 105.46L28.7195 104.48C29.3835 104.357 30.0693 104.501 30.6275 104.881C31.1857 105.262 31.571 105.847 31.6995 106.51C31.9595 107.9 31.0595 109.23 29.6695 109.49Z" fill="#BDBDBD"/>
<path d="M41.4395 91.9099C38.8295 92.1599 36.3295 92.5199 33.9395 92.9599L33.6895 113.91L50.7795 102.38L41.4395 91.9099Z" fill="url(#paint8_linear_366_982)"/>
<path d="M67.62 92.9899C64.66 92.4299 62.03 92.0999 60.13 91.9099L50.79 102.39L67.88 113.92L67.62 92.9899Z" fill="url(#paint9_linear_366_982)"/>
<defs>
<radialGradient id="paint0_radial_366_982" cx="0" cy="0" r="1" gradientUnits="userSpaceOnUse" gradientTransform="translate(50.5326 50.0895) scale(35.435 39.9778)">
<stop offset="0.794" stop-color="#554138" stop-opacity="0"/>
<stop offset="1" stop-color="#554138"/>
</radialGradient>
<linearGradient id="paint1_linear_366_982" x1="50.5301" y1="1.454" x2="50.5301" y2="25.239" gradientUnits="userSpaceOnUse">
<stop offset="0.003" stop-color="#FFF59D"/>
<stop offset="0.553" stop-color="#FEE565"/>
<stop offset="0.996" stop-color="#FDD835"/>
</linearGradient>
<linearGradient id="paint2_linear_366_982" x1="50.53" y1="20.4269" x2="50.53" y2="49.4549" gradientUnits="userSpaceOnUse">
<stop offset="0.003" stop-color="#FFF59D"/>
<stop offset="0.553" stop-color="#FEE565"/>
<stop offset="0.996" stop-color="#FDD835"/>
</linearGradient>
<linearGradient id="paint3_linear_366_982" x1="105.837" y1="102.348" x2="105.837" y2="43.6779" gradientUnits="userSpaceOnUse">
<stop stop-color="#757575"/>
<stop offset="0.482" stop-color="#9E9E9E"/>
</linearGradient>
<linearGradient id="paint4_linear_366_982" x1="50.78" y1="117.88" x2="50.78" y2="91.8979" gradientUnits="userSpaceOnUse">
<stop stop-color="#709E3B"/>
<stop offset="0.328" stop-color="#73A13E"/>
<stop offset="0.595" stop-color="#7DAB47"/>
<stop offset="0.839" stop-color="#8DBC57"/>
<stop offset="1" stop-color="#9CCC65"/>
</linearGradient>
<linearGradient id="paint5_linear_366_982" x1="50.851" y1="118.398" x2="50.851" y2="93.8058" gradientUnits="userSpaceOnUse">
<stop stop-color="#1E88E5"/>
<stop offset="1" stop-color="#1565C0"/>
</linearGradient>
<linearGradient id="paint6_linear_366_982" x1="27.3935" y1="117.872" x2="27.3935" y2="94.4949" gradientUnits="userSpaceOnUse">
<stop stop-color="#1E88E5"/>
<stop offset="1" stop-color="#1565C0"/>
</linearGradient>
<linearGradient id="paint7_linear_366_982" x1="74.3064" y1="117.872" x2="74.3064" y2="94.4949" gradientUnits="userSpaceOnUse">
<stop stop-color="#1E88E5"/>
<stop offset="1" stop-color="#1565C0"/>
</linearGradient>
<linearGradient id="paint8_linear_366_982" x1="42.2345" y1="94.1489" x2="42.2345" y2="108.926" gradientUnits="userSpaceOnUse">
<stop stop-color="#AED581"/>
<stop offset="1" stop-color="#8BC34A"/>
</linearGradient>
<linearGradient id="paint9_linear_366_982" x1="59.325" y1="91.9679" x2="59.325" y2="109.402" gradientUnits="userSpaceOnUse">
<stop stop-color="#AED581"/>
<stop offset="1" stop-color="#8BC34A"/>
</linearGradient>
</defs>
</svg>
