<svg width="35" height="34" viewBox="0 0 35 34" fill="none" xmlns="http://www.w3.org/2000/svg">
<path d="M14.3097 9.00837C6.91257 8.81296 -1.79004 0.747542 1.15237 9.36803C2.84588 14.324 8.5721 16.7396 14.3097 16.666C20.0472 16.7396 25.7734 14.3268 27.4669 9.36803C30.4093 0.747542 21.7067 8.81296 14.3097 9.00837Z" fill="#E59600"/>
<path d="M14.3805 23.947H11.8544V26.9715C11.8544 28.3394 12.8824 29.4467 14.1511 29.4467H14.6099C15.8786 29.4467 16.9066 28.3365 16.9066 26.9715V23.947H14.3805ZM21.9107 12.9307H6.70871C5.06901 12.9307 3.72949 14.358 3.72949 16.1053C3.72949 17.8526 5.06901 19.2799 6.70871 19.2799H21.9135C23.5532 19.2799 24.8927 17.8526 24.8927 16.1053C24.8927 14.358 23.5504 12.9307 21.9107 12.9307Z" fill="#7A4C32"/>
<path d="M14.31 1.97949C9.46737 1.97949 4.98438 7.15631 4.98438 14.6072C4.98438 22.0184 9.6033 25.6802 14.31 25.6802C19.0167 25.6802 23.6357 22.0184 23.6357 14.6072C23.6357 7.15631 19.1527 1.97949 14.31 1.97949Z" fill="#A56C43"/>
<path d="M7.85285 12.9477C8.68828 11.7611 10.5942 11.6506 11.6845 12.5314C11.8572 12.6701 12.0866 12.8684 12.1574 13.0864C12.2679 13.4433 11.928 13.7208 11.5939 13.6358C11.3815 13.582 11.1832 13.4687 10.9708 13.4036C10.5885 13.2818 10.311 13.2507 9.96549 13.2479C9.45574 13.245 9.12723 13.3102 8.64296 13.5056C8.44473 13.5877 8.28047 13.7151 8.05392 13.6217C7.79338 13.5141 7.69709 13.1827 7.85285 12.9477ZM20.2144 13.6217C20.1322 13.5877 20.0558 13.5395 19.9736 13.5056C19.4752 13.296 19.192 13.245 18.6511 13.2479C18.1753 13.2507 17.8893 13.3158 17.5212 13.4433C17.2918 13.5226 17.0057 13.718 16.7537 13.6415C16.3855 13.5282 16.3969 13.1261 16.5979 12.8684C16.8387 12.5653 17.1672 12.336 17.5212 12.183C18.3339 11.8319 19.3279 11.88 20.0926 12.336C20.3446 12.4861 20.6165 12.69 20.7666 12.9477C20.9761 13.313 20.6448 13.7973 20.2144 13.6217Z" fill="#42312C"/>
<path d="M9.97662 16.6802C10.7336 16.6802 11.3473 16.0449 11.3473 15.2613C11.3473 14.4778 10.7336 13.8425 9.97662 13.8425C9.21963 13.8425 8.60596 14.4778 8.60596 15.2613C8.60596 16.0449 9.21963 16.6802 9.97662 16.6802Z" fill="#42312C"/>
<path d="M18.6426 16.6802C19.3996 16.6802 20.0133 16.0449 20.0133 15.2613C20.0133 14.4778 19.3996 13.8425 18.6426 13.8425C17.8856 13.8425 17.272 14.4778 17.272 15.2613C17.272 16.0449 17.8856 16.6802 18.6426 16.6802Z" fill="#42312C"/>
<path d="M16.6828 20.0842C15.7963 20.6109 12.8908 20.6109 12.0044 20.0842C11.4946 19.7811 10.9764 20.2456 11.1859 20.7072C11.3927 21.1631 12.9786 22.2166 14.3492 22.2166C15.7199 22.2166 17.2831 21.1631 17.4927 20.7072C17.7051 20.2427 17.1925 19.7811 16.6828 20.0842Z" fill="#473530"/>
<path d="M15.3827 17.8327C15.3544 17.8214 15.3233 17.8129 15.2921 17.8101H13.3267C13.2956 17.8129 13.2673 17.8214 13.2361 17.8327C13.0577 17.9063 12.9586 18.0904 13.0435 18.2858C13.1285 18.4812 13.5193 19.0335 14.3094 19.0335C15.0995 19.0335 15.4904 18.4812 15.5753 18.2858C15.6603 18.0904 15.5612 17.9063 15.3827 17.8327Z" fill="#875334"/>
<path d="M24.4767 14.5788L24.437 14.6807L24.403 14.7714L24.3067 15.0177C24.2983 15.0432 24.2898 15.0659 24.2784 15.0914L23.6356 16.7339C23.5988 16.8302 23.46 16.8217 23.4373 16.7197C23.4005 16.5612 23.3524 16.3516 23.2957 16.1024C23.2334 15.8163 23.1541 15.4765 23.0692 15.1084C22.9049 14.4032 22.7124 13.5876 22.5169 12.8003C22.4093 12.3755 22.3046 11.9564 22.2026 11.5684C22.1148 11.2456 22.0327 10.9454 21.9534 10.6792C21.8826 10.4356 21.8146 10.2176 21.7523 10.0391C21.7325 9.97684 21.7127 9.9202 21.6928 9.86923C21.4012 9.09327 20.5969 8.64299 19.7813 8.79025C18.5295 9.01681 16.5358 9.3 14.3326 9.3C14.3269 9.3 14.3184 9.29717 14.3099 9.29717C14.3014 9.29717 14.2958 9.3 14.2873 9.3C12.0868 9.3 10.0903 9.01681 8.83858 8.79025C8.02298 8.64299 7.2187 9.09327 6.92701 9.86923C6.72594 10.4016 6.44558 11.4325 6.16521 12.5511C6.13123 12.687 6.09725 12.823 6.06326 12.9617C6.00945 13.1713 5.95848 13.3865 5.9075 13.5989C5.86502 13.7688 5.82538 13.9388 5.78573 14.1058C5.7829 14.1087 5.7829 14.1115 5.7829 14.1172C5.74325 14.2814 5.7036 14.4457 5.66679 14.6071C5.66396 14.6128 5.66396 14.6156 5.66396 14.6184C5.62431 14.7798 5.58749 14.9384 5.55351 15.0885C5.47988 15.4029 5.41191 15.6974 5.35244 15.9551C5.30996 16.142 5.27031 16.3091 5.23916 16.4564C5.21651 16.5555 5.19668 16.6461 5.17969 16.7226C5.17686 16.7367 5.17119 16.7481 5.16553 16.7566C5.15681 16.7744 5.14305 16.7894 5.12595 16.7995C5.10885 16.8096 5.08915 16.8146 5.06929 16.8137C5.04942 16.8128 5.03026 16.8061 5.01415 16.7944C4.99804 16.7828 4.98569 16.7666 4.97862 16.7481C4.78322 16.2496 4.41223 15.2783 4.23948 14.8252L4.21966 14.7714C4.19983 14.7204 4.18284 14.6779 4.17151 14.6467L4.14602 14.5788C4.14602 14.5788 3.8515 12.9391 3.94212 10.7556C3.94496 10.6848 3.94779 10.6112 3.95345 10.5376C3.95912 10.3931 3.97044 10.243 3.98177 10.093C3.9846 10.0306 3.99027 9.96835 3.99593 9.90604C4.06107 9.14708 4.17718 8.33997 4.36975 7.53003H24.2501C25.0997 11.0983 24.4767 14.5788 24.4767 14.5788Z" fill="#3C2C23"/>
<path d="M24.4767 14.5788L24.437 14.6807L24.403 14.7713C24.3775 14.8393 24.3436 14.9243 24.3067 15.0177C24.2983 15.0432 24.2898 15.0659 24.2784 15.0914C24.0887 15.5926 23.7998 16.3374 23.6356 16.7509C23.6279 16.7716 23.6137 16.7893 23.5952 16.8013C23.5766 16.8133 23.5546 16.8189 23.5325 16.8173C23.5105 16.8157 23.4896 16.807 23.4729 16.7925C23.4562 16.7779 23.4447 16.7584 23.4402 16.7367C23.4402 16.7311 23.4373 16.7254 23.4373 16.7197C23.4005 16.5611 23.3524 16.3516 23.2957 16.1024C23.2306 15.8163 23.1541 15.4765 23.0692 15.1084C22.9049 14.4032 22.7124 13.5876 22.5169 12.8003C22.4122 12.3727 22.3046 11.9564 22.2026 11.5684C22.1148 11.2456 22.0327 10.9454 21.9534 10.6792C21.8826 10.4356 21.8146 10.2176 21.7523 10.0391C21.7325 9.97684 21.7127 9.9202 21.6928 9.86923C21.4012 9.09327 20.5969 8.64299 19.7813 8.79025C18.5295 9.01681 16.5358 9.3 14.3326 9.3C14.3269 9.3 14.3184 9.29717 14.3099 9.29717C14.3014 9.29717 14.2958 9.3 14.2873 9.3C12.0868 9.3 10.0903 9.01681 8.83858 8.79025C8.02298 8.64299 7.2187 9.09327 6.92701 9.86923C6.72594 10.4016 6.44558 11.4325 6.16521 12.5511C6.13123 12.687 6.09725 12.823 6.06326 12.9617C6.00945 13.1713 5.95848 13.3865 5.9075 13.5989C5.86502 13.7688 5.82538 13.9388 5.78573 14.1058C5.7829 14.1087 5.7829 14.1115 5.7829 14.1172C5.74325 14.2843 5.7036 14.4485 5.66679 14.6071C5.66396 14.6128 5.66396 14.6156 5.66396 14.6184C5.62431 14.7798 5.59032 14.9356 5.55351 15.0885C5.47988 15.4029 5.41191 15.6974 5.35244 15.9551C5.30996 16.142 5.27314 16.3119 5.23916 16.4564C5.21651 16.5555 5.19668 16.6461 5.17969 16.7226C5.17686 16.7367 5.17119 16.7481 5.16553 16.7566C5.12305 16.8217 5.01544 16.8189 4.98145 16.7367L4.23948 14.8252L4.21966 14.7713L4.17151 14.6467L4.14602 14.5788C4.14602 14.5788 3.8515 12.9391 3.94212 10.7556C3.94496 10.6848 3.94779 10.6112 3.95345 10.5376C3.95912 10.3931 3.97044 10.243 3.98177 10.093C3.9846 10.0306 3.99027 9.96835 3.99593 9.90604C4.06107 9.14708 4.17718 8.33997 4.36975 7.53003H24.2501C25.0997 11.0983 24.4767 14.5788 24.4767 14.5788Z" fill="url(#paint0_radial_1042_1336)"/>
<path d="M21.6782 6.49085C20.3132 3.09533 18.9709 0.416298 17.2519 0.209565C16.7931 0.155758 15.5924 0.00283196 14.3774 0C13.1172 0 11.8428 0.152926 11.3699 0.209565C9.65091 0.416298 8.30856 3.09533 6.94072 6.48802C6.19875 8.32879 22.4202 8.32879 21.6782 6.49085Z" fill="url(#paint1_linear_1042_1336)"/>
<path d="M25.6661 5.26749C22.9955 5.75176 18.5352 6.31532 14.4713 6.33231H14.1485C10.0846 6.31532 5.62429 5.75176 2.95375 5.26749C0.648533 4.84836 0.566406 6.35497 0.566406 6.35497C0.566406 6.35497 1.29705 5.45157 2.57993 6.7033C4.5708 8.64602 7.81339 11.73 14.1258 11.7555C14.1881 11.7555 14.2476 11.7527 14.3099 11.7527C14.3722 11.7527 14.4317 11.7555 14.494 11.7555C20.8093 11.7272 24.049 8.64602 26.0399 6.7033C27.3228 5.45157 28.0534 6.35497 28.0534 6.35497C28.0534 6.35497 27.9713 4.84836 25.6661 5.26749Z" fill="url(#paint2_linear_1042_1336)"/>
<path d="M14.3095 6.03497C12.1742 6.03497 9.48952 5.82257 8.12451 5.70363C9.21765 5.16839 11.4266 4.3103 14.3095 4.3103C17.1924 4.3103 19.3985 5.17122 20.4945 5.70363C19.1295 5.82257 16.4448 6.03497 14.3095 6.03497Z" fill="#78909C"/>
<path d="M14.3099 4.57938C16.4452 4.57938 18.2038 5.06081 19.3961 5.51959C17.9546 5.63287 15.9666 5.76031 14.3099 5.76031C12.6532 5.76031 10.6651 5.63287 9.22368 5.51959C10.8476 4.89868 12.5713 4.58003 14.3099 4.57938ZM14.3099 4.03564C10.011 4.03564 7.21582 5.89058 7.21582 5.89058C7.21582 5.89058 11.2853 6.30688 14.3099 6.30688C17.3344 6.30688 21.4039 5.89058 21.4039 5.89058C21.4039 5.89058 18.6088 4.03564 14.3099 4.03564Z" fill="#90A4AE"/>
<path d="M30.1719 29.1379V33.383" stroke="#D18100" stroke-width="1.41598" stroke-miterlimit="10"/>
<path d="M30.5002 31.3327H29.8431C29.4495 31.3327 29.1323 31.3327 29.1323 30.6219V27.2207H31.2082V30.6219C31.211 31.2251 30.891 31.3327 30.5002 31.3327Z" fill="#636363"/>
<path d="M32.7909 26.4447C32.2698 26.4447 30.599 26.4617 30.2223 26.4617C29.622 26.4617 28.0304 26.4079 27.3819 26.4079C25.2636 26.4079 25.2466 18.8494 25.2466 18.8494V25.8471C25.2466 27.7417 26.2151 28.3478 27.9143 28.4101H32.2698C33.8048 28.4101 34.3513 27.3594 34.3513 26.102L34.2437 24.7257C34.2381 24.7285 33.8274 26.4447 32.7909 26.4447Z" fill="#616161"/>
<path d="M34.6715 9.14143C34.6404 9.02248 34.4648 9.02532 34.4365 9.14426L34.1108 10.4696L33.5444 25.2468C33.5444 25.2468 33.5416 25.3232 33.5416 25.3629C33.5416 25.799 33.2046 26.1105 32.7685 26.1105C32.3323 26.1105 31.9727 25.7934 31.9727 25.3572C31.9727 25.2949 32.1426 10.5234 32.1426 10.5234L31.8056 9.07063C31.7744 8.95169 31.6017 8.95169 31.5705 9.0678L31.1882 10.4979L31.0126 25.2666C31.0126 25.748 30.7209 26.1134 30.2395 26.1134C29.7581 26.1134 29.3673 25.7226 29.3673 25.2411L29.2823 10.4668L28.9481 9.0678C28.917 8.95169 28.7471 8.95169 28.7131 9.0678L28.2883 10.5263L28.2968 25.2128C28.2968 25.7112 27.9513 26.1162 27.4529 26.1162C26.8978 26.1162 26.49 25.7112 26.49 25.2128L25.9123 10.4696L25.5328 9.06213C25.5016 8.94319 25.3629 8.96584 25.3289 9.08196L24.9409 10.4979L25.394 25.6857C25.394 26.9658 26.2096 27.9343 27.9088 27.9994H32.2644C33.7993 27.9994 34.3883 26.9431 34.3883 25.6857L35 10.5631L34.6715 9.14143Z" fill="url(#paint3_linear_1042_1336)"/>
<path d="M26.8441 32.4798C26.8441 27.4418 19.6056 26.2807 17.0285 26.0286L14.8564 29.0135H13.9134L11.7752 26.0229C8.98576 26.2863 6.61258 26.949 4.89924 27.943C2.92253 29.09 1.92285 30.6164 1.92285 32.477V33.3832H26.8498V32.4798H26.8441Z" fill="url(#paint4_linear_1042_1336)"/>
<path d="M23.4203 32.2731L21.3898 30.7098L21.4606 30.5994L14.1003 30.7381L7.34044 30.5994L7.41124 30.7104L0 32.2731L5.33258 33.3832H23.4684L23.4203 32.2731Z" fill="url(#paint5_linear_1042_1336)"/>
<path d="M9.30022 28.6057L9.26906 26.3911C9.26906 26.3911 7.62936 26.731 7.04031 26.9858L6.21338 28.8549L7.28386 30.5144L9.30022 28.6057Z" fill="url(#paint6_linear_1042_1336)"/>
<path d="M19.5005 28.6057L19.5316 26.3911C19.5316 26.3911 21.1713 26.731 21.7604 26.9858L22.5873 28.8549L21.514 30.5144L19.5005 28.6057Z" fill="url(#paint7_linear_1042_1336)"/>
<path d="M20.3984 31.0071L21.8625 31.2847C22.0506 31.3195 22.2448 31.2787 22.4029 31.171C22.561 31.0633 22.6701 30.8976 22.7065 30.7098C22.7413 30.5217 22.7005 30.3275 22.5928 30.1694C22.4851 30.0114 22.3193 29.9023 22.1316 29.8659L20.6675 29.5883C20.4794 29.5535 20.2852 29.5943 20.1271 29.702C19.969 29.8097 19.8599 29.9754 19.8235 30.1632C19.7499 30.5569 20.0048 30.9335 20.3984 31.0071ZM8.40223 31.0071L6.93811 31.2847C6.5473 31.3583 6.16782 31.1006 6.09419 30.7098C6.05931 30.5217 6.10017 30.3275 6.20785 30.1694C6.31553 30.0114 6.48131 29.9023 6.66907 29.8659L8.1332 29.5883C8.32125 29.5535 8.51547 29.5943 8.67354 29.702C8.83161 29.8097 8.94073 29.9754 8.97712 30.1632C9.05075 30.5569 8.79588 30.9335 8.40223 31.0071Z" fill="#BDBDBD"/>
<path d="M11.7353 26.0286C10.9962 26.0994 10.2882 26.2013 9.61133 26.3259L9.54053 32.2589L14.3803 28.9936L11.7353 26.0286Z" fill="url(#paint8_linear_1042_1336)"/>
<path d="M19.1495 26.3344C18.3112 26.1758 17.5664 26.0824 17.0284 26.0286L14.3833 28.9965L19.2231 32.2617L19.1495 26.3344Z" fill="url(#paint9_linear_1042_1336)"/>
<defs>
<radialGradient id="paint0_radial_1042_1336" cx="0" cy="0" r="1" gradientUnits="userSpaceOnUse" gradientTransform="translate(14.3108 14.185) scale(10.035 11.3215)">
<stop offset="0.794" stop-color="#554138" stop-opacity="0"/>
<stop offset="1" stop-color="#554138"/>
</radialGradient>
<linearGradient id="paint1_linear_1042_1336" x1="14.3098" y1="0.411767" x2="14.3098" y2="7.14758" gradientUnits="userSpaceOnUse">
<stop offset="0.003" stop-color="#FFF59D"/>
<stop offset="0.553" stop-color="#FEE565"/>
<stop offset="0.996" stop-color="#FDD835"/>
</linearGradient>
<linearGradient id="paint2_linear_1042_1336" x1="14.3099" y1="5.78489" x2="14.3099" y2="14.0055" gradientUnits="userSpaceOnUse">
<stop offset="0.003" stop-color="#FFF59D"/>
<stop offset="0.553" stop-color="#FEE565"/>
<stop offset="0.996" stop-color="#FDD835"/>
</linearGradient>
<linearGradient id="paint3_linear_1042_1336" x1="29.9727" y1="28.9844" x2="29.9727" y2="12.3693" gradientUnits="userSpaceOnUse">
<stop stop-color="#757575"/>
<stop offset="0.482" stop-color="#9E9E9E"/>
</linearGradient>
<linearGradient id="paint4_linear_1042_1336" x1="14.3806" y1="33.3832" x2="14.3806" y2="26.0252" gradientUnits="userSpaceOnUse">
<stop stop-color="#709E3B"/>
<stop offset="0.328" stop-color="#73A13E"/>
<stop offset="0.595" stop-color="#7DAB47"/>
<stop offset="0.839" stop-color="#8DBC57"/>
<stop offset="1" stop-color="#9CCC65"/>
</linearGradient>
<linearGradient id="paint5_linear_1042_1336" x1="14.4008" y1="33.5299" x2="14.4008" y2="26.5655" gradientUnits="userSpaceOnUse">
<stop stop-color="#1E88E5"/>
<stop offset="1" stop-color="#1565C0"/>
</linearGradient>
<linearGradient id="paint6_linear_1042_1336" x1="7.75793" y1="33.381" x2="7.75793" y2="26.7607" gradientUnits="userSpaceOnUse">
<stop stop-color="#1E88E5"/>
<stop offset="1" stop-color="#1565C0"/>
</linearGradient>
<linearGradient id="paint7_linear_1042_1336" x1="21.0431" y1="33.381" x2="21.0431" y2="26.7607" gradientUnits="userSpaceOnUse">
<stop stop-color="#1E88E5"/>
<stop offset="1" stop-color="#1565C0"/>
</linearGradient>
<linearGradient id="paint8_linear_1042_1336" x1="11.9604" y1="26.6626" x2="11.9604" y2="30.8474" gradientUnits="userSpaceOnUse">
<stop stop-color="#AED581"/>
<stop offset="1" stop-color="#8BC34A"/>
</linearGradient>
<linearGradient id="paint9_linear_1042_1336" x1="16.8004" y1="26.045" x2="16.8004" y2="30.9822" gradientUnits="userSpaceOnUse">
<stop stop-color="#AED581"/>
<stop offset="1" stop-color="#8BC34A"/>
</linearGradient>
</defs>
</svg>
