<svg width="691" height="223" viewBox="0 0 691 223" fill="none" xmlns="http://www.w3.org/2000/svg">
<path d="M690.128 210.655V11.9896C690.128 5.36793 684.76 0 678.138 0L11.9897 0C5.3681 0 0.000244141 5.36793 0.000244141 11.9896V210.655C0.000244141 217.276 5.3681 222.644 11.9897 222.644L678.138 222.644C684.76 222.644 690.128 217.276 690.128 210.655Z" fill="white"/>
<path d="M27.4314 35H26.6288V23.4961H32.9316V24.2357H27.4314V29.1143H32.6247V29.8618H27.4314V35ZM39.7143 35L39.5176 33.6466H39.4547C39.0245 34.1974 38.5812 34.5882 38.1249 34.819C37.6737 35.0446 37.1387 35.1574 36.5197 35.1574C35.6803 35.1574 35.0272 34.9423 34.5604 34.5121C34.0935 34.082 33.8601 33.4866 33.8601 32.726C33.8601 31.8919 34.2063 31.244 34.8987 30.7824C35.5964 30.3208 36.6036 30.0769 37.9203 30.0506L39.5491 30.0034V29.4369C39.5491 28.6238 39.3838 28.01 39.0534 27.5956C38.7229 27.1812 38.1904 26.974 37.456 26.974C36.6639 26.974 35.843 27.1943 34.9932 27.635L34.702 26.9583C35.641 26.5176 36.5695 26.2973 37.4875 26.2973C38.4265 26.2973 39.1268 26.5412 39.5884 27.0291C40.0553 27.5169 40.2887 28.2776 40.2887 29.311V35H39.7143ZM36.5669 34.4492C37.4796 34.4492 38.1983 34.1895 38.7229 33.6702C39.2527 33.1456 39.5176 32.4191 39.5176 31.4906V30.6487L38.0226 30.7116C36.8213 30.7693 35.9636 30.9582 35.4495 31.2781C34.9407 31.5929 34.6863 32.086 34.6863 32.7574C34.6863 33.2925 34.8489 33.7095 35.1741 34.0086C35.5046 34.3023 35.9689 34.4492 36.5669 34.4492ZM46.4341 26.2816C46.7961 26.2816 47.1843 26.3183 47.5987 26.3917L47.4492 27.1392C47.0925 27.0501 46.7226 27.0055 46.3397 27.0055C45.6105 27.0055 45.0125 27.315 44.5457 27.934C44.0788 28.553 43.8454 29.3346 43.8454 30.2788V35H43.0664V26.4468H43.7273L43.806 27.9891H43.8611C44.2126 27.3596 44.5876 26.9189 44.9863 26.6671C45.385 26.4101 45.8676 26.2816 46.4341 26.2816ZM60.0311 35V29.3897C60.0311 28.5556 59.8685 27.9471 59.5433 27.5642C59.218 27.1812 58.7197 26.9897 58.0482 26.9897C57.1722 26.9897 56.5243 27.231 56.1047 27.7137C55.685 28.1963 55.4752 28.9543 55.4752 29.9877V35H54.6804V29.1536C54.6804 27.711 54.0195 26.9897 52.6976 26.9897C51.8005 26.9897 51.1474 27.252 50.7383 27.7766C50.3291 28.2959 50.1245 29.13 50.1245 30.2788V35H49.3455V26.4468H49.9907L50.156 27.6192H50.2032C50.4393 27.1943 50.775 26.8665 51.2104 26.6357C51.6458 26.3996 52.1258 26.2816 52.6503 26.2816C53.9985 26.2816 54.864 26.7878 55.247 27.8002H55.2785C55.5565 27.3124 55.9289 26.9373 56.3958 26.675C56.8679 26.4127 57.403 26.2816 58.001 26.2816C58.9347 26.2816 59.6351 26.5307 60.1019 27.0291C60.5688 27.5274 60.8022 28.3195 60.8022 29.4054V35H60.0311ZM73.4943 30.9398H68.8204L67.2152 35H66.326L70.9528 23.4489H71.4642L75.9965 35H75.0917L73.4943 30.9398ZM69.1115 30.2159H73.2268L71.6609 26.0691C71.5298 25.7439 71.3724 25.2927 71.1888 24.7157C71.0472 25.2193 70.8924 25.6757 70.7246 26.0848L69.1115 30.2159ZM80.8515 35.1574C79.6292 35.1574 78.6719 34.7718 77.9794 34.0007C77.287 33.2296 76.9408 32.1542 76.9408 30.7745C76.9408 29.3582 77.3001 28.2566 78.0188 27.4697C78.7375 26.6776 79.721 26.2816 80.9695 26.2816C81.7092 26.2816 82.4173 26.4101 83.094 26.6671L82.8816 27.3596C82.1419 27.113 81.4993 26.9897 80.9538 26.9897C79.9046 26.9897 79.1099 27.315 78.5696 27.9655C78.0293 28.6107 77.7591 29.5418 77.7591 30.7588C77.7591 31.9129 78.0293 32.8178 78.5696 33.4735C79.1099 34.124 79.8653 34.4492 80.8358 34.4492C81.6121 34.4492 82.3334 34.3102 82.9996 34.0322V34.7561C82.4541 35.0236 81.738 35.1574 80.8515 35.1574ZM87.3588 34.4649C87.8519 34.4649 88.2821 34.423 88.6493 34.339V34.9685C88.2716 35.0944 87.8362 35.1574 87.3431 35.1574C86.5877 35.1574 86.029 34.9554 85.6671 34.5515C85.3104 34.1476 85.132 33.5128 85.132 32.6473V27.1235H83.8652V26.6671L85.132 26.313L85.5255 24.3774H85.9268V26.4468H88.4368V27.1235H85.9268V32.5371C85.9268 33.1928 86.0422 33.6781 86.273 33.9928C86.5038 34.3076 86.8657 34.4649 87.3588 34.4649ZM91.2774 35H90.4984V26.4468H91.2774V35ZM90.3883 24.0705C90.3883 23.5669 90.5535 23.3151 90.884 23.3151C91.0466 23.3151 91.1725 23.3807 91.2617 23.5118C91.3561 23.643 91.4033 23.8292 91.4033 24.0705C91.4033 24.3065 91.3561 24.4928 91.2617 24.6292C91.1725 24.7655 91.0466 24.8337 90.884 24.8337C90.5535 24.8337 90.3883 24.5793 90.3883 24.0705ZM96.0222 35L92.7174 26.4468H93.52L95.7311 32.2617C96.0248 33.0066 96.2451 33.6571 96.392 34.2131H96.4392C96.6543 33.4997 96.8746 32.844 97.1002 32.246L99.3113 26.4468H100.114L96.8091 35H96.0222ZM102.325 35H101.546V26.4468H102.325V35ZM101.436 24.0705C101.436 23.5669 101.601 23.3151 101.932 23.3151C102.094 23.3151 102.22 23.3807 102.309 23.5118C102.404 23.643 102.451 23.8292 102.451 24.0705C102.451 24.3065 102.404 24.4928 102.309 24.6292C102.22 24.7655 102.094 24.8337 101.932 24.8337C101.601 24.8337 101.436 24.5793 101.436 24.0705ZM107.455 34.4649C107.948 34.4649 108.379 34.423 108.746 34.339V34.9685C108.368 35.0944 107.933 35.1574 107.44 35.1574C106.684 35.1574 106.126 34.9554 105.764 34.5515C105.407 34.1476 105.228 33.5128 105.228 32.6473V27.1235H103.962V26.6671L105.228 26.313L105.622 24.3774H106.023V26.4468H108.533V27.1235H106.023V32.5371C106.023 33.1928 106.139 33.6781 106.369 33.9928C106.6 34.3076 106.962 34.4649 107.455 34.4649ZM111.374 35H110.595V26.4468H111.374V35ZM110.485 24.0705C110.485 23.5669 110.65 23.3151 110.98 23.3151C111.143 23.3151 111.269 23.3807 111.358 23.5118C111.453 23.643 111.5 23.8292 111.5 24.0705C111.5 24.3065 111.453 24.4928 111.358 24.6292C111.269 24.7655 111.143 24.8337 110.98 24.8337C110.65 24.8337 110.485 24.5793 110.485 24.0705ZM117.7 35.1574C116.457 35.1574 115.487 34.7744 114.789 34.0086C114.096 33.2427 113.75 32.1699 113.75 30.7903C113.75 29.4264 114.086 28.3353 114.757 27.5169C115.429 26.6934 116.334 26.2816 117.472 26.2816C118.479 26.2816 119.274 26.633 119.856 27.336C120.439 28.0389 120.73 28.9936 120.73 30.2001V30.8296H114.569C114.579 32.0047 114.852 32.9017 115.387 33.5207C115.927 34.1397 116.698 34.4492 117.7 34.4492C118.188 34.4492 118.616 34.4151 118.983 34.3469C119.355 34.2787 119.825 34.1318 120.391 33.9063V34.6144C119.909 34.8243 119.463 34.9659 119.054 35.0393C118.644 35.118 118.193 35.1574 117.7 35.1574ZM117.472 26.974C116.648 26.974 115.988 27.2468 115.489 27.7923C114.991 28.3327 114.7 29.1143 114.616 30.1372H119.903C119.903 29.1457 119.688 28.372 119.258 27.8159C118.828 27.2547 118.233 26.974 117.472 26.974ZM128.394 32.7732C128.394 33.5391 128.103 34.1292 127.52 34.5436C126.938 34.9528 126.112 35.1574 125.042 35.1574C123.898 35.1574 122.991 34.9816 122.319 34.6302V33.7882C123.179 34.2184 124.087 34.4335 125.042 34.4335C125.886 34.4335 126.526 34.2944 126.962 34.0164C127.402 33.7332 127.623 33.3581 127.623 32.8912C127.623 32.4611 127.447 32.0991 127.095 31.8053C126.749 31.5116 126.177 31.2231 125.38 30.9398C124.525 30.6303 123.924 30.3654 123.578 30.1451C123.232 29.9195 122.97 29.6677 122.791 29.3897C122.618 29.1064 122.532 28.7628 122.532 28.3589C122.532 27.7189 122.799 27.2127 123.334 26.8402C123.875 26.4678 124.627 26.2816 125.592 26.2816C126.516 26.2816 127.392 26.4547 128.221 26.8009L127.929 27.5091C127.09 27.1629 126.311 26.9897 125.592 26.9897C124.895 26.9897 124.341 27.1051 123.932 27.336C123.523 27.5668 123.318 27.8868 123.318 28.2959C123.318 28.7418 123.476 29.0985 123.791 29.3661C124.111 29.6336 124.732 29.9326 125.655 30.2631C126.427 30.5411 126.988 30.7929 127.339 31.0185C127.691 31.2388 127.953 31.4906 128.126 31.7739C128.305 32.0571 128.394 32.3902 128.394 32.7732Z" fill="#545E66"/>
<path d="M650.334 26.1273C651.984 26.1273 653.321 24.7902 653.321 23.1407C653.321 21.4912 651.984 20.1541 650.334 20.1541C648.685 20.1541 647.348 21.4912 647.348 23.1407C647.348 24.7902 648.685 26.1273 650.334 26.1273Z" fill="#545E66" stroke="white" stroke-width="1.07433" stroke-miterlimit="10"/>
<path d="M661.25 23.1407C661.25 22.55 661.074 21.9726 660.746 21.4814C660.418 20.9903 659.952 20.6075 659.406 20.3814C658.86 20.1554 658.26 20.0962 657.68 20.2114C657.101 20.3267 656.569 20.6111 656.151 21.0288C655.733 21.4465 655.449 21.9787 655.334 22.558C655.219 23.1374 655.278 23.7379 655.504 24.2836C655.73 24.8294 656.113 25.2958 656.604 25.624C657.095 25.9521 657.672 26.1273 658.263 26.1273C659.055 26.1273 659.815 25.8127 660.375 25.2526C660.935 24.6925 661.25 23.9328 661.25 23.1407Z" fill="#545E66" stroke="white" stroke-width="1.07433" stroke-miterlimit="10"/>
<path d="M669.178 23.1407C669.178 22.55 669.003 21.9726 668.675 21.4814C668.347 20.9903 667.88 20.6075 667.335 20.3814C666.789 20.1554 666.188 20.0962 665.609 20.2114C665.03 20.3267 664.498 20.6111 664.08 21.0288C663.662 21.4465 663.378 21.9787 663.262 22.558C663.147 23.1374 663.206 23.7379 663.432 24.2836C663.658 24.8294 664.041 25.2958 664.532 25.624C665.024 25.9521 665.601 26.1273 666.192 26.1273C666.984 26.1273 667.744 25.8127 668.304 25.2526C668.864 24.6925 669.178 23.9328 669.178 23.1407Z" fill="#545E66" stroke="white" stroke-width="1.07433" stroke-miterlimit="10"/>
<path d="M48.1738 67.6179H658.801" stroke="#F0F3F4" stroke-width="1.07433" stroke-miterlimit="10"/>
<path d="M48.1738 98.8384H658.801" stroke="#F0F3F4" stroke-width="1.07433" stroke-miterlimit="10"/>
<path d="M48.1738 130.058H658.801" stroke="#F0F3F4" stroke-width="1.07433" stroke-miterlimit="10"/>
<path d="M48.1738 161.279H658.801" stroke="#F0F3F4" stroke-width="1.07433" stroke-miterlimit="10"/>
<path d="M48.1738 192.67H658.801" stroke="#F0F3F4" stroke-width="1.07433" stroke-miterlimit="10"/>
<path d="M34.2018 164.649H30.3619V164.279L31.9944 162.576C32.4532 162.1 32.775 161.736 32.9596 161.484C33.1443 161.233 33.2799 160.992 33.3667 160.763C33.4534 160.533 33.4968 160.293 33.4968 160.041C33.4968 159.674 33.3765 159.376 33.1359 159.147C32.8953 158.918 32.5833 158.803 32.2 158.803C31.688 158.803 31.1984 158.989 30.7312 159.361L30.5046 159.071C31.0166 158.641 31.5845 158.425 32.2084 158.425C32.7428 158.425 33.1624 158.568 33.4674 158.853C33.7751 159.139 33.929 159.532 33.929 160.032C33.929 160.438 33.8255 160.831 33.6185 161.212C33.4142 161.589 33.0393 162.057 32.4938 162.613L30.9201 164.229V164.246H34.2018V164.649ZM37.0513 160.96C37.706 160.96 38.2207 161.118 38.5956 161.434C38.9733 161.75 39.1622 162.185 39.1622 162.739C39.1622 163.369 38.9663 163.858 38.5747 164.208C38.183 164.558 37.643 164.733 36.9548 164.733C36.6498 164.733 36.3602 164.703 36.0861 164.644C35.8119 164.583 35.5825 164.496 35.3978 164.384V163.952C35.7 164.106 35.9686 164.214 36.2036 164.275C36.4386 164.334 36.689 164.363 36.9548 164.363C37.4919 164.363 37.9228 164.222 38.2473 163.939C38.5719 163.654 38.7341 163.269 38.7341 162.785C38.7341 162.329 38.5761 161.971 38.2599 161.711C37.9438 161.451 37.5143 161.321 36.9716 161.321C36.6078 161.321 36.2274 161.375 35.8301 161.484L35.5783 161.321L35.8217 158.513H38.7761V158.916H36.2162L36.0273 161.082C36.4638 161 36.8051 160.96 37.0513 160.96Z" fill="#879EAF"/>
<path d="M39.236 193.794C39.236 194.871 39.0709 195.668 38.7408 196.186C38.4135 196.704 37.9169 196.962 37.251 196.962C36.6103 196.962 36.1235 196.697 35.7906 196.165C35.4577 195.631 35.2912 194.84 35.2912 193.794C35.2912 192.725 35.4521 191.933 35.7738 191.419C36.0983 190.904 36.5907 190.646 37.251 190.646C37.8973 190.646 38.3897 190.914 38.7282 191.448C39.0667 191.98 39.236 192.762 39.236 193.794ZM35.7444 193.794C35.7444 194.745 35.8689 195.449 36.1179 195.905C36.3669 196.358 36.7446 196.585 37.251 196.585C37.7798 196.585 38.1645 196.35 38.4051 195.88C38.6485 195.41 38.7702 194.714 38.7702 193.794C38.7702 192.887 38.6485 192.199 38.4051 191.729C38.1645 191.259 37.7798 191.024 37.251 191.024C36.7222 191.024 36.339 191.259 36.1011 191.729C35.8633 192.199 35.7444 192.887 35.7444 193.794Z" fill="#879EAF"/>
<path d="M32.1413 130.298C32.7959 130.298 33.3107 130.457 33.6856 130.773C34.0633 131.089 34.2522 131.524 34.2522 132.078C34.2522 132.707 34.0563 133.197 33.6646 133.547C33.273 133.896 32.733 134.071 32.0447 134.071C31.7398 134.071 31.4502 134.042 31.1761 133.983C30.9019 133.922 30.6725 133.835 30.4878 133.723V133.291C30.79 133.445 31.0585 133.552 31.2936 133.614C31.5286 133.673 31.779 133.702 32.0447 133.702C32.5819 133.702 33.0128 133.561 33.3373 133.278C33.6618 132.993 33.8241 132.608 33.8241 132.124C33.8241 131.668 33.666 131.31 33.3499 131.05C33.0337 130.789 32.6043 130.659 32.0615 130.659C31.6978 130.659 31.3173 130.714 30.9201 130.823L30.6683 130.659L30.9117 127.852H33.8661V128.255H31.3061L31.1173 130.42C31.5537 130.339 31.8951 130.298 32.1413 130.298ZM39.2251 130.903C39.2251 131.98 39.0601 132.777 38.7299 133.295C38.4026 133.812 37.906 134.071 37.2401 134.071C36.5995 134.071 36.1127 133.805 35.7797 133.274C35.4468 132.74 35.2803 131.949 35.2803 130.903C35.2803 129.834 35.4412 129.042 35.7629 128.528C36.0875 128.013 36.5799 127.755 37.2401 127.755C37.8864 127.755 38.3788 128.023 38.7173 128.557C39.0559 129.088 39.2251 129.87 39.2251 130.903ZM35.7336 130.903C35.7336 131.854 35.8581 132.558 36.1071 133.014C36.3561 133.467 36.7337 133.694 37.2401 133.694C37.7689 133.694 38.1536 133.459 38.3942 132.989C38.6376 132.518 38.7593 131.823 38.7593 130.903C38.7593 129.996 38.6376 129.308 38.3942 128.838C38.1536 128.368 37.7689 128.133 37.2401 128.133C36.7114 128.133 36.3281 128.368 36.0903 128.838C35.8525 129.308 35.7336 129.996 35.7336 130.903Z" fill="#879EAF"/>
<path d="M31.2894 103.347L33.8157 97.6149H30.3451V97.212H34.3151V97.5183L31.7804 103.347H31.2894ZM37.0513 99.6586C37.706 99.6586 38.2207 99.8167 38.5956 100.133C38.9733 100.449 39.1622 100.884 39.1622 101.438C39.1622 102.067 38.9663 102.557 38.5747 102.907C38.183 103.256 37.643 103.431 36.9548 103.431C36.6498 103.431 36.3602 103.402 36.0861 103.343C35.8119 103.282 35.5825 103.195 35.3978 103.083V102.651C35.7 102.805 35.9686 102.912 36.2036 102.974C36.4386 103.033 36.689 103.062 36.9548 103.062C37.4919 103.062 37.9228 102.921 38.2473 102.638C38.5719 102.353 38.7341 101.968 38.7341 101.484C38.7341 101.028 38.5761 100.67 38.2599 100.41C37.9438 100.15 37.5143 100.02 36.9716 100.02C36.6078 100.02 36.2274 100.074 35.8301 100.183L35.5783 100.02L35.8217 97.212H38.7761V97.6149H36.2162L36.0273 99.7803C36.4638 99.6992 36.8051 99.6586 37.0513 99.6586Z" fill="#879EAF"/>
<path d="M27.8513 70.1721H27.4401V65.7027C27.4401 65.2971 27.4569 64.876 27.4904 64.4396C27.4485 64.4815 27.4051 64.5221 27.3603 64.5613C27.3156 64.6004 26.8833 64.9404 26.0636 65.581L25.8244 65.2831L27.4904 64.0367H27.8513V70.1721ZM34.3267 67.0876C34.3267 68.1647 34.1616 68.9621 33.8315 69.4797C33.5042 69.9973 33.0076 70.2561 32.3417 70.2561C31.701 70.2561 31.2142 69.9903 30.8813 69.4587C30.5484 68.9243 30.3819 68.134 30.3819 67.0876C30.3819 66.0189 30.5428 65.2271 30.8645 64.7123C31.189 64.1976 31.6814 63.9402 32.3417 63.9402C32.988 63.9402 33.4804 64.2074 33.8189 64.7417C34.1574 65.2733 34.3267 66.0553 34.3267 67.0876ZM30.8351 67.0876C30.8351 68.0388 30.9596 68.7425 31.2086 69.1985C31.4576 69.6517 31.8353 69.8784 32.3417 69.8784C32.8705 69.8784 33.2552 69.6433 33.4958 69.1733C33.7392 68.7033 33.8609 68.0081 33.8609 67.0876C33.8609 66.1812 33.7392 65.4929 33.4958 65.0229C33.2552 64.5529 32.8705 64.3179 32.3417 64.3179C31.8129 64.3179 31.4296 64.5529 31.1918 65.0229C30.954 65.4929 30.8351 66.1812 30.8351 67.0876ZM39.2367 67.0876C39.2367 68.1647 39.0716 68.9621 38.7415 69.4797C38.4142 69.9973 37.9176 70.2561 37.2517 70.2561C36.611 70.2561 36.1242 69.9903 35.7913 69.4587C35.4584 68.9243 35.2919 68.134 35.2919 67.0876C35.2919 66.0189 35.4528 65.2271 35.7745 64.7123C36.0991 64.1976 36.5915 63.9402 37.2517 63.9402C37.898 63.9402 38.3904 64.2074 38.7289 64.7417C39.0674 65.2733 39.2367 66.0553 39.2367 67.0876ZM35.7451 67.0876C35.7451 68.0388 35.8696 68.7425 36.1186 69.1985C36.3676 69.6517 36.7453 69.8784 37.2517 69.8784C37.7805 69.8784 38.1652 69.6433 38.4058 69.1733C38.6492 68.7033 38.7709 68.0081 38.7709 67.0876C38.7709 66.1812 38.6492 65.4929 38.4058 65.0229C38.1652 64.5529 37.7805 64.3179 37.2517 64.3179C36.7229 64.3179 36.3397 64.5529 36.1019 65.0229C35.864 65.4929 35.7451 66.1812 35.7451 67.0876Z" fill="#879EAF"/>
<path d="M280.971 206.431L278.948 212H278.122L280.451 205.89H280.984L280.971 206.431ZM282.667 212L280.64 206.431L280.627 205.89H281.16L283.498 212H282.667ZM282.562 209.738V210.401H279.129V209.738H282.562ZM287.48 211.194L288.647 207.459H289.159L289.058 208.202L287.87 212H287.371L287.48 211.194ZM286.695 207.459L287.69 211.236L287.761 212H287.237L285.919 207.459H286.695ZM290.275 211.207L291.223 207.459H291.996L290.678 212H290.158L290.275 211.207ZM289.272 207.459L290.414 211.131L290.544 212H290.048L288.827 208.194L288.727 207.459H289.272ZM294.677 212.084C294.361 212.084 294.074 212.031 293.817 211.924C293.562 211.815 293.343 211.663 293.158 211.467C292.976 211.271 292.836 211.039 292.738 210.77C292.641 210.502 292.592 210.208 292.592 209.889V209.713C292.592 209.344 292.646 209.015 292.755 208.727C292.864 208.436 293.013 208.189 293.2 207.988C293.388 207.787 293.6 207.634 293.838 207.531C294.076 207.427 294.322 207.375 294.577 207.375C294.901 207.375 295.181 207.431 295.416 207.543C295.654 207.655 295.848 207.812 295.999 208.013C296.15 208.212 296.262 208.447 296.335 208.718C296.408 208.987 296.444 209.281 296.444 209.6V209.948H293.053V209.314H295.668V209.255C295.656 209.054 295.615 208.858 295.542 208.668C295.472 208.478 295.36 208.321 295.206 208.198C295.052 208.075 294.842 208.013 294.577 208.013C294.4 208.013 294.238 208.051 294.09 208.127C293.941 208.199 293.814 208.308 293.708 208.454C293.602 208.599 293.519 208.777 293.46 208.987C293.402 209.197 293.372 209.439 293.372 209.713V209.889C293.372 210.105 293.402 210.307 293.46 210.498C293.522 210.685 293.61 210.85 293.725 210.993C293.842 211.136 293.983 211.247 294.149 211.329C294.316 211.41 294.507 211.45 294.719 211.45C294.993 211.45 295.226 211.394 295.416 211.282C295.606 211.17 295.773 211.021 295.915 210.833L296.385 211.207C296.287 211.355 296.163 211.496 296.012 211.631C295.861 211.765 295.675 211.874 295.454 211.958C295.235 212.042 294.977 212.084 294.677 212.084ZM299.235 212.084C298.919 212.084 298.632 212.031 298.374 211.924C298.12 211.815 297.9 211.663 297.716 211.467C297.534 211.271 297.394 211.039 297.296 210.77C297.198 210.502 297.149 210.208 297.149 209.889V209.713C297.149 209.344 297.204 209.015 297.313 208.727C297.422 208.436 297.57 208.189 297.758 207.988C297.945 207.787 298.158 207.634 298.395 207.531C298.633 207.427 298.879 207.375 299.134 207.375C299.459 207.375 299.738 207.431 299.973 207.543C300.211 207.655 300.406 207.812 300.557 208.013C300.708 208.212 300.82 208.447 300.892 208.718C300.965 208.987 301.002 209.281 301.002 209.6V209.948H297.611V209.314H300.225V209.255C300.214 209.054 300.172 208.858 300.099 208.668C300.029 208.478 299.917 208.321 299.764 208.198C299.61 208.075 299.4 208.013 299.134 208.013C298.958 208.013 298.796 208.051 298.647 208.127C298.499 208.199 298.372 208.308 298.265 208.454C298.159 208.599 298.077 208.777 298.018 208.987C297.959 209.197 297.93 209.439 297.93 209.713V209.889C297.93 210.105 297.959 210.307 298.018 210.498C298.079 210.685 298.167 210.85 298.282 210.993C298.4 211.136 298.541 211.247 298.706 211.329C298.874 211.41 299.064 211.45 299.277 211.45C299.551 211.45 299.783 211.394 299.973 211.282C300.164 211.17 300.33 211.021 300.473 210.833L300.943 211.207C300.845 211.355 300.72 211.496 300.569 211.631C300.418 211.765 300.232 211.874 300.011 211.958C299.793 212.042 299.534 212.084 299.235 212.084ZM302.689 205.554V212H301.908V205.554H302.689ZM305.463 207.459L303.482 209.579L302.374 210.728L302.311 209.902L303.104 208.953L304.514 207.459H305.463ZM304.753 212L303.133 209.835L303.536 209.142L305.668 212H304.753ZM311.073 211.224V208.886C311.073 208.707 311.037 208.552 310.964 208.42C310.894 208.286 310.788 208.182 310.645 208.11C310.503 208.037 310.326 208.001 310.117 208.001C309.921 208.001 309.749 208.034 309.6 208.101C309.455 208.169 309.34 208.257 309.256 208.366C309.175 208.475 309.135 208.592 309.135 208.718H308.358C308.358 208.556 308.4 208.395 308.484 208.236C308.568 208.076 308.688 207.932 308.845 207.803C309.004 207.672 309.195 207.568 309.416 207.493C309.64 207.415 309.889 207.375 310.163 207.375C310.493 207.375 310.784 207.431 311.036 207.543C311.29 207.655 311.489 207.824 311.632 208.051C311.777 208.275 311.85 208.556 311.85 208.895V211.01C311.85 211.161 311.862 211.322 311.888 211.492C311.916 211.663 311.956 211.81 312.009 211.933V212H311.199C311.16 211.91 311.129 211.792 311.107 211.643C311.085 211.492 311.073 211.352 311.073 211.224ZM311.208 209.247L311.216 209.793H310.431C310.21 209.793 310.013 209.811 309.84 209.847C309.666 209.881 309.521 209.932 309.403 210.002C309.286 210.072 309.196 210.16 309.135 210.267C309.073 210.37 309.042 210.492 309.042 210.632C309.042 210.775 309.074 210.905 309.139 211.022C309.203 211.14 309.3 211.233 309.428 211.303C309.56 211.371 309.721 211.404 309.911 211.404C310.149 211.404 310.359 211.354 310.54 211.253C310.722 211.152 310.866 211.029 310.973 210.884C311.082 210.738 311.141 210.597 311.149 210.46L311.48 210.833C311.461 210.951 311.408 211.081 311.321 211.224C311.234 211.366 311.118 211.503 310.973 211.635C310.83 211.764 310.659 211.871 310.461 211.958C310.265 212.042 310.044 212.084 309.798 212.084C309.49 212.084 309.22 212.024 308.988 211.903C308.758 211.783 308.579 211.622 308.451 211.421C308.325 211.217 308.262 210.989 308.262 210.737C308.262 210.493 308.309 210.279 308.404 210.095C308.499 209.907 308.637 209.752 308.816 209.629C308.995 209.503 309.21 209.408 309.462 209.344C309.714 209.279 309.995 209.247 310.305 209.247H311.208ZM316.013 207.459H316.718V211.903C316.718 212.304 316.637 212.645 316.474 212.927C316.312 213.21 316.086 213.424 315.795 213.57C315.506 213.718 315.173 213.792 314.796 213.792C314.639 213.792 314.454 213.767 314.242 213.716C314.032 213.669 313.825 213.586 313.621 213.469C313.419 213.354 313.25 213.199 313.113 213.003L313.52 212.541C313.71 212.771 313.909 212.93 314.116 213.02C314.326 213.109 314.533 213.154 314.737 213.154C314.983 213.154 315.196 213.108 315.375 213.016C315.554 212.923 315.692 212.786 315.79 212.604C315.891 212.425 315.941 212.204 315.941 211.941V208.458L316.013 207.459ZM312.886 209.78V209.692C312.886 209.345 312.927 209.03 313.008 208.748C313.092 208.462 313.211 208.217 313.365 208.013C313.521 207.809 313.71 207.652 313.931 207.543C314.152 207.431 314.401 207.375 314.678 207.375C314.964 207.375 315.213 207.426 315.425 207.526C315.641 207.624 315.823 207.768 315.971 207.959C316.122 208.146 316.241 208.373 316.328 208.639C316.414 208.904 316.474 209.205 316.508 209.541V209.927C316.477 210.26 316.417 210.559 316.328 210.825C316.241 211.091 316.122 211.317 315.971 211.505C315.823 211.692 315.641 211.836 315.425 211.937C315.21 212.035 314.958 212.084 314.67 212.084C314.399 212.084 314.152 212.027 313.931 211.912C313.713 211.797 313.526 211.636 313.369 211.429C313.212 211.222 313.092 210.979 313.008 210.699C312.927 210.416 312.886 210.11 312.886 209.78ZM313.663 209.692V209.78C313.663 210.007 313.685 210.219 313.73 210.418C313.777 210.617 313.849 210.791 313.944 210.942C314.042 211.094 314.166 211.212 314.317 211.299C314.468 211.383 314.649 211.425 314.859 211.425C315.116 211.425 315.329 211.371 315.497 211.261C315.664 211.152 315.797 211.008 315.895 210.829C315.996 210.65 316.074 210.456 316.13 210.246V209.234C316.1 209.081 316.052 208.932 315.988 208.79C315.926 208.644 315.845 208.515 315.744 208.404C315.646 208.289 315.525 208.198 315.379 208.131C315.234 208.064 315.063 208.03 314.867 208.03C314.654 208.03 314.471 208.075 314.317 208.164C314.166 208.251 314.042 208.371 313.944 208.525C313.849 208.676 313.777 208.853 313.73 209.054C313.685 209.253 313.663 209.465 313.663 209.692ZM317.691 209.78V209.683C317.691 209.356 317.739 209.053 317.834 208.773C317.929 208.49 318.066 208.245 318.245 208.038C318.424 207.829 318.641 207.666 318.896 207.552C319.15 207.434 319.436 207.375 319.752 207.375C320.071 207.375 320.358 207.434 320.612 207.552C320.87 207.666 321.088 207.829 321.267 208.038C321.449 208.245 321.587 208.49 321.682 208.773C321.778 209.053 321.825 209.356 321.825 209.683V209.78C321.825 210.107 321.778 210.411 321.682 210.691C321.587 210.97 321.449 211.215 321.267 211.425C321.088 211.632 320.871 211.794 320.616 211.912C320.365 212.027 320.079 212.084 319.76 212.084C319.441 212.084 319.155 212.027 318.9 211.912C318.645 211.794 318.427 211.632 318.245 211.425C318.066 211.215 317.929 210.97 317.834 210.691C317.739 210.411 317.691 210.107 317.691 209.78ZM318.468 209.683V209.78C318.468 210.007 318.494 210.221 318.548 210.422C318.601 210.621 318.68 210.797 318.787 210.951C318.896 211.105 319.032 211.226 319.194 211.316C319.356 211.403 319.545 211.446 319.76 211.446C319.973 211.446 320.159 211.403 320.319 211.316C320.481 211.226 320.615 211.105 320.721 210.951C320.828 210.797 320.907 210.621 320.961 210.422C321.017 210.221 321.045 210.007 321.045 209.78V209.683C321.045 209.46 321.017 209.248 320.961 209.05C320.907 208.848 320.826 208.671 320.717 208.517C320.611 208.36 320.477 208.237 320.314 208.148C320.155 208.058 319.967 208.013 319.752 208.013C319.539 208.013 319.352 208.058 319.19 208.148C319.03 208.237 318.896 208.36 318.787 208.517C318.68 208.671 318.601 208.848 318.548 209.05C318.494 209.248 318.468 209.46 318.468 209.683ZM322.811 211.589C322.811 211.457 322.852 211.347 322.933 211.257C323.017 211.165 323.137 211.119 323.294 211.119C323.451 211.119 323.569 211.165 323.651 211.257C323.735 211.347 323.777 211.457 323.777 211.589C323.777 211.717 323.735 211.827 323.651 211.916C323.569 212.006 323.451 212.05 323.294 212.05C323.137 212.05 323.017 212.006 322.933 211.916C322.852 211.827 322.811 211.717 322.811 211.589Z" fill="#879EAF"/>
<path d="M143.971 206.431L141.948 212H141.122L143.451 205.89H143.984L143.971 206.431ZM145.667 212L143.64 206.431L143.627 205.89H144.16L146.498 212H145.667ZM145.562 209.738V210.401H142.129V209.738H145.562ZM152.192 211.119V205.554H152.973V212H152.259L152.192 211.119ZM149.137 209.78V209.692C149.137 209.345 149.179 209.03 149.263 208.748C149.35 208.462 149.472 208.217 149.628 208.013C149.788 207.809 149.977 207.652 150.195 207.543C150.416 207.431 150.662 207.375 150.933 207.375C151.219 207.375 151.468 207.426 151.68 207.526C151.896 207.624 152.078 207.768 152.226 207.959C152.377 208.146 152.496 208.373 152.583 208.639C152.669 208.904 152.729 209.205 152.763 209.541V209.927C152.732 210.26 152.672 210.559 152.583 210.825C152.496 211.091 152.377 211.317 152.226 211.505C152.078 211.692 151.896 211.836 151.68 211.937C151.465 212.035 151.213 212.084 150.925 212.084C150.659 212.084 150.416 212.027 150.195 211.912C149.977 211.797 149.788 211.636 149.628 211.429C149.472 211.222 149.35 210.979 149.263 210.699C149.179 210.416 149.137 210.11 149.137 209.78ZM149.918 209.692V209.78C149.918 210.007 149.94 210.219 149.985 210.418C150.032 210.617 150.105 210.791 150.203 210.942C150.301 211.094 150.426 211.212 150.577 211.299C150.728 211.383 150.908 211.425 151.118 211.425C151.375 211.425 151.587 211.371 151.752 211.261C151.92 211.152 152.054 211.008 152.155 210.829C152.255 210.65 152.334 210.456 152.39 210.246V209.234C152.356 209.081 152.307 208.932 152.243 208.79C152.181 208.644 152.1 208.515 151.999 208.404C151.901 208.289 151.78 208.198 151.634 208.131C151.491 208.064 151.322 208.03 151.126 208.03C150.914 208.03 150.731 208.075 150.577 208.164C150.426 208.251 150.301 208.371 150.203 208.525C150.105 208.676 150.032 208.853 149.985 209.054C149.94 209.253 149.918 209.465 149.918 209.692ZM156.859 211.224V208.886C156.859 208.707 156.823 208.552 156.75 208.42C156.68 208.286 156.574 208.182 156.431 208.11C156.288 208.037 156.112 208.001 155.902 208.001C155.706 208.001 155.534 208.034 155.386 208.101C155.24 208.169 155.126 208.257 155.042 208.366C154.961 208.475 154.92 208.592 154.92 208.718H154.144C154.144 208.556 154.186 208.395 154.27 208.236C154.354 208.076 154.474 207.932 154.631 207.803C154.79 207.672 154.98 207.568 155.201 207.493C155.425 207.415 155.674 207.375 155.948 207.375C156.278 207.375 156.569 207.431 156.821 207.543C157.076 207.655 157.274 207.824 157.417 208.051C157.563 208.275 157.635 208.556 157.635 208.895V211.01C157.635 211.161 157.648 211.322 157.673 211.492C157.701 211.663 157.742 211.81 157.795 211.933V212H156.985C156.946 211.91 156.915 211.792 156.893 211.643C156.87 211.492 156.859 211.352 156.859 211.224ZM156.993 209.247L157.002 209.793H156.217C155.996 209.793 155.799 209.811 155.625 209.847C155.452 209.881 155.306 209.932 155.189 210.002C155.071 210.072 154.982 210.16 154.92 210.267C154.859 210.37 154.828 210.492 154.828 210.632C154.828 210.775 154.86 210.905 154.924 211.022C154.989 211.14 155.085 211.233 155.214 211.303C155.345 211.371 155.506 211.404 155.696 211.404C155.934 211.404 156.144 211.354 156.326 211.253C156.508 211.152 156.652 211.029 156.758 210.884C156.867 210.738 156.926 210.597 156.934 210.46L157.266 210.833C157.246 210.951 157.193 211.081 157.107 211.224C157.02 211.366 156.904 211.503 156.758 211.635C156.616 211.764 156.445 211.871 156.246 211.958C156.05 212.042 155.829 212.084 155.583 212.084C155.275 212.084 155.005 212.024 154.773 211.903C154.544 211.783 154.365 211.622 154.236 211.421C154.11 211.217 154.047 210.989 154.047 210.737C154.047 210.493 154.095 210.279 154.19 210.095C154.285 209.907 154.422 209.752 154.601 209.629C154.78 209.503 154.996 209.408 155.247 209.344C155.499 209.279 155.78 209.247 156.091 209.247H156.993ZM160.065 211.53L161.328 207.459H162.159L160.338 212.701C160.296 212.813 160.24 212.933 160.17 213.062C160.103 213.193 160.016 213.318 159.91 213.435C159.804 213.553 159.675 213.648 159.524 213.721C159.376 213.796 159.198 213.834 158.991 213.834C158.929 213.834 158.851 213.826 158.756 213.809C158.661 213.792 158.594 213.778 158.554 213.767L158.55 213.137C158.573 213.14 158.608 213.143 158.655 213.146C158.705 213.151 158.74 213.154 158.76 213.154C158.936 213.154 159.086 213.13 159.209 213.083C159.332 213.038 159.436 212.961 159.52 212.852C159.606 212.746 159.68 212.599 159.742 212.411L160.065 211.53ZM159.138 207.459L160.317 210.984L160.518 211.803L159.96 212.088L158.29 207.459H159.138ZM167.669 211.224V208.886C167.669 208.707 167.633 208.552 167.56 208.42C167.49 208.286 167.384 208.182 167.241 208.11C167.099 208.037 166.922 208.001 166.713 208.001C166.517 208.001 166.345 208.034 166.196 208.101C166.051 208.169 165.936 208.257 165.852 208.366C165.771 208.475 165.731 208.592 165.731 208.718H164.954C164.954 208.556 164.996 208.395 165.08 208.236C165.164 208.076 165.284 207.932 165.441 207.803C165.6 207.672 165.791 207.568 166.012 207.493C166.236 207.415 166.485 207.375 166.759 207.375C167.089 207.375 167.38 207.431 167.632 207.543C167.886 207.655 168.085 207.824 168.228 208.051C168.373 208.275 168.446 208.556 168.446 208.895V211.01C168.446 211.161 168.458 211.322 168.484 211.492C168.512 211.663 168.552 211.81 168.605 211.933V212H167.795C167.756 211.91 167.725 211.792 167.703 211.643C167.681 211.492 167.669 211.352 167.669 211.224ZM167.804 209.247L167.812 209.793H167.027C166.806 209.793 166.609 209.811 166.436 209.847C166.262 209.881 166.117 209.932 165.999 210.002C165.882 210.072 165.792 210.16 165.731 210.267C165.669 210.37 165.638 210.492 165.638 210.632C165.638 210.775 165.67 210.905 165.735 211.022C165.799 211.14 165.896 211.233 166.024 211.303C166.156 211.371 166.317 211.404 166.507 211.404C166.745 211.404 166.955 211.354 167.136 211.253C167.318 211.152 167.462 211.029 167.569 210.884C167.678 210.738 167.737 210.597 167.745 210.46L168.076 210.833C168.057 210.951 168.004 211.081 167.917 211.224C167.83 211.366 167.714 211.503 167.569 211.635C167.426 211.764 167.255 211.871 167.057 211.958C166.861 212.042 166.64 212.084 166.394 212.084C166.086 212.084 165.816 212.024 165.584 211.903C165.354 211.783 165.175 211.622 165.047 211.421C164.921 211.217 164.858 210.989 164.858 210.737C164.858 210.493 164.905 210.279 165 210.095C165.095 209.907 165.233 209.752 165.412 209.629C165.591 209.503 165.806 209.408 166.058 209.344C166.31 209.279 166.591 209.247 166.901 209.247H167.804ZM172.609 207.459H173.314V211.903C173.314 212.304 173.233 212.645 173.07 212.927C172.908 213.21 172.682 213.424 172.391 213.57C172.102 213.718 171.769 213.792 171.392 213.792C171.235 213.792 171.05 213.767 170.838 213.716C170.628 213.669 170.421 213.586 170.217 213.469C170.015 213.354 169.846 213.199 169.709 213.003L170.116 212.541C170.306 212.771 170.505 212.93 170.712 213.02C170.922 213.109 171.129 213.154 171.333 213.154C171.579 213.154 171.792 213.108 171.971 213.016C172.15 212.923 172.288 212.786 172.386 212.604C172.487 212.425 172.537 212.204 172.537 211.941V208.458L172.609 207.459ZM169.482 209.78V209.692C169.482 209.345 169.523 209.03 169.604 208.748C169.688 208.462 169.807 208.217 169.961 208.013C170.117 207.809 170.306 207.652 170.527 207.543C170.748 207.431 170.997 207.375 171.274 207.375C171.56 207.375 171.809 207.426 172.021 207.526C172.237 207.624 172.419 207.768 172.567 207.959C172.718 208.146 172.837 208.373 172.924 208.639C173.01 208.904 173.07 209.205 173.104 209.541V209.927C173.073 210.26 173.013 210.559 172.924 210.825C172.837 211.091 172.718 211.317 172.567 211.505C172.419 211.692 172.237 211.836 172.021 211.937C171.806 212.035 171.554 212.084 171.266 212.084C170.994 212.084 170.748 212.027 170.527 211.912C170.309 211.797 170.122 211.636 169.965 211.429C169.808 211.222 169.688 210.979 169.604 210.699C169.523 210.416 169.482 210.11 169.482 209.78ZM170.259 209.692V209.78C170.259 210.007 170.281 210.219 170.326 210.418C170.373 210.617 170.445 210.791 170.54 210.942C170.638 211.094 170.762 211.212 170.913 211.299C171.064 211.383 171.245 211.425 171.455 211.425C171.712 211.425 171.925 211.371 172.093 211.261C172.26 211.152 172.393 211.008 172.491 210.829C172.592 210.65 172.67 210.456 172.726 210.246V209.234C172.696 209.081 172.648 208.932 172.584 208.79C172.522 208.644 172.441 208.515 172.34 208.404C172.242 208.289 172.121 208.198 171.975 208.131C171.83 208.064 171.659 208.03 171.463 208.03C171.25 208.03 171.067 208.075 170.913 208.164C170.762 208.251 170.638 208.371 170.54 208.525C170.445 208.676 170.373 208.853 170.326 209.054C170.281 209.253 170.259 209.465 170.259 209.692ZM174.287 209.78V209.683C174.287 209.356 174.335 209.053 174.43 208.773C174.525 208.49 174.662 208.245 174.841 208.038C175.02 207.829 175.237 207.666 175.492 207.552C175.746 207.434 176.032 207.375 176.348 207.375C176.667 207.375 176.954 207.434 177.208 207.552C177.466 207.666 177.684 207.829 177.863 208.038C178.045 208.245 178.183 208.49 178.278 208.773C178.374 209.053 178.421 209.356 178.421 209.683V209.78C178.421 210.107 178.374 210.411 178.278 210.691C178.183 210.97 178.045 211.215 177.863 211.425C177.684 211.632 177.467 211.794 177.212 211.912C176.961 212.027 176.675 212.084 176.356 212.084C176.037 212.084 175.751 212.027 175.496 211.912C175.241 211.794 175.023 211.632 174.841 211.425C174.662 211.215 174.525 210.97 174.43 210.691C174.335 210.411 174.287 210.107 174.287 209.78ZM175.064 209.683V209.78C175.064 210.007 175.09 210.221 175.144 210.422C175.197 210.621 175.276 210.797 175.383 210.951C175.492 211.105 175.628 211.226 175.79 211.316C175.952 211.403 176.141 211.446 176.356 211.446C176.569 211.446 176.755 211.403 176.914 211.316C177.077 211.226 177.211 211.105 177.317 210.951C177.424 210.797 177.503 210.621 177.557 210.422C177.613 210.221 177.641 210.007 177.641 209.78V209.683C177.641 209.46 177.613 209.248 177.557 209.05C177.503 208.848 177.422 208.671 177.313 208.517C177.207 208.36 177.073 208.237 176.91 208.148C176.751 208.058 176.563 208.013 176.348 208.013C176.135 208.013 175.948 208.058 175.786 208.148C175.626 208.237 175.492 208.36 175.383 208.517C175.276 208.671 175.197 208.848 175.144 209.05C175.09 209.248 175.064 209.46 175.064 209.683ZM179.407 211.589C179.407 211.457 179.448 211.347 179.529 211.257C179.613 211.165 179.733 211.119 179.89 211.119C180.047 211.119 180.165 211.165 180.247 211.257C180.331 211.347 180.372 211.457 180.372 211.589C180.372 211.717 180.331 211.827 180.247 211.916C180.165 212.006 180.047 212.05 179.89 212.05C179.733 212.05 179.613 212.006 179.529 211.916C179.448 211.827 179.407 211.717 179.407 211.589Z" fill="#879EAF"/>
<path d="M426.971 206.431L424.948 212H424.122L426.451 205.89H426.984L426.971 206.431ZM428.667 212L426.64 206.431L426.627 205.89H427.16L429.498 212H428.667ZM428.562 209.738V210.401H425.129V209.738H428.562ZM433.102 208.362V212H432.322V207.459H433.06L433.102 208.362ZM432.943 209.558L432.582 209.545C432.585 209.234 432.625 208.948 432.704 208.685C432.782 208.419 432.898 208.188 433.052 207.992C433.206 207.796 433.398 207.645 433.627 207.539C433.856 207.43 434.122 207.375 434.424 207.375C434.637 207.375 434.833 207.406 435.012 207.468C435.191 207.526 435.346 207.62 435.478 207.749C435.609 207.878 435.711 208.043 435.784 208.244C435.857 208.445 435.893 208.689 435.893 208.974V212H435.117V209.012C435.117 208.774 435.076 208.584 434.995 208.441C434.917 208.299 434.805 208.195 434.659 208.131C434.514 208.064 434.343 208.03 434.147 208.03C433.918 208.03 433.726 208.071 433.572 208.152C433.419 208.233 433.295 208.345 433.203 208.487C433.111 208.63 433.044 208.794 433.002 208.978C432.963 209.16 432.943 209.353 432.943 209.558ZM435.885 209.13L435.364 209.289C435.367 209.04 435.408 208.801 435.486 208.571C435.567 208.342 435.683 208.138 435.834 207.959C435.988 207.78 436.177 207.638 436.401 207.535C436.625 207.429 436.881 207.375 437.169 207.375C437.412 207.375 437.628 207.408 437.815 207.472C438.005 207.536 438.165 207.636 438.294 207.77C438.425 207.901 438.524 208.071 438.592 208.278C438.659 208.485 438.692 208.731 438.692 209.016V212H437.912V209.008C437.912 208.753 437.871 208.556 437.79 208.416C437.712 208.273 437.6 208.174 437.454 208.118C437.312 208.059 437.141 208.03 436.942 208.03C436.772 208.03 436.621 208.059 436.489 208.118C436.358 208.177 436.247 208.258 436.158 208.362C436.068 208.462 435.999 208.578 435.952 208.71C435.907 208.841 435.885 208.981 435.885 209.13ZM439.662 209.78V209.683C439.662 209.356 439.709 209.053 439.804 208.773C439.9 208.49 440.037 208.245 440.216 208.038C440.395 207.829 440.612 207.666 440.866 207.552C441.121 207.434 441.406 207.375 441.722 207.375C442.041 207.375 442.328 207.434 442.583 207.552C442.84 207.666 443.058 207.829 443.237 208.038C443.419 208.245 443.558 208.49 443.653 208.773C443.748 209.053 443.795 209.356 443.795 209.683V209.78C443.795 210.107 443.748 210.411 443.653 210.691C443.558 210.97 443.419 211.215 443.237 211.425C443.058 211.632 442.841 211.794 442.587 211.912C442.335 212.027 442.05 212.084 441.731 212.084C441.412 212.084 441.125 212.027 440.87 211.912C440.616 211.794 440.398 211.632 440.216 211.425C440.037 211.215 439.9 210.97 439.804 210.691C439.709 210.411 439.662 210.107 439.662 209.78ZM440.438 209.683V209.78C440.438 210.007 440.465 210.221 440.518 210.422C440.571 210.621 440.651 210.797 440.757 210.951C440.866 211.105 441.002 211.226 441.164 211.316C441.326 211.403 441.515 211.446 441.731 211.446C441.943 211.446 442.129 211.403 442.289 211.316C442.451 211.226 442.585 211.105 442.692 210.951C442.798 210.797 442.878 210.621 442.931 210.422C442.987 210.221 443.015 210.007 443.015 209.78V209.683C443.015 209.46 442.987 209.248 442.931 209.05C442.878 208.848 442.797 208.671 442.687 208.517C442.581 208.36 442.447 208.237 442.285 208.148C442.125 208.058 441.938 208.013 441.722 208.013C441.51 208.013 441.322 208.058 441.16 208.148C441 208.237 440.866 208.36 440.757 208.517C440.651 208.671 440.571 208.848 440.518 209.05C440.465 209.248 440.438 209.46 440.438 209.683ZM445.545 208.429V212H444.769V207.459H445.503L445.545 208.429ZM445.361 209.558L445.038 209.545C445.04 209.234 445.087 208.948 445.176 208.685C445.266 208.419 445.391 208.188 445.554 207.992C445.716 207.796 445.909 207.645 446.133 207.539C446.359 207.43 446.61 207.375 446.884 207.375C447.108 207.375 447.309 207.406 447.488 207.468C447.667 207.526 447.82 207.622 447.946 207.753C448.074 207.885 448.172 208.055 448.24 208.265C448.307 208.472 448.34 208.725 448.34 209.025V212H447.56V209.016C447.56 208.778 447.525 208.588 447.455 208.445C447.385 208.3 447.283 208.195 447.148 208.131C447.014 208.064 446.849 208.03 446.653 208.03C446.46 208.03 446.284 208.071 446.124 208.152C445.968 208.233 445.832 208.345 445.717 208.487C445.605 208.63 445.517 208.794 445.453 208.978C445.391 209.16 445.361 209.353 445.361 209.558ZM451.421 207.459V208.055H448.966V207.459H451.421ZM449.796 206.356H450.573V210.875C450.573 211.029 450.597 211.145 450.644 211.224C450.692 211.302 450.753 211.354 450.829 211.379C450.904 211.404 450.986 211.417 451.072 211.417C451.137 211.417 451.204 211.411 451.274 211.4C451.346 211.386 451.401 211.375 451.437 211.366L451.442 212C451.38 212.02 451.299 212.038 451.198 212.055C451.1 212.074 450.981 212.084 450.841 212.084C450.651 212.084 450.476 212.046 450.317 211.971C450.157 211.895 450.03 211.769 449.935 211.593C449.843 211.414 449.796 211.173 449.796 210.871V206.356ZM453.108 205.554V212H452.331V205.554H453.108ZM452.923 209.558L452.6 209.545C452.603 209.234 452.649 208.948 452.738 208.685C452.828 208.419 452.954 208.188 453.116 207.992C453.278 207.796 453.471 207.645 453.695 207.539C453.922 207.43 454.172 207.375 454.446 207.375C454.67 207.375 454.872 207.406 455.051 207.468C455.23 207.526 455.382 207.622 455.508 207.753C455.637 207.885 455.735 208.055 455.802 208.265C455.869 208.472 455.903 208.725 455.903 209.025V212H455.122V209.016C455.122 208.778 455.087 208.588 455.017 208.445C454.947 208.3 454.845 208.195 454.711 208.131C454.576 208.064 454.411 208.03 454.216 208.03C454.022 208.03 453.846 208.071 453.687 208.152C453.53 208.233 453.394 208.345 453.28 208.487C453.168 208.63 453.08 208.794 453.015 208.978C452.954 209.16 452.923 209.353 452.923 209.558ZM461.874 211.224V208.886C461.874 208.707 461.838 208.552 461.765 208.42C461.695 208.286 461.589 208.182 461.446 208.11C461.304 208.037 461.127 208.001 460.917 208.001C460.722 208.001 460.55 208.034 460.401 208.101C460.256 208.169 460.141 208.257 460.057 208.366C459.976 208.475 459.935 208.592 459.935 208.718H459.159C459.159 208.556 459.201 208.395 459.285 208.236C459.369 208.076 459.489 207.932 459.646 207.803C459.805 207.672 459.996 207.568 460.217 207.493C460.44 207.415 460.689 207.375 460.964 207.375C461.294 207.375 461.585 207.431 461.837 207.543C462.091 207.655 462.29 207.824 462.432 208.051C462.578 208.275 462.651 208.556 462.651 208.895V211.01C462.651 211.161 462.663 211.322 462.688 211.492C462.716 211.663 462.757 211.81 462.81 211.933V212H462C461.961 211.91 461.93 211.792 461.908 211.643C461.885 211.492 461.874 211.352 461.874 211.224ZM462.009 209.247L462.017 209.793H461.232C461.011 209.793 460.814 209.811 460.641 209.847C460.467 209.881 460.322 209.932 460.204 210.002C460.087 210.072 459.997 210.16 459.935 210.267C459.874 210.37 459.843 210.492 459.843 210.632C459.843 210.775 459.875 210.905 459.94 211.022C460.004 211.14 460.101 211.233 460.229 211.303C460.361 211.371 460.522 211.404 460.712 211.404C460.95 211.404 461.159 211.354 461.341 211.253C461.523 211.152 461.667 211.029 461.774 210.884C461.883 210.738 461.941 210.597 461.95 210.46L462.281 210.833C462.262 210.951 462.209 211.081 462.122 211.224C462.035 211.366 461.919 211.503 461.774 211.635C461.631 211.764 461.46 211.871 461.262 211.958C461.066 212.042 460.845 212.084 460.599 212.084C460.291 212.084 460.021 212.024 459.789 211.903C459.559 211.783 459.38 211.622 459.251 211.421C459.126 211.217 459.063 210.989 459.063 210.737C459.063 210.493 459.11 210.279 459.205 210.095C459.3 209.907 459.437 209.752 459.617 209.629C459.796 209.503 460.011 209.408 460.263 209.344C460.515 209.279 460.796 209.247 461.106 209.247H462.009ZM466.814 207.459H467.519V211.903C467.519 212.304 467.438 212.645 467.275 212.927C467.113 213.21 466.886 213.424 466.595 213.57C466.307 213.718 465.974 213.792 465.597 213.792C465.44 213.792 465.255 213.767 465.043 213.716C464.833 213.669 464.626 213.586 464.422 213.469C464.22 213.354 464.051 213.199 463.914 213.003L464.321 212.541C464.511 212.771 464.71 212.93 464.917 213.02C465.127 213.109 465.334 213.154 465.538 213.154C465.784 213.154 465.997 213.108 466.176 213.016C466.355 212.923 466.493 212.786 466.591 212.604C466.692 212.425 466.742 212.204 466.742 211.941V208.458L466.814 207.459ZM463.687 209.78V209.692C463.687 209.345 463.728 209.03 463.809 208.748C463.893 208.462 464.012 208.217 464.166 208.013C464.322 207.809 464.511 207.652 464.732 207.543C464.953 207.431 465.202 207.375 465.479 207.375C465.765 207.375 466.014 207.426 466.226 207.526C466.442 207.624 466.623 207.768 466.772 207.959C466.923 208.146 467.042 208.373 467.128 208.639C467.215 208.904 467.275 209.205 467.309 209.541V209.927C467.278 210.26 467.218 210.559 467.128 210.825C467.042 211.091 466.923 211.317 466.772 211.505C466.623 211.692 466.442 211.836 466.226 211.937C466.011 212.035 465.759 212.084 465.471 212.084C465.199 212.084 464.953 212.027 464.732 211.912C464.514 211.797 464.327 211.636 464.17 211.429C464.013 211.222 463.893 210.979 463.809 210.699C463.728 210.416 463.687 210.11 463.687 209.78ZM464.464 209.692V209.78C464.464 210.007 464.486 210.219 464.531 210.418C464.578 210.617 464.65 210.791 464.745 210.942C464.843 211.094 464.967 211.212 465.118 211.299C465.269 211.383 465.45 211.425 465.66 211.425C465.917 211.425 466.13 211.371 466.298 211.261C466.465 211.152 466.598 211.008 466.696 210.829C466.797 210.65 466.875 210.456 466.931 210.246V209.234C466.9 209.081 466.853 208.932 466.789 208.79C466.727 208.644 466.646 208.515 466.545 208.404C466.447 208.289 466.325 208.198 466.18 208.131C466.035 208.064 465.864 208.03 465.668 208.03C465.455 208.03 465.272 208.075 465.118 208.164C464.967 208.251 464.843 208.371 464.745 208.525C464.65 208.676 464.578 208.853 464.531 209.054C464.486 209.253 464.464 209.465 464.464 209.692ZM468.492 209.78V209.683C468.492 209.356 468.54 209.053 468.635 208.773C468.73 208.49 468.867 208.245 469.046 208.038C469.225 207.829 469.442 207.666 469.697 207.552C469.951 207.434 470.237 207.375 470.553 207.375C470.872 207.375 471.159 207.434 471.413 207.552C471.671 207.666 471.889 207.829 472.068 208.038C472.25 208.245 472.388 208.49 472.483 208.773C472.578 209.053 472.626 209.356 472.626 209.683V209.78C472.626 210.107 472.578 210.411 472.483 210.691C472.388 210.97 472.25 211.215 472.068 211.425C471.889 211.632 471.672 211.794 471.417 211.912C471.166 212.027 470.88 212.084 470.561 212.084C470.242 212.084 469.956 212.027 469.701 211.912C469.446 211.794 469.228 211.632 469.046 211.425C468.867 211.215 468.73 210.97 468.635 210.691C468.54 210.411 468.492 210.107 468.492 209.78ZM469.269 209.683V209.78C469.269 210.007 469.295 210.221 469.348 210.422C469.402 210.621 469.481 210.797 469.588 210.951C469.697 211.105 469.832 211.226 469.995 211.316C470.157 211.403 470.346 211.446 470.561 211.446C470.774 211.446 470.96 211.403 471.119 211.316C471.282 211.226 471.416 211.105 471.522 210.951C471.629 210.797 471.708 210.621 471.761 210.422C471.817 210.221 471.845 210.007 471.845 209.78V209.683C471.845 209.46 471.817 209.248 471.761 209.05C471.708 208.848 471.627 208.671 471.518 208.517C471.412 208.36 471.277 208.237 471.115 208.148C470.956 208.058 470.768 208.013 470.553 208.013C470.34 208.013 470.153 208.058 469.991 208.148C469.831 208.237 469.697 208.36 469.588 208.517C469.481 208.671 469.402 208.848 469.348 209.05C469.295 209.248 469.269 209.46 469.269 209.683ZM473.612 211.589C473.612 211.457 473.653 211.347 473.734 211.257C473.818 211.165 473.938 211.119 474.095 211.119C474.251 211.119 474.37 211.165 474.452 211.257C474.535 211.347 474.577 211.457 474.577 211.589C474.577 211.717 474.535 211.827 474.452 211.916C474.37 212.006 474.251 212.05 474.095 212.05C473.938 212.05 473.818 212.006 473.734 211.916C473.653 211.827 473.612 211.717 473.612 211.589Z" fill="#879EAF"/>
<path d="M574.641 208.563H575.195C575.466 208.563 575.69 208.518 575.866 208.429C576.045 208.336 576.178 208.212 576.265 208.055C576.354 207.896 576.399 207.717 576.399 207.518C576.399 207.283 576.36 207.086 576.282 206.926C576.203 206.767 576.086 206.647 575.929 206.565C575.773 206.484 575.574 206.444 575.333 206.444C575.115 206.444 574.922 206.487 574.754 206.574C574.589 206.658 574.459 206.778 574.364 206.935C574.272 207.091 574.225 207.276 574.225 207.489H573.449C573.449 207.178 573.527 206.896 573.684 206.641C573.841 206.386 574.06 206.184 574.343 206.032C574.628 205.881 574.958 205.806 575.333 205.806C575.703 205.806 576.026 205.872 576.303 206.003C576.58 206.132 576.795 206.325 576.949 206.582C577.103 206.837 577.18 207.154 577.18 207.535C577.18 207.689 577.143 207.854 577.071 208.03C577.001 208.203 576.89 208.366 576.739 208.517C576.591 208.668 576.398 208.792 576.16 208.89C575.922 208.985 575.637 209.033 575.304 209.033H574.641V208.563ZM574.641 209.201V208.735H575.304C575.693 208.735 576.015 208.781 576.269 208.874C576.524 208.966 576.724 209.089 576.869 209.243C577.018 209.397 577.121 209.566 577.18 209.751C577.241 209.932 577.272 210.114 577.272 210.296C577.272 210.582 577.223 210.835 577.125 211.056C577.03 211.277 576.894 211.464 576.718 211.618C576.545 211.772 576.34 211.888 576.105 211.966C575.87 212.045 575.614 212.084 575.338 212.084C575.072 212.084 574.821 212.046 574.586 211.971C574.354 211.895 574.148 211.786 573.969 211.643C573.79 211.498 573.65 211.32 573.55 211.11C573.449 210.898 573.399 210.656 573.399 210.384H574.175C574.175 210.597 574.221 210.783 574.314 210.942C574.409 211.102 574.543 211.226 574.716 211.316C574.893 211.403 575.1 211.446 575.338 211.446C575.575 211.446 575.78 211.405 575.95 211.324C576.124 211.24 576.257 211.115 576.349 210.947C576.444 210.779 576.492 210.568 576.492 210.313C576.492 210.058 576.438 209.85 576.332 209.688C576.226 209.523 576.075 209.401 575.879 209.323C575.686 209.241 575.458 209.201 575.195 209.201H574.641ZM581.33 208.362V212H580.55V207.459H581.288L581.33 208.362ZM581.171 209.558L580.81 209.545C580.813 209.234 580.853 208.948 580.932 208.685C581.01 208.419 581.126 208.188 581.28 207.992C581.434 207.796 581.625 207.645 581.855 207.539C582.084 207.43 582.35 207.375 582.652 207.375C582.865 207.375 583.061 207.406 583.24 207.468C583.419 207.526 583.574 207.62 583.706 207.749C583.837 207.878 583.939 208.043 584.012 208.244C584.085 208.445 584.121 208.689 584.121 208.974V212H583.345V209.012C583.345 208.774 583.304 208.584 583.223 208.441C583.145 208.299 583.033 208.195 582.887 208.131C582.742 208.064 582.571 208.03 582.375 208.03C582.146 208.03 581.954 208.071 581.8 208.152C581.646 208.233 581.523 208.345 581.431 208.487C581.339 208.63 581.271 208.794 581.23 208.978C581.19 209.16 581.171 209.353 581.171 209.558ZM584.113 209.13L583.592 209.289C583.595 209.04 583.636 208.801 583.714 208.571C583.795 208.342 583.911 208.138 584.062 207.959C584.216 207.78 584.405 207.638 584.629 207.535C584.853 207.429 585.109 207.375 585.397 207.375C585.64 207.375 585.856 207.408 586.043 207.472C586.233 207.536 586.393 207.636 586.521 207.77C586.653 207.901 586.752 208.071 586.819 208.278C586.887 208.485 586.92 208.731 586.92 209.016V212H586.14V209.008C586.14 208.753 586.099 208.556 586.018 208.416C585.94 208.273 585.828 208.174 585.682 208.118C585.539 208.059 585.369 208.03 585.17 208.03C584.999 208.03 584.848 208.059 584.717 208.118C584.585 208.177 584.475 208.258 584.385 208.362C584.296 208.462 584.227 208.578 584.18 208.71C584.135 208.841 584.113 208.981 584.113 209.13ZM587.89 209.78V209.683C587.89 209.356 587.937 209.053 588.032 208.773C588.127 208.49 588.264 208.245 588.443 208.038C588.623 207.829 588.839 207.666 589.094 207.552C589.349 207.434 589.634 207.375 589.95 207.375C590.269 207.375 590.556 207.434 590.81 207.552C591.068 207.666 591.286 207.829 591.465 208.038C591.647 208.245 591.785 208.49 591.88 208.773C591.976 209.053 592.023 209.356 592.023 209.683V209.78C592.023 210.107 591.976 210.411 591.88 210.691C591.785 210.97 591.647 211.215 591.465 211.425C591.286 211.632 591.069 211.794 590.815 211.912C590.563 212.027 590.277 212.084 589.958 212.084C589.64 212.084 589.353 212.027 589.098 211.912C588.844 211.794 588.625 211.632 588.443 211.425C588.264 211.215 588.127 210.97 588.032 210.691C587.937 210.411 587.89 210.107 587.89 209.78ZM588.666 209.683V209.78C588.666 210.007 588.692 210.221 588.746 210.422C588.799 210.621 588.879 210.797 588.985 210.951C589.094 211.105 589.23 211.226 589.392 211.316C589.554 211.403 589.743 211.446 589.958 211.446C590.171 211.446 590.357 211.403 590.517 211.316C590.679 211.226 590.813 211.105 590.919 210.951C591.026 210.797 591.106 210.621 591.159 210.422C591.215 210.221 591.243 210.007 591.243 209.78V209.683C591.243 209.46 591.215 209.248 591.159 209.05C591.106 208.848 591.024 208.671 590.915 208.517C590.809 208.36 590.675 208.237 590.512 208.148C590.353 208.058 590.165 208.013 589.95 208.013C589.737 208.013 589.55 208.058 589.388 208.148C589.228 208.237 589.094 208.36 588.985 208.517C588.879 208.671 588.799 208.848 588.746 209.05C588.692 209.248 588.666 209.46 588.666 209.683ZM593.773 208.429V212H592.997V207.459H593.731L593.773 208.429ZM593.589 209.558L593.265 209.545C593.268 209.234 593.314 208.948 593.404 208.685C593.493 208.419 593.619 208.188 593.782 207.992C593.944 207.796 594.137 207.645 594.361 207.539C594.587 207.43 594.838 207.375 595.112 207.375C595.336 207.375 595.537 207.406 595.716 207.468C595.895 207.526 596.048 207.622 596.174 207.753C596.302 207.885 596.4 208.055 596.467 208.265C596.535 208.472 596.568 208.725 596.568 209.025V212H595.788V209.016C595.788 208.778 595.753 208.588 595.683 208.445C595.613 208.3 595.511 208.195 595.376 208.131C595.242 208.064 595.077 208.03 594.881 208.03C594.688 208.03 594.512 208.071 594.352 208.152C594.196 208.233 594.06 208.345 593.945 208.487C593.833 208.63 593.745 208.794 593.681 208.978C593.619 209.16 593.589 209.353 593.589 209.558ZM599.648 207.459V208.055H597.193V207.459H599.648ZM598.024 206.356H598.801V210.875C598.801 211.029 598.824 211.145 598.872 211.224C598.92 211.302 598.981 211.354 599.057 211.379C599.132 211.404 599.213 211.417 599.3 211.417C599.364 211.417 599.432 211.411 599.502 211.4C599.574 211.386 599.629 211.375 599.665 211.366L599.669 212C599.608 212.02 599.527 212.038 599.426 212.055C599.328 212.074 599.209 212.084 599.069 212.084C598.879 212.084 598.704 212.046 598.545 211.971C598.385 211.895 598.258 211.769 598.163 211.593C598.07 211.414 598.024 211.173 598.024 210.871V206.356ZM601.335 205.554V212H600.559V205.554H601.335ZM601.151 209.558L600.828 209.545C600.83 209.234 600.877 208.948 600.966 208.685C601.056 208.419 601.182 208.188 601.344 207.992C601.506 207.796 601.699 207.645 601.923 207.539C602.15 207.43 602.4 207.375 602.674 207.375C602.898 207.375 603.099 207.406 603.278 207.468C603.458 207.526 603.61 207.622 603.736 207.753C603.865 207.885 603.963 208.055 604.03 208.265C604.097 208.472 604.13 208.725 604.13 209.025V212H603.35V209.016C603.35 208.778 603.315 208.588 603.245 208.445C603.175 208.3 603.073 208.195 602.939 208.131C602.804 208.064 602.639 208.03 602.443 208.03C602.25 208.03 602.074 208.071 601.915 208.152C601.758 208.233 601.622 208.345 601.507 208.487C601.396 208.63 601.307 208.794 601.243 208.978C601.182 209.16 601.151 209.353 601.151 209.558ZM607.937 210.796C607.937 210.684 607.912 210.58 607.861 210.485C607.814 210.387 607.714 210.299 607.563 210.221C607.415 210.14 607.191 210.07 606.892 210.011C606.64 209.958 606.412 209.895 606.208 209.822C606.006 209.749 605.834 209.661 605.692 209.558C605.552 209.454 605.444 209.332 605.368 209.192C605.293 209.053 605.255 208.889 605.255 208.701C605.255 208.522 605.294 208.353 605.373 208.194C605.454 208.034 605.567 207.893 605.712 207.77C605.861 207.647 606.038 207.55 606.245 207.48C606.452 207.41 606.683 207.375 606.938 207.375C607.302 207.375 607.612 207.44 607.87 207.568C608.127 207.697 608.324 207.869 608.461 208.085C608.598 208.297 608.667 208.534 608.667 208.794H607.891C607.891 208.668 607.853 208.546 607.777 208.429C607.704 208.308 607.597 208.209 607.454 208.131C607.314 208.052 607.142 208.013 606.938 208.013C606.722 208.013 606.548 208.047 606.413 208.114C606.282 208.178 606.185 208.261 606.124 208.362C606.065 208.462 606.036 208.569 606.036 208.68C606.036 208.764 606.05 208.84 606.078 208.907C606.108 208.971 606.162 209.032 606.237 209.088C606.313 209.141 606.419 209.191 606.556 209.239C606.693 209.286 606.868 209.334 607.081 209.381C607.453 209.465 607.759 209.566 608 209.683C608.24 209.801 608.419 209.945 608.537 210.116C608.654 210.286 608.713 210.493 608.713 210.737C608.713 210.935 608.671 211.117 608.587 211.282C608.506 211.447 608.387 211.59 608.23 211.71C608.077 211.828 607.892 211.92 607.676 211.987C607.464 212.052 607.225 212.084 606.959 212.084C606.559 212.084 606.22 212.013 605.943 211.87C605.666 211.727 605.456 211.543 605.314 211.316C605.171 211.089 605.1 210.85 605.1 210.598H605.88C605.892 210.811 605.953 210.98 606.065 211.106C606.177 211.229 606.314 211.317 606.476 211.371C606.639 211.421 606.799 211.446 606.959 211.446C607.172 211.446 607.349 211.418 607.492 211.362C607.637 211.306 607.748 211.229 607.823 211.131C607.899 211.033 607.937 210.921 607.937 210.796ZM614.542 211.224V208.886C614.542 208.707 614.506 208.552 614.433 208.42C614.363 208.286 614.257 208.182 614.114 208.11C613.971 208.037 613.795 208.001 613.585 208.001C613.389 208.001 613.217 208.034 613.069 208.101C612.924 208.169 612.809 208.257 612.725 208.366C612.644 208.475 612.603 208.592 612.603 208.718H611.827C611.827 208.556 611.869 208.395 611.953 208.236C612.037 208.076 612.157 207.932 612.314 207.803C612.473 207.672 612.663 207.568 612.884 207.493C613.108 207.415 613.357 207.375 613.631 207.375C613.962 207.375 614.253 207.431 614.504 207.543C614.759 207.655 614.958 207.824 615.1 208.051C615.246 208.275 615.319 208.556 615.319 208.895V211.01C615.319 211.161 615.331 211.322 615.356 211.492C615.384 211.663 615.425 211.81 615.478 211.933V212H614.668C614.629 211.91 614.598 211.792 614.576 211.643C614.553 211.492 614.542 211.352 614.542 211.224ZM614.676 209.247L614.685 209.793H613.9C613.679 209.793 613.482 209.811 613.308 209.847C613.135 209.881 612.989 209.932 612.872 210.002C612.754 210.072 612.665 210.16 612.603 210.267C612.542 210.37 612.511 210.492 612.511 210.632C612.511 210.775 612.543 210.905 612.608 211.022C612.672 211.14 612.768 211.233 612.897 211.303C613.029 211.371 613.189 211.404 613.38 211.404C613.617 211.404 613.827 211.354 614.009 211.253C614.191 211.152 614.335 211.029 614.441 210.884C614.551 210.738 614.609 210.597 614.618 210.46L614.949 210.833C614.93 210.951 614.876 211.081 614.79 211.224C614.703 211.366 614.587 211.503 614.441 211.635C614.299 211.764 614.128 211.871 613.929 211.958C613.734 212.042 613.513 212.084 613.266 212.084C612.959 212.084 612.689 212.024 612.456 211.903C612.227 211.783 612.048 211.622 611.919 211.421C611.793 211.217 611.73 210.989 611.73 210.737C611.73 210.493 611.778 210.279 611.873 210.095C611.968 209.907 612.105 209.752 612.284 209.629C612.463 209.503 612.679 209.408 612.931 209.344C613.182 209.279 613.464 209.247 613.774 209.247H614.676ZM619.482 207.459H620.187V211.903C620.187 212.304 620.105 212.645 619.943 212.927C619.781 213.21 619.554 213.424 619.263 213.57C618.975 213.718 618.642 213.792 618.265 213.792C618.108 213.792 617.923 213.767 617.711 213.716C617.501 213.669 617.294 213.586 617.089 213.469C616.888 213.354 616.719 213.199 616.582 213.003L616.989 212.541C617.179 212.771 617.378 212.93 617.585 213.02C617.794 213.109 618.002 213.154 618.206 213.154C618.452 213.154 618.665 213.108 618.844 213.016C619.023 212.923 619.161 212.786 619.259 212.604C619.36 212.425 619.41 212.204 619.41 211.941V208.458L619.482 207.459ZM616.355 209.78V209.692C616.355 209.345 616.396 209.03 616.477 208.748C616.561 208.462 616.68 208.217 616.833 208.013C616.99 207.809 617.179 207.652 617.4 207.543C617.621 207.431 617.87 207.375 618.147 207.375C618.432 207.375 618.681 207.426 618.894 207.526C619.109 207.624 619.291 207.768 619.44 207.959C619.591 208.146 619.71 208.373 619.796 208.639C619.883 208.904 619.943 209.205 619.977 209.541V209.927C619.946 210.26 619.886 210.559 619.796 210.825C619.71 211.091 619.591 211.317 619.44 211.505C619.291 211.692 619.109 211.836 618.894 211.937C618.679 212.035 618.427 212.084 618.139 212.084C617.867 212.084 617.621 212.027 617.4 211.912C617.182 211.797 616.994 211.636 616.838 211.429C616.681 211.222 616.561 210.979 616.477 210.699C616.396 210.416 616.355 210.11 616.355 209.78ZM617.131 209.692V209.78C617.131 210.007 617.154 210.219 617.199 210.418C617.246 210.617 617.317 210.791 617.413 210.942C617.511 211.094 617.635 211.212 617.786 211.299C617.937 211.383 618.118 211.425 618.327 211.425C618.585 211.425 618.797 211.371 618.965 211.261C619.133 211.152 619.266 211.008 619.364 210.829C619.465 210.65 619.543 210.456 619.599 210.246V209.234C619.568 209.081 619.521 208.932 619.456 208.79C619.395 208.644 619.314 208.515 619.213 208.404C619.115 208.289 618.993 208.198 618.848 208.131C618.702 208.064 618.532 208.03 618.336 208.03C618.123 208.03 617.94 208.075 617.786 208.164C617.635 208.251 617.511 208.371 617.413 208.525C617.317 208.676 617.246 208.853 617.199 209.054C617.154 209.253 617.131 209.465 617.131 209.692ZM621.16 209.78V209.683C621.16 209.356 621.208 209.053 621.303 208.773C621.398 208.49 621.535 208.245 621.714 208.038C621.893 207.829 622.11 207.666 622.365 207.552C622.619 207.434 622.905 207.375 623.221 207.375C623.54 207.375 623.826 207.434 624.081 207.552C624.338 207.666 624.557 207.829 624.736 208.038C624.918 208.245 625.056 208.49 625.151 208.773C625.246 209.053 625.294 209.356 625.294 209.683V209.78C625.294 210.107 625.246 210.411 625.151 210.691C625.056 210.97 624.918 211.215 624.736 211.425C624.557 211.632 624.34 211.794 624.085 211.912C623.833 212.027 623.548 212.084 623.229 212.084C622.91 212.084 622.623 212.027 622.369 211.912C622.114 211.794 621.896 211.632 621.714 211.425C621.535 211.215 621.398 210.97 621.303 210.691C621.208 210.411 621.16 210.107 621.16 209.78ZM621.937 209.683V209.78C621.937 210.007 621.963 210.221 622.016 210.422C622.069 210.621 622.149 210.797 622.255 210.951C622.365 211.105 622.5 211.226 622.663 211.316C622.825 211.403 623.014 211.446 623.229 211.446C623.442 211.446 623.628 211.403 623.787 211.316C623.95 211.226 624.084 211.105 624.19 210.951C624.296 210.797 624.376 210.621 624.429 210.422C624.485 210.221 624.513 210.007 624.513 209.78V209.683C624.513 209.46 624.485 209.248 624.429 209.05C624.376 208.848 624.295 208.671 624.186 208.517C624.08 208.36 623.945 208.237 623.783 208.148C623.624 208.058 623.436 208.013 623.221 208.013C623.008 208.013 622.821 208.058 622.658 208.148C622.499 208.237 622.365 208.36 622.255 208.517C622.149 208.671 622.069 208.848 622.016 209.05C621.963 209.248 621.937 209.46 621.937 209.683ZM626.28 211.589C626.28 211.457 626.321 211.347 626.402 211.257C626.486 211.165 626.606 211.119 626.763 211.119C626.919 211.119 627.038 211.165 627.119 211.257C627.203 211.347 627.245 211.457 627.245 211.589C627.245 211.717 627.203 211.827 627.119 211.916C627.038 212.006 626.919 212.05 626.763 212.05C626.606 212.05 626.486 212.006 626.402 211.916C626.321 211.827 626.28 211.717 626.28 211.589Z" fill="#879EAF"/>
<path d="M61.666 177.866L107.389 161.278L149.331 140.759L184.011 159.323L229.197 148.021L271.934 159.323L307.172 133.582L345.074 177.866L379.216 133.582L420.17 155.735L463.121 138.352L502.635 155.735L545.394 121.937L588.947 172.301L626.871 144.798" stroke="url(#paint0_linear_374_253)" stroke-width="2.14866" stroke-linecap="round" stroke-linejoin="round"/>
<path d="M629.988 144.325C629.988 143.828 629.84 143.342 629.564 142.929C629.288 142.515 628.895 142.193 628.436 142.003C627.977 141.813 627.471 141.763 626.984 141.86C626.496 141.957 626.048 142.196 625.696 142.548C625.345 142.899 625.105 143.347 625.008 143.835C624.911 144.323 624.961 144.828 625.151 145.288C625.342 145.747 625.664 146.139 626.077 146.416C626.491 146.692 626.977 146.839 627.474 146.839C628.141 146.839 628.78 146.574 629.252 146.103C629.723 145.632 629.988 144.992 629.988 144.325Z" fill="#8BC53E"/>
<defs>
<linearGradient id="paint0_linear_374_253" x1="60.5917" y1="149.912" x2="627.924" y2="149.912" gradientUnits="userSpaceOnUse">
<stop stop-color="#A5CD3D"/>
<stop offset="0.5" stop-color="#A0D468"/>
<stop offset="1" stop-color="#8BC53E"/>
</linearGradient>
</defs>
</svg>
