<svg width="26" height="26" viewBox="0 0 26 26" fill="none" xmlns="http://www.w3.org/2000/svg">
<g clip-path="url(#clip0_1918_8998)">
<path d="M24.785 18.7955L24.7717 18.7349C24.7626 18.6951 24.7506 18.6351 24.7318 18.5589C24.7 18.4697 24.645 18.338 24.5831 18.2023C24.5525 18.1382 24.5193 18.0683 24.4815 17.994C24.4436 17.9198 24.3964 17.8471 24.3481 17.766C24.3003 17.684 24.2432 17.6051 24.1829 17.5196C24.1233 17.4323 24.0553 17.3488 23.9827 17.2601C23.839 17.0805 23.6635 16.9098 23.4686 16.7325C23.4198 16.6875 23.3691 16.6476 23.3173 16.6038C23.2655 16.5614 23.2122 16.5157 23.1577 16.4743C23.0488 16.3934 22.9337 16.3032 22.8146 16.2254C22.7549 16.1853 22.694 16.1438 22.6312 16.104L22.4407 15.9907C22.3105 15.9118 22.1784 15.845 22.0399 15.7706C21.4903 15.4935 20.8772 15.2568 20.2339 15.0743C20.1536 15.0515 20.0724 15.0277 19.9902 15.0057L19.7445 14.9447C19.6618 14.9239 19.5789 14.9045 19.4956 14.8865L19.2436 14.831C19.0768 14.7977 18.9045 14.7615 18.7346 14.7351L18.4764 14.6927L18.2173 14.6547C18.13 14.6415 18.0433 14.6302 17.9563 14.6193C17.8688 14.6076 17.7812 14.5971 17.6934 14.5876C17.5194 14.5706 17.3413 14.5513 17.1656 14.5378L16.8995 14.5164L16.6333 14.4985C16.4547 14.4874 16.2782 14.4825 16.0987 14.475C15.5137 14.454 14.9257 14.4584 14.3412 14.4781L14.3421 14.4578C14.3497 14.2745 14.3484 14.0903 14.3513 13.9064L14.3534 13.6305L14.3472 13.3544C14.3425 13.1704 14.3387 12.9862 14.3317 12.8031C14.3247 12.6199 14.3145 12.4367 14.3087 12.2545C14.3024 12.0723 14.2884 11.8905 14.2779 11.7093C14.2357 10.9854 14.1377 10.2685 13.9725 9.58034L13.9123 9.32323C13.8899 9.23812 13.8651 9.15357 13.8416 9.06943C13.7951 8.90109 13.7438 8.73458 13.6914 8.5704L13.5252 8.08488C13.4687 7.92507 13.4043 7.76867 13.3423 7.61419C13.0989 6.99542 12.8259 6.41911 12.564 5.88595C12.4241 5.62138 12.3043 5.36326 12.1689 5.12088C12.0352 4.87815 11.9121 4.64455 11.7799 4.4264C11.6508 4.20738 11.5296 3.99897 11.4037 3.80585C11.2793 3.61232 11.1684 3.42814 11.0466 3.26254C10.9282 3.09527 10.8206 2.9413 10.7162 2.79795C10.6083 2.65357 10.5113 2.52195 10.421 2.4053C10.3757 2.34746 10.3329 2.2912 10.2926 2.24174L10.1793 2.10971L10.0004 1.90155L9.84855 1.72946C9.71748 1.58111 9.53533 1.48761 9.3384 1.46758C8.90676 1.42401 8.52153 1.7386 8.47796 2.17024L8.464 2.30882L8.45765 2.37169L8.44358 2.55303L8.42875 2.84223C8.42591 2.8991 8.42576 2.95907 8.42398 3.02367C8.42063 3.08618 8.41428 3.14966 8.40895 3.21775C8.39808 3.35304 8.39265 3.49852 8.38224 3.65615L8.37356 3.77939L8.36655 3.90746C8.36147 3.9943 8.35654 4.08373 8.35334 4.17498C8.34745 4.35739 8.33273 4.55213 8.32374 4.75307C8.31892 4.85362 8.31729 4.95534 8.30861 5.06081L8.29073 5.38012C8.27215 5.81115 8.23888 6.2726 8.17023 6.75416C8.15154 6.87477 8.1296 6.99669 8.10904 7.11897C8.08776 7.24135 8.06872 7.36409 8.04074 7.48836L7.96213 7.8615C7.95009 7.9237 7.93288 7.98652 7.91856 8.04898L7.87468 8.23662C7.84411 8.36189 7.82136 8.48656 7.78703 8.61194C7.75844 8.73686 7.72828 8.86189 7.70324 8.98645C7.64363 9.23559 7.59833 9.48416 7.55212 9.73106C7.46767 10.2257 7.40516 10.7156 7.36915 11.2047C7.33609 11.6947 7.29435 12.1796 7.27094 12.6624C7.24936 13.146 7.23296 13.6251 7.22768 14.102C7.22514 14.2207 7.22717 14.3409 7.22417 14.4589L7.21671 14.8117C7.21884 14.9309 7.21239 15.0457 7.20879 15.1614L7.20269 15.3343C7.20144 15.3912 7.19846 15.4481 7.19376 15.5049C7.17847 15.7299 7.16897 15.9556 7.14333 16.1686C7.13911 16.2073 7.13541 16.2461 7.1316 16.2848C6.99231 16.4001 6.85916 16.5201 6.73474 16.6471C6.54272 16.8409 6.36386 17.0473 6.19936 17.2649C6.04251 17.4745 5.89855 17.6935 5.76827 17.9206C5.51371 18.3611 5.32836 18.8081 5.1977 19.2098C5.16443 19.3086 5.13681 19.4102 5.11061 19.5038L5.07283 19.6399L5.04144 19.7738C5.02133 19.8599 5.00295 19.9392 4.98919 20.0174C4.97497 20.0947 4.9608 20.1616 4.95171 20.2288C4.93553 20.3304 4.92231 20.4324 4.91205 20.5348L4.90296 20.6468L4.87265 21.0187C4.83578 21.4656 5.14036 21.8781 5.59074 21.9659L5.66138 21.9797L5.86212 22.0121C6.03665 22.0389 6.28665 22.0697 6.59438 22.0964C6.90176 22.1224 7.26815 22.1461 7.67374 22.1523C8.07989 22.1595 8.52752 22.1532 9.0037 22.1287L9.36572 22.1061L9.73647 22.0741L10.5102 22.0078C11.0399 21.965 11.6002 21.941 12.1655 21.8993C12.7301 21.8541 13.3003 21.7954 13.8537 21.6708C14.4085 21.55 14.9521 21.3826 15.4858 21.1864C16.0193 20.9885 16.5489 20.7988 17.0669 20.6153C17.5837 20.4356 18.0892 20.2591 18.5706 20.1046C18.8127 20.0249 19.046 19.9555 19.276 19.8835L19.4456 19.8344L19.5302 19.8087L19.613 19.7853L19.9394 19.6934C19.992 19.678 20.0449 19.6636 20.0981 19.6503L20.2544 19.6098L20.5551 19.5389C20.7547 19.4876 20.9371 19.4581 21.1184 19.4214C21.2046 19.407 21.2966 19.3879 21.378 19.378L21.5036 19.3604C21.543 19.3571 21.5836 19.3507 21.6239 19.3455L21.6846 19.3375L21.7422 19.3319L21.8573 19.3215L22.0761 19.3093C22.3585 19.2994 22.6082 19.3199 22.8232 19.3595C22.9311 19.3786 23.0254 19.4059 23.1139 19.4296C23.1377 19.4365 23.153 19.4395 23.1708 19.4439L23.2219 19.456L23.2715 19.4674L23.2951 19.4731C23.3027 19.4749 23.31 19.476 23.3194 19.4828C23.3893 19.5256 23.4462 19.5562 23.4833 19.5776L23.5401 19.6098L23.6209 19.6556C23.7907 19.7518 23.9901 19.7817 24.1806 19.7396C24.6084 19.6459 24.8789 19.2231 24.785 18.7955Z" fill="#2BA52E"/>
<path d="M25.5629 2.81978C25.5629 2.81978 25.5567 2.9768 25.5263 3.25234C25.4975 3.5295 25.4451 3.92575 25.3542 4.40599C25.2635 4.88638 25.1355 5.45193 24.9611 6.07293C24.9165 6.2272 24.8729 6.38884 24.8216 6.5488C24.7714 6.70988 24.7216 6.87741 24.6642 7.04316C24.55 7.3914 24.4268 7.73666 24.2949 8.07859C23.7515 9.49325 22.9987 11.0249 22.0437 12.5174C21.5582 13.2782 21.0344 14.0138 20.4742 14.7213C19.9078 15.4399 19.2978 16.1352 18.6581 16.8009C18.3373 17.1328 18.0112 17.4595 17.6753 17.7736C17.3406 18.0866 16.9976 18.3906 16.6466 18.6852C15.9484 19.2718 15.2214 19.8095 14.4841 20.2959C13.7465 20.7821 12.9962 21.2148 12.2501 21.5905C11.5351 21.9514 10.8006 22.2723 10.05 22.5518C9.38374 22.8 8.70494 23.0131 8.01637 23.1902C7.38349 23.3528 6.80463 23.4674 6.31155 23.5454C5.81811 23.623 5.41282 23.6665 5.12448 23.6841C4.98397 23.6965 4.86911 23.699 4.7939 23.7028C4.75637 23.7048 4.72641 23.7047 4.70671 23.7051L4.6769 23.7056C3.68235 23.7212 2.86345 22.9276 2.84781 21.933C2.84761 21.9142 2.84761 21.8954 2.84781 21.8766L2.84827 21.8468C2.84867 21.8271 2.84862 21.7971 2.85065 21.7596C2.85446 21.6844 2.8569 21.5695 2.86934 21.429C2.88696 21.1406 2.93038 20.7354 3.00802 20.2419C3.08602 19.7488 3.20064 19.17 3.36324 18.5371C3.5403 17.8485 3.75338 17.1697 4.00161 16.5035C4.28114 15.7529 4.60206 15.0184 4.9629 14.3034C5.33863 13.5573 5.77129 12.8069 6.25746 12.0693C6.7439 11.332 7.28157 10.6051 7.86825 9.90681C8.16281 9.55581 8.46678 9.21281 8.77982 8.87819C9.09395 8.54222 9.42058 8.21615 9.75248 7.89537C10.4182 7.25568 11.1135 6.64564 11.8321 6.07923C12.5396 5.51904 13.2752 4.99521 14.036 4.50978C15.5286 3.55479 17.0602 2.80201 18.4748 2.2586C18.8168 2.12664 19.162 2.00347 19.5103 1.88922C19.676 1.83188 19.8435 1.78207 20.0046 1.73185C20.1646 1.68056 20.3262 1.63694 20.4805 1.59235C21.1015 1.41792 21.667 1.28995 22.1474 1.19925C22.6277 1.1084 23.024 1.05595 23.3011 1.02715C23.5767 0.996787 23.7336 0.990592 23.7336 0.990592C24.7056 0.952353 25.5245 1.7093 25.5627 2.68125C25.5646 2.72655 25.5644 2.77535 25.5629 2.81978Z" fill="#F8A106"/>
<path d="M19.7774 21.6585C19.7702 21.5143 19.7523 21.3668 19.7299 21.2137L19.6886 20.9822C19.6726 20.9027 19.6557 20.8235 19.6379 20.7444C19.5627 20.4241 19.4495 20.0972 19.3122 19.7655L19.2589 19.6408L19.202 19.5182L19.1428 19.394L19.0804 19.2722C19.0381 19.1904 18.9951 19.1068 18.9495 19.0269C18.9042 18.9459 18.8574 18.8627 18.8087 18.784C18.42 18.1403 17.9352 17.5289 17.398 16.9846C17.3301 16.9147 17.2632 16.8504 17.1941 16.7825C17.1249 16.7145 17.0566 16.6493 16.9853 16.5866L16.932 16.5389L16.9052 16.515L16.8918 16.5031L16.8851 16.4971C16.8937 16.4996 16.7845 16.4526 16.8286 16.4702L16.7518 16.3907L16.7326 16.3708L16.723 16.3609C16.7212 16.3591 16.7202 16.3577 16.7178 16.3557L16.7063 16.3482L16.6139 16.2885L16.4289 16.1724C16.0184 15.9069 15.5766 15.6805 15.1191 15.5066C14.6635 15.3332 14.1917 15.2061 13.7107 15.1273C13.4725 15.0914 13.2329 15.0596 12.9947 15.048C12.8753 15.0407 12.7563 15.0349 12.6375 15.0335C12.5183 15.0319 12.401 15.0353 12.2822 15.0372C11.3377 15.069 10.4273 15.2833 9.60337 15.6202C9.14062 15.8103 8.69731 16.0447 8.2796 16.3201C8.56509 15.7292 8.76675 15.0914 8.9068 14.4345C9.05203 13.7572 9.1085 13.0538 9.08255 12.3487C9.06422 11.995 9.03426 11.6429 8.97139 11.2909C8.96408 11.247 8.95773 11.2033 8.94946 11.1595L8.9229 11.0279C8.90457 10.9403 8.88801 10.8531 8.86744 10.7663C8.82413 10.591 8.78294 10.4196 8.72937 10.2467C8.52258 9.55872 8.24217 8.89506 7.893 8.26724C7.719 7.95575 7.52923 7.65333 7.32446 7.36115C7.11717 7.07012 6.89866 6.79423 6.66501 6.53296C6.60753 6.46806 6.54451 6.40336 6.48504 6.3408L6.39501 6.24782L6.30005 6.15611C6.23682 6.09522 6.17761 6.03606 6.11236 5.97797C6.04796 5.92082 5.98301 5.8643 5.91751 5.80841C5.85358 5.75341 5.78238 5.7002 5.71606 5.6485L5.61562 5.57218L5.51162 5.49803C5.442 5.44939 5.37537 5.4017 5.30534 5.35671C5.23508 5.31287 5.1643 5.26986 5.09303 5.22768C5.02488 5.18553 4.94871 5.14861 4.87792 5.11149C4.80576 5.07487 4.73664 5.03897 4.66266 5.00754C4.59159 4.97575 4.52015 4.94479 4.44836 4.91466C4.37721 4.88592 4.30378 4.86164 4.2334 4.83707C4.09411 4.78547 3.9507 4.75084 3.81623 4.7159C3.74859 4.69914 3.67994 4.68833 3.61377 4.67629C3.54709 4.66573 3.48265 4.65248 3.41816 4.64679C3.35514 4.64025 3.29197 4.63539 3.22869 4.63221L3.13714 4.62744C3.10697 4.62653 3.07711 4.62764 3.04766 4.62785C2.9886 4.62927 2.93086 4.63242 2.87485 4.63531C2.81864 4.6376 2.76461 4.64212 2.71184 4.65121L2.55828 4.67523C2.50862 4.68269 2.46043 4.69244 2.41472 4.70539C2.32805 4.72742 2.24209 4.75212 2.15696 4.77948C2.0785 4.80787 2.00598 4.84001 1.9389 4.86825C1.90513 4.88297 1.87385 4.8977 1.84201 4.91273C1.80885 4.92928 1.77716 4.94432 1.74715 4.96128C1.69253 4.99115 1.63834 5.02181 1.5846 5.05324L1.54931 5.07401L1.53245 5.08407C1.52828 5.08727 1.52458 5.09097 1.52077 5.09448L1.47755 5.13449L1.40555 5.20137L1.35385 5.25332C1.33989 5.26703 1.32943 5.2781 1.32247 5.28577L1.31191 5.29709L1.15037 5.47087C1.05826 5.56966 0.997827 5.69376 0.976851 5.8272C0.917945 6.198 1.17078 6.54636 1.54159 6.60527L1.59262 6.61339C1.64184 6.62164 1.69127 6.6286 1.74085 6.63427C1.81601 6.63934 1.85902 6.66077 1.92433 6.6786C1.93992 6.68362 1.95576 6.68713 1.97201 6.69139L2.02848 6.70846C2.06733 6.71988 2.10805 6.73364 2.1501 6.7438L2.2766 6.78976C2.29864 6.79641 2.31966 6.80728 2.34104 6.81622L2.40609 6.84353L2.43915 6.85704L2.47099 6.87426C2.49227 6.88573 2.51359 6.89772 2.53533 6.90833C2.54614 6.91361 2.55747 6.91793 2.56808 6.92392L2.59952 6.94317L2.66314 6.98064C2.68478 6.99232 2.70397 7.0101 2.72474 7.02406C2.74485 7.03965 2.76659 7.05128 2.78619 7.06834C2.82478 7.10379 2.86668 7.13162 2.90334 7.17265C2.98134 7.24323 3.05116 7.33591 3.11738 7.43636C3.18411 7.53655 3.24332 7.6573 3.29547 7.78786C3.34768 7.91979 3.39109 8.06909 3.42943 8.2259C3.46752 8.38444 3.49174 8.55882 3.51078 8.73859C3.5279 8.92084 3.53425 9.11234 3.53597 9.3083C3.53612 9.70379 3.49773 10.1223 3.44218 10.5483C3.38789 10.9734 3.31492 11.4073 3.23311 11.8367C3.22712 11.867 3.22174 11.8972 3.21615 11.9274C2.18174 15.2396 -1.16322 19.7114 0.893722 23.2363L0.772964 23.357C0.235292 23.8948 0.235292 24.7666 0.772964 25.3043C1.0418 25.5731 1.39422 25.7076 1.74659 25.7076C2.09896 25.7076 2.45134 25.5731 2.72022 25.3043L2.83275 25.1918C5.25411 26.6308 7.57709 24.9155 9.91196 23.507C9.91801 23.5034 9.92354 23.4994 9.92948 23.4957C10.4137 23.2543 10.9059 23.0291 11.405 22.8204C11.7097 22.6931 12.0088 22.5724 12.304 22.4598C12.4509 22.4017 12.5983 22.3503 12.7432 22.2953L13.176 22.141C13.3189 22.0927 13.4612 22.0393 13.6031 21.9927C13.7448 21.9444 13.8873 21.8951 14.03 21.8523C14.102 21.8289 14.1732 21.8093 14.2464 21.7867C14.3197 21.7647 14.3908 21.7503 14.4653 21.7318C14.4798 21.7258 14.4859 21.7175 14.4973 21.71L14.5131 21.6982L14.5151 21.6966C14.5168 21.6966 14.5194 21.697 14.5215 21.6971L14.5347 21.6983L14.5612 21.7008L14.6667 21.7105C14.7012 21.7243 14.6272 21.6923 14.6366 21.6956L14.6416 21.6957L14.6518 21.6961L14.6722 21.6967L14.713 21.6981C14.823 21.7013 14.9316 21.7025 15.0383 21.7075C15.4661 21.7246 15.8645 21.7639 16.2196 21.8442C16.5759 21.9229 16.8848 22.0465 17.1416 22.2158L17.2363 22.2809L17.323 22.3514C17.378 22.4001 17.4336 22.4498 17.4824 22.5028C17.5845 22.6074 17.6682 22.7219 17.7375 22.8397C17.7754 22.8976 17.8032 22.9584 17.8355 23.0169C17.8626 23.0769 17.8918 23.1356 17.9147 23.1945C17.9384 23.2535 17.9637 23.3106 17.9856 23.3678C18.008 23.4247 18.0321 23.4798 18.0488 23.5339C18.067 23.5879 18.0916 23.64 18.1071 23.6902L18.1316 23.7636L18.1582 23.8337C18.1753 23.8786 18.1866 23.9181 18.2023 23.9569C18.2168 23.996 18.2317 24.0297 18.242 24.065C18.2857 24.208 18.3179 24.286 18.3179 24.286C18.3333 24.3234 18.3567 24.3568 18.3865 24.3841C18.4162 24.4114 18.4516 24.4318 18.4901 24.4439C18.5287 24.456 18.5694 24.4595 18.6094 24.4542C18.6494 24.4488 18.6878 24.4348 18.7218 24.413L18.7811 24.3749C18.7811 24.3749 18.8673 24.3196 19.0004 24.2105C19.0803 24.1336 19.1545 24.051 19.2225 23.9634C19.3116 23.8496 19.3902 23.7279 19.4573 23.5998C19.5339 23.4564 19.5999 23.2888 19.6534 23.0973C19.679 23.0019 19.6989 22.8997 19.7192 22.7923C19.7345 22.6844 19.7545 22.5707 19.7627 22.4508C19.7892 22.2106 19.7923 21.9462 19.7774 21.6585Z" fill="#55B755"/>
<path d="M17.8165 13.1514C17.6905 13.1516 17.5657 13.1269 17.4493 13.0786C17.3329 13.0304 17.2272 12.9597 17.1382 12.8705L16.5995 12.3318C16.2249 11.9572 16.2249 11.3499 16.5994 10.9753C16.9741 10.6006 17.5814 10.6006 17.956 10.9753L18.4948 11.514C18.8694 11.8886 18.8694 12.4959 18.4948 12.8705C18.4058 12.9597 18.3001 13.0305 18.1837 13.0787C18.0673 13.1269 17.9425 13.1516 17.8165 13.1514ZM21.8375 6.4834C22.2121 6.10878 22.2121 5.50144 21.8375 5.12688L21.2987 4.58814C20.9241 4.21352 20.3168 4.21357 19.9422 4.58814C19.5676 4.96275 19.5676 5.57009 19.9422 5.94466L20.481 6.4834C20.6682 6.67068 20.9137 6.76432 21.1592 6.76432C21.4047 6.76432 21.6503 6.67073 21.8375 6.4834ZM16.663 6.5392C17.0376 6.16459 17.0376 5.55725 16.663 5.18268L16.1242 4.64395C15.7496 4.26933 15.1422 4.26938 14.7676 4.64395C14.3931 5.01856 14.3931 5.6259 14.7677 6.00047L15.3064 6.5392C15.4937 6.72648 15.7392 6.82013 15.9846 6.82013C16.2301 6.82013 16.4757 6.72654 16.663 6.5392ZM19.3877 9.07943C19.7623 8.70482 19.7623 8.09748 19.3876 7.72291L18.8489 7.18418C18.4743 6.80956 17.8669 6.80961 17.4923 7.18418C17.1178 7.55879 17.1178 8.16613 17.4924 8.5407L18.0311 9.07943C18.2184 9.26672 18.4639 9.36036 18.7094 9.36036C18.9548 9.36036 19.2004 9.26672 19.3877 9.07943ZM15.3372 9.98867C15.7118 9.61406 15.7118 9.00672 15.3372 8.63215L14.7984 8.09341C14.4238 7.7188 13.8165 7.71885 13.4419 8.09341C13.0673 8.46803 13.0673 9.07537 13.4419 9.44993L13.9807 9.98867C14.1679 10.176 14.4134 10.2696 14.6589 10.2696C14.9044 10.2696 15.1499 10.176 15.3372 9.98867ZM11.3759 11.6004C11.7505 11.2258 11.7505 10.6185 11.3759 10.2438L10.8372 9.70511C10.4626 9.3305 9.85524 9.3305 9.48063 9.70511C9.10607 10.0797 9.10607 10.6871 9.48063 11.0617L10.0194 11.6004C10.2066 11.7877 10.4522 11.8813 10.6977 11.8813C10.9431 11.8813 11.1886 11.7877 11.3759 11.6004ZM14.1007 14.1406C14.4752 13.766 14.4752 13.1586 14.1006 12.7841L13.5619 12.2453C13.1873 11.8707 12.5799 11.8708 12.2053 12.2453C11.8307 12.62 11.8308 13.2273 12.2053 13.6019L12.7441 14.1406C12.9314 14.3279 13.1768 14.4215 13.4223 14.4215C13.6678 14.4215 13.9133 14.3279 14.1007 14.1406ZM12.6125 6.09192L12.2649 5.74427C12.1194 5.85444 11.9751 5.96611 11.8319 6.07928C11.4704 6.36451 11.1162 6.65891 10.7697 6.96221L11.2559 7.44849C11.4432 7.63577 11.6888 7.72941 11.9342 7.72941C12.1797 7.72941 12.4252 7.63577 12.6125 7.44849C12.9871 7.07388 12.9871 6.46654 12.6125 6.09192ZM17.0328 2.86934C17.0725 3.04513 17.1612 3.20606 17.2886 3.33348L17.8273 3.87222C18.0146 4.0595 18.2601 4.15315 18.5056 4.15315C18.7511 4.15315 18.9965 4.0595 19.1838 3.87222C19.5584 3.49761 19.5584 2.89027 19.1838 2.51565L18.8041 2.13596C18.694 2.17615 18.5842 2.21708 18.4746 2.25875C17.9874 2.44636 17.5065 2.65 17.0328 2.86934ZM22.4452 1.67903L22.1072 1.34098C22.0669 1.30105 22.0232 1.26477 21.9765 1.23256C21.5631 1.31483 21.0934 1.42375 20.585 1.56371C20.3887 1.92715 20.4436 2.39038 20.7506 2.69745L21.0886 3.0355C21.1776 3.12472 21.2833 3.19547 21.3997 3.24369C21.5161 3.29191 21.6409 3.31664 21.7669 3.31647C22.0124 3.31647 22.2579 3.22283 22.4451 3.0356C22.8198 2.66099 22.8198 2.05365 22.4452 1.67903Z" fill="#FAC33A"/>
</g>
<defs>
<clipPath id="clip0_1918_8998">
<rect width="26" height="26" fill="white"/>
</clipPath>
</defs>
</svg>
