<svg width="39" height="39" viewBox="0 0 39 39" fill="none" xmlns="http://www.w3.org/2000/svg">
<path d="M39 19.4632C39.0199 30.2071 30.258 38.9924 19.5141 39C14.8738 39.0033 10.6115 37.3857 7.26201 34.6824C6.39104 33.9794 6.32594 32.6741 7.11741 31.8826L8.00333 30.9967C8.68024 30.3198 9.76092 30.2457 10.5109 30.8407C12.9787 32.799 16.1017 33.9678 19.5 33.9678C27.4969 33.9678 33.9677 27.4958 33.9677 19.5C33.9677 11.5031 27.4957 5.03227 19.5 5.03227C15.6618 5.03227 12.1758 6.52378 9.58739 8.95838L13.5781 12.9491C14.3707 13.7417 13.8094 15.0968 12.6886 15.0968H1.25806C0.563219 15.0968 0 14.5336 0 13.8387L7.02733 10.5563C7.02733 9.4355 1.35509 0.726062 2.14767 1.51857L6.02974 5.40065C9.53054 2.05505 14.2752 0 19.5 0C30.2572 0 38.9801 8.71054 39 19.4632ZM24.775 25.6579L25.5474 24.6648C26.1873 23.8421 26.0391 22.6564 25.2164 22.0166L22.0161 19.5275V11.3226C22.0161 10.2804 21.1712 9.4355 20.129 9.4355H18.871C17.8287 9.4355 16.9839 10.2804 16.9839 11.3226V21.9887L22.1269 25.9889C22.9496 26.6287 24.1352 26.4806 24.775 25.6579Z" fill="#F5F5F5" fill-opacity="0.9"/>
</svg>
