<svg width="37" height="37" viewBox="0 0 37 37" fill="none" xmlns="http://www.w3.org/2000/svg">
<path d="M2 28.2662L8.36811 22.9862L12.6224 26.5627L20.7386 18.9014L25.8492 22.9238L35 14.9771" stroke="#F5F5F5" stroke-width="2.67568" stroke-linecap="round" stroke-linejoin="round"/>
<path d="M33.2162 35H3.78378C3.31069 35 2.85698 34.8121 2.52246 34.4775C2.18793 34.143 2 33.6893 2 33.2162V3.78378C2 3.31069 2.18793 2.85698 2.52246 2.52246C2.85698 2.18793 3.31069 2 3.78378 2H33.2162C33.6893 2 34.143 2.18793 34.4775 2.52246C34.8121 2.85698 35 3.31069 35 3.78378V33.2162C35 33.6893 34.8121 34.143 34.4775 34.4775C34.143 34.8121 33.6893 35 33.2162 35Z" stroke="#F5F5F5" stroke-width="2.67568" stroke-linecap="round" stroke-linejoin="round"/>
</svg>
