<svg width="66" height="66" viewBox="0 0 66 66" fill="none" xmlns="http://www.w3.org/2000/svg">
<circle cx="33" cy="33" r="33" fill="white"/>
<path d="M17 43.2662L23.3681 37.9862L27.6224 41.5627L35.7386 33.9014L40.8492 37.9238L50 29.9771" stroke="#8BC53E" stroke-width="2.67568" stroke-linecap="round" stroke-linejoin="round"/>
<path d="M48.2162 50H18.7838C18.3107 50 17.857 49.8121 17.5225 49.4775C17.1879 49.143 17 48.6893 17 48.2162V18.7838C17 18.3107 17.1879 17.857 17.5225 17.5225C17.857 17.1879 18.3107 17 18.7838 17H48.2162C48.6893 17 49.143 17.1879 49.4775 17.5225C49.8121 17.857 50 18.3107 50 18.7838V48.2162C50 48.6893 49.8121 49.143 49.4775 49.4775C49.143 49.8121 48.6893 50 48.2162 50Z" stroke="#8BC53E" stroke-width="2.67568" stroke-linecap="round" stroke-linejoin="round"/>
</svg>
