<svg width="56" height="48" viewBox="0 0 56 48" fill="none" xmlns="http://www.w3.org/2000/svg">
<path d="M12.6411 34.4375H1.20605V43.3608H12.6411V34.4375Z" fill="#F0F3F4"/>
<path d="M26.5883 23.1343H15.1533V43.3604H26.5883V23.1343Z" fill="#F0F3F4"/>
<path d="M40.5351 0H29.1001V43.3937H40.5351V0Z" fill="#F0F3F4"/>
<path d="M54.4805 13.1538H43.0454V43.3939H54.4805V13.1538Z" fill="#F0F3F4"/>
<path d="M54.482 47.492H1.2067C0.95413 47.4475 0.725316 47.3154 0.560448 47.119C0.39558 46.9226 0.305176 46.6743 0.305176 46.4179C0.305176 46.1614 0.39558 45.9132 0.560448 45.7167C0.725316 45.5203 0.95413 45.3882 1.2067 45.3438H54.482C54.7346 45.3882 54.9634 45.5203 55.1283 45.7167C55.2932 45.9132 55.3835 46.1614 55.3835 46.4179C55.3835 46.6743 55.2932 46.9226 55.1283 47.119C54.9634 47.3154 54.7346 47.4475 54.482 47.492Z" fill="#F0F3F4"/>
</svg>
