<svg width="41" height="32" viewBox="0 0 41 32" fill="none" xmlns="http://www.w3.org/2000/svg">
<path d="M24.5348 21.0686H22.4766C22.4766 23.911 25.2407 26.2141 28.6511 26.2141C30.45 26.2141 32.0698 25.573 33.1987 24.549L31.2681 23.4468C30.6013 23.8739 29.7224 24.1569 28.6511 24.1569C26.0105 24.1569 24.5348 22.4383 24.5348 21.0696V21.0686Z" fill="#F5F5F5"/>
<path fill-rule="evenodd" clip-rule="evenodd" d="M15.7521 4.47531C16.4056 3.89901 16.9428 3.12101 17.128 2.37801C17.233 1.95608 17.2824 1.28819 16.8162 0.748945C16.3397 0.19632 15.6348 0.135603 15.0801 0.205582C14.7236 0.250318 14.365 0.276424 14.0057 0.283793C13.6867 0.294084 13.306 0.307462 12.8861 0.443303C12.4487 0.585319 12.035 0.83436 11.54 1.19969C11.2167 1.43693 10.9116 1.69802 10.6272 1.98077C8.95082 0.787021 6.7928 0.32084 3.40604 0.486525C2.99664 0.490619 2.60564 0.657179 2.31904 0.949564C2.03245 1.24195 1.87374 1.63621 1.87783 2.04561C1.88193 2.45501 2.04849 2.84601 2.34087 3.13261C2.63326 3.4192 3.02752 3.57791 3.43692 3.57382H4.91676C5.00526 3.63453 5.08965 3.69319 5.16889 3.74979L2.83284 6.67243C2.37731 6.7101 1.93584 6.84845 1.54028 7.07749C1.14473 7.30653 0.804967 7.62054 0.545526 7.99685C0.286085 8.37316 0.113439 8.80239 0.0400523 9.25354C-0.0333343 9.70469 -0.00563018 10.1665 0.121165 10.6056L0.419603 11.6347C0.60534 12.2774 0.99477 12.8423 1.52928 13.2445C2.0638 13.6466 2.71448 13.8643 3.3834 13.8648H6.59625C6.8202 13.8647 7.03807 13.9377 7.21679 14.0727L9.21633 15.5834C9.39127 15.7151 9.57445 15.8252 9.76381 15.9158C10.9545 19.1369 12.2357 21.8804 13.6867 23.7081L14.016 27.6701C13.6753 27.9323 13.4253 28.2946 13.301 28.7062C13.1767 29.1177 13.1844 29.5579 13.323 29.9648C13.4616 30.3718 13.7241 30.7251 14.0738 30.9752C14.4234 31.2254 14.8427 31.3597 15.2726 31.3594H18.3599C18.6328 31.3594 18.8945 31.251 19.0875 31.058C19.2805 30.865 19.389 30.6033 19.389 30.3303V22.0976H27.0166C28.4172 23.4004 30.0391 24.4768 32.3216 25.0109L32.5429 27.6691C32.202 27.931 31.9516 28.2931 31.827 28.7045C31.7023 29.116 31.7097 29.5561 31.8479 29.9632C31.9862 30.3703 32.2484 30.7238 32.5979 30.9742C32.9473 31.2246 33.3664 31.3594 33.7963 31.3594H36.8836C37.1565 31.3594 37.4183 31.251 37.6113 31.058C37.8043 30.865 37.9127 30.6033 37.9127 30.3303V12.8357C37.9127 9.83073 37.1203 7.73652 35.8164 6.39354C34.5126 5.0516 32.8372 4.60291 31.3625 4.60291H17.8453C17.0735 4.60291 16.3809 4.55558 15.7521 4.47428V4.47531ZM7.18798 2.72893C7.22914 2.76392 7.26722 2.79891 7.30529 2.8339C7.49828 3.01003 7.61705 3.25299 7.6375 3.51347C7.65795 3.77395 7.57855 4.03246 7.41541 4.23656L4.13876 8.33236C4.04241 8.45303 3.92013 8.55046 3.781 8.61744C3.64187 8.68442 3.48945 8.71924 3.33504 8.7193H3.08805C2.92843 8.71924 2.77099 8.7563 2.62816 8.82756C2.48534 8.89883 2.36105 9.00234 2.26512 9.12991C2.16919 9.25749 2.10425 9.40563 2.07543 9.56262C2.04662 9.71962 2.05472 9.88116 2.09909 10.0345L2.39547 11.0636C2.45749 11.2779 2.58748 11.4663 2.76586 11.6003C2.94423 11.7343 3.16133 11.8067 3.38443 11.8066H6.59727C7.2688 11.8066 7.92201 12.0255 8.45788 12.4302L10.4574 13.9409C10.5789 14.0315 10.7023 14.0891 10.8248 14.12C10.987 14.1617 11.1365 14.2424 11.2604 14.355C11.3843 14.4677 11.4789 14.6088 11.5359 14.7663C12.8202 18.3125 14.1189 21.0376 15.4732 22.6399C15.6111 22.8035 15.6946 23.006 15.712 23.2193L16.1277 28.2001C16.1494 28.4575 16.0735 28.7136 15.915 28.9176C15.7566 29.1216 15.5273 29.2585 15.2726 29.3013H17.3308V21.0685C17.3308 20.7955 17.4392 20.5338 17.6322 20.3408C17.8252 20.1478 18.0869 20.0394 18.3599 20.0394H27.4262C27.6946 20.0394 27.9523 20.1443 28.1445 20.3316C29.5647 21.7137 31.0898 22.7438 33.4526 23.1411C33.6779 23.1791 33.8842 23.2911 34.0389 23.4594C34.1935 23.6276 34.2878 23.8426 34.3067 24.0703L34.6515 28.2011C34.6729 28.4583 34.5968 28.7142 34.4384 28.9179C34.28 29.1217 34.0508 29.2585 33.7963 29.3013H35.8545V12.8357C35.8545 10.1806 35.1588 8.67197 34.3397 7.82811C33.5205 6.98425 32.4358 6.66111 31.3625 6.66111H17.8453C15.4887 6.66111 13.7598 6.26696 12.3149 5.77403C12.102 5.7014 11.9187 5.56098 11.7931 5.37426C11.6676 5.18755 11.6067 4.96483 11.6198 4.74021C11.6328 4.51559 11.7192 4.30145 11.8655 4.13056C12.0119 3.95968 12.2103 3.84147 12.4302 3.79404C13.1331 3.64277 13.7989 3.38138 14.2054 3.08191C14.4957 2.86496 14.7443 2.59719 14.9391 2.29156C14.6037 2.32243 14.3381 2.3317 14.1241 2.3389H14.121C13.7505 2.35228 13.6425 2.36154 13.521 2.40065C13.3975 2.44181 13.1928 2.53855 12.7605 2.85654C12.2336 3.24451 11.8385 3.65717 11.6079 3.9978C11.524 4.12095 11.4144 4.22441 11.2866 4.30102C11.1588 4.37763 11.0158 4.42557 10.8677 4.44152C10.7195 4.45747 10.5696 4.44105 10.4284 4.3934C10.2873 4.34576 10.1581 4.26801 10.0499 4.16555C9.33879 3.49355 8.4939 2.99444 7.18901 2.72893H7.18798Z" fill="#F5F5F5"/>
<path d="M41.0001 17.9813C41.0001 19.1184 40.5391 20.0395 39.971 20.0395C39.4029 20.0395 38.9419 19.1184 38.9419 17.9813C38.9419 16.8441 39.4029 15.9231 39.971 15.9231C40.5391 15.9231 41.0001 16.8441 41.0001 17.9813Z" fill="#F5F5F5"/>
<path fill-rule="evenodd" clip-rule="evenodd" d="M29.1655 6.66122V4.60303C29.2221 4.60303 34.452 4.60303 34.5302 4.60509C36.6059 4.64007 38.2926 5.05583 39.4421 6.16005C40.606 7.27868 41.0001 8.89025 41.0001 10.7776H38.942C38.942 9.12282 38.589 8.19561 38.0158 7.64504C37.4271 7.07904 36.3857 6.69518 34.4963 6.66328H34.2657L29.1655 6.66122Z" fill="#F5F5F5"/>
<path d="M38.9419 10.7776H41.0001L40.4855 17.9813H39.4564L38.9419 10.7776Z" fill="#F5F5F5"/>
<path fill-rule="evenodd" clip-rule="evenodd" d="M21.7825 22.5946L23.5814 21.8598L24.3604 23.7637L22.5626 24.5005L21.7825 22.5946ZM24.4067 26.0678L25.4965 24.0405L27.3098 25.0161L26.2189 27.0434L24.4077 26.0678H24.4067ZM29.0973 27.3604L28.66 25.1005L30.6811 24.7094L31.1174 26.9693L29.0973 27.3604ZM26.928 20.3316C26.8232 20.4238 26.7391 20.5371 26.6813 20.6641C26.6235 20.7911 26.5932 20.9289 26.5925 21.0685H28.6507C28.6507 21.2372 28.6075 21.5943 28.2905 21.8742C28.1792 21.9719 28.0488 22.0455 27.9077 22.0903C27.7665 22.1351 27.6176 22.1502 27.4703 22.1346C27.2731 22.1105 27.0835 22.0438 26.9146 21.9391L26.9115 21.937C26.6902 21.7959 26.4803 21.6376 26.2838 21.4636C25.7296 20.9785 25.1941 20.4725 24.6784 19.9467C23.5155 18.7767 22.1643 17.2989 21.624 16.4993L23.3282 15.3467C23.747 15.9652 24.9686 17.3184 26.1376 18.4957C26.6139 18.9817 27.1082 19.4495 27.6195 19.8984C27.8079 20.0579 27.918 20.1382 27.9602 20.1659C27.8715 20.1235 27.7761 20.0971 27.6782 20.0877C27.5431 20.0746 27.4068 20.0895 27.2777 20.1315C27.1486 20.1734 27.0295 20.2416 26.928 20.3316Z" fill="#F5F5F5"/>
</svg>
