<svg width="66" height="66" viewBox="0 0 66 66" fill="none" xmlns="http://www.w3.org/2000/svg">
<circle cx="33" cy="33" r="33" fill="white"/>
<path d="M37.5348 37.8865H35.4766C35.4766 40.7288 38.2407 43.032 41.6511 43.032C43.45 43.032 45.0698 42.3908 46.1987 41.3669L44.2681 40.2647C43.6013 40.6918 42.7224 40.9748 41.6511 40.9748C39.0105 40.9748 37.5348 39.2562 37.5348 37.8875V37.8865Z" fill="#8BC53E"/>
<path fill-rule="evenodd" clip-rule="evenodd" d="M28.7521 21.2932C29.4056 20.7169 29.9428 19.9389 30.128 19.1959C30.233 18.7739 30.2824 18.1061 29.8162 17.5668C29.3397 17.0142 28.6348 16.9535 28.0801 17.0235C27.7236 17.0682 27.365 17.0943 27.0057 17.1017C26.6867 17.112 26.306 17.1253 25.8861 17.2612C25.4487 17.4032 25.035 17.6522 24.54 18.0176C24.2167 18.2548 23.9116 18.5159 23.6272 18.7986C21.9508 17.6049 19.7928 17.1387 16.406 17.3044C15.9966 17.3085 15.6056 17.4751 15.319 17.7674C15.0324 18.0598 14.8737 18.4541 14.8778 18.8635C14.8819 19.2729 15.0485 19.6639 15.3409 19.9505C15.6333 20.2371 16.0275 20.3958 16.4369 20.3917H17.9168C18.0053 20.4524 18.0896 20.5111 18.1689 20.5677L15.8328 23.4903C15.3773 23.528 14.9358 23.6663 14.5403 23.8954C14.1447 24.1244 13.805 24.4384 13.5455 24.8147C13.2861 25.191 13.1134 25.6203 13.0401 26.0714C12.9667 26.5226 12.9944 26.9844 13.1212 27.4235L13.4196 28.4526C13.6053 29.0952 13.9948 29.6601 14.5293 30.0623C15.0638 30.4645 15.7145 30.6822 16.3834 30.6827H19.5962C19.8202 30.6826 20.0381 30.7556 20.2168 30.8905L22.2163 32.4013C22.3913 32.533 22.5745 32.6431 22.7638 32.7337C23.9545 35.9547 25.2357 38.6983 26.6867 40.526L27.016 44.488C26.6753 44.7502 26.4253 45.1125 26.301 45.524C26.1767 45.9356 26.1844 46.3757 26.323 46.7827C26.4616 47.1896 26.7241 47.543 27.0738 47.7931C27.4234 48.0432 27.8427 48.1776 28.2726 48.1773H31.3599C31.6328 48.1773 31.8945 48.0689 32.0875 47.8759C32.2805 47.6829 32.389 47.4212 32.389 47.1482V38.9154H40.0166C41.4172 40.2183 43.0391 41.2947 45.3216 41.8288L45.5429 44.487C45.202 44.7489 44.9516 45.111 44.827 45.5224C44.7023 45.9338 44.7097 46.374 44.8479 46.7811C44.9862 47.1881 45.2484 47.5417 45.5979 47.7921C45.9473 48.0425 46.3664 48.1772 46.7963 48.1773H49.8836C50.1565 48.1773 50.4183 48.0689 50.6113 47.8759C50.8043 47.6829 50.9127 47.4212 50.9127 47.1482V29.6536C50.9127 26.6486 50.1203 24.5544 48.8164 23.2114C47.5126 21.8695 45.8372 21.4208 44.3625 21.4208H30.8453C30.0735 21.4208 29.3809 21.3734 28.7521 21.2921V21.2932ZM20.188 19.5468C20.2291 19.5818 20.2672 19.6168 20.3053 19.6518C20.4983 19.8279 20.617 20.0709 20.6375 20.3313C20.6579 20.5918 20.5785 20.8503 20.4154 21.0544L17.1388 25.1502C17.0424 25.2709 16.9201 25.3683 16.781 25.4353C16.6419 25.5023 16.4895 25.5371 16.335 25.5372H16.0881C15.9284 25.5371 15.771 25.5742 15.6282 25.6454C15.4853 25.7167 15.361 25.8202 15.2651 25.9478C15.1692 26.0754 15.1042 26.2235 15.0754 26.3805C15.0466 26.5375 15.0547 26.699 15.0991 26.8524L15.3955 27.8815C15.4575 28.0958 15.5875 28.2841 15.7659 28.4181C15.9442 28.5521 16.1613 28.6246 16.3844 28.6245H19.5973C20.2688 28.6245 20.922 28.8434 21.4579 29.2481L23.4574 30.7588C23.5789 30.8494 23.7023 30.907 23.8248 30.9379C23.987 30.9796 24.1365 31.0603 24.2604 31.1729C24.3843 31.2855 24.4789 31.4267 24.5359 31.5842C25.8202 35.1304 27.1189 37.8555 28.4732 39.4578C28.6111 39.6214 28.6946 39.8239 28.712 40.0372L29.1277 45.018C29.1494 45.2754 29.0735 45.5315 28.915 45.7354C28.7566 45.9394 28.5273 46.0764 28.2726 46.1191H30.3308V37.8863C30.3308 37.6134 30.4392 37.3517 30.6322 37.1587C30.8252 36.9657 31.0869 36.8572 31.3599 36.8572H40.4262C40.6946 36.8573 40.9523 36.9621 41.1445 37.1495C42.5647 38.5316 44.0898 39.5617 46.4526 39.9589C46.6779 39.997 46.8842 40.109 47.0389 40.2773C47.1935 40.4455 47.2878 40.6605 47.3067 40.8882L47.6515 45.019C47.6729 45.2762 47.5968 45.5321 47.4384 45.7358C47.28 45.9396 47.0508 46.0764 46.7963 46.1191H48.8545V29.6536C48.8545 26.9985 48.1588 25.4898 47.3397 24.646C46.5205 23.8021 45.4358 23.479 44.3625 23.479H30.8453C28.4887 23.479 26.7598 23.0848 25.3149 22.5919C25.102 22.5193 24.9187 22.3788 24.7931 22.1921C24.6676 22.0054 24.6067 21.7827 24.6198 21.5581C24.6328 21.3335 24.7192 21.1193 24.8655 20.9484C25.0119 20.7775 25.2103 20.6593 25.4302 20.6119C26.1331 20.4606 26.7989 20.1992 27.2054 19.8998C27.4957 19.6828 27.7443 19.4151 27.9391 19.1094C27.6037 19.1403 27.3381 19.1496 27.1241 19.1568H27.121C26.7505 19.1701 26.6425 19.1794 26.521 19.2185C26.3975 19.2597 26.1928 19.3564 25.7605 19.6744C25.2336 20.0624 24.8385 20.475 24.6079 20.8157C24.524 20.9388 24.4144 21.0423 24.2866 21.1189C24.1588 21.1955 24.0158 21.2434 23.8677 21.2594C23.7195 21.2753 23.5696 21.2589 23.4284 21.2113C23.2873 21.1636 23.1581 21.0859 23.0499 20.9834C22.3388 20.3114 21.4939 19.8123 20.189 19.5468H20.188Z" fill="#8BC53E"/>
<path d="M54.0001 34.7992C54.0001 35.9363 53.5391 36.8574 52.971 36.8574C52.4029 36.8574 51.9419 35.9363 51.9419 34.7992C51.9419 33.662 52.4029 32.741 52.971 32.741C53.5391 32.741 54.0001 33.662 54.0001 34.7992Z" fill="#8BC53E"/>
<path fill-rule="evenodd" clip-rule="evenodd" d="M42.1655 23.4791V21.4209C42.2221 21.4209 47.452 21.4209 47.5302 21.423C49.6059 21.4579 51.2926 21.8737 52.4421 22.9779C53.606 24.0966 54.0001 25.7081 54.0001 27.5955H51.942C51.942 25.9407 51.589 25.0135 51.0158 24.4629C50.4271 23.8969 49.3857 23.5131 47.4963 23.4812H47.2657L42.1655 23.4791Z" fill="#8BC53E"/>
<path d="M51.9419 27.5955H54.0001L53.4855 34.7991H52.4564L51.9419 27.5955Z" fill="#8BC53E"/>
<path fill-rule="evenodd" clip-rule="evenodd" d="M34.7825 39.4125L36.5814 38.6777L37.3604 40.5815L35.5626 41.3184L34.7825 39.4125ZM37.4067 42.8857L38.4965 40.8584L40.3098 41.8339L39.2189 43.8613L37.4077 42.8857H37.4067ZM42.0973 44.1782L41.66 41.9183L43.6811 41.5273L44.1174 43.7872L42.0973 44.1782ZM39.928 37.1495C39.8232 37.2417 39.7391 37.355 39.6813 37.482C39.6235 37.609 39.5932 37.7468 39.5925 37.8863H41.6507C41.6507 38.0551 41.6075 38.4122 41.2905 38.6921C41.1792 38.7898 41.0488 38.8634 40.9077 38.9082C40.7665 38.953 40.6176 38.9681 40.4703 38.9525C40.2731 38.9284 40.0835 38.8617 39.9146 38.7569L39.9115 38.7549C39.6902 38.6138 39.4803 38.4555 39.2838 38.2815C38.7296 37.7964 38.1941 37.2904 37.6784 36.7646C36.5155 35.5945 35.1643 34.1167 34.624 33.3171L36.3282 32.1646C36.747 32.783 37.9686 34.1363 39.1376 35.3136C39.6139 35.7995 40.1082 36.2674 40.6195 36.7162C40.8079 36.8758 40.918 36.956 40.9602 36.9838C40.8715 36.9414 40.7761 36.9149 40.6782 36.9056C40.5431 36.8925 40.4068 36.9074 40.2777 36.9493C40.1486 36.9913 40.0295 37.0594 39.928 37.1495Z" fill="#8BC53E"/>
</svg>
