<svg width="39" height="36" viewBox="0 0 39 36" fill="none" xmlns="http://www.w3.org/2000/svg">
<path d="M0 17.5502L9.74903 25.3494V19.5H27.2973V15.6004H9.74903V9.75098L0 17.5502Z" fill="#F5F5F5"/>
<path d="M21.4496 6.69976e-05C19.144 -0.00632582 16.86 0.444838 14.7301 1.32742C12.6001 2.21001 10.6664 3.50647 9.04102 5.14171L11.798 7.89873C14.3757 5.32109 17.8034 3.89968 21.4496 3.89968C25.0957 3.89968 28.5235 5.32109 31.1011 7.89873C33.6788 10.4764 35.1002 13.9041 35.1002 17.5503C35.1002 21.1964 33.6788 24.6242 31.1011 27.2018C28.5235 29.7795 25.0957 31.2009 21.4496 31.2009C17.8034 31.2009 14.3757 29.7795 11.798 27.2018L9.04102 29.9588C12.3537 33.2735 16.7603 35.1005 21.4496 35.1005C26.1389 35.1005 30.5454 33.2735 33.8581 29.9588C37.1728 26.6461 38.9998 22.2396 38.9998 17.5503C38.9998 12.861 37.1728 8.45442 33.8581 5.14171C32.2328 3.50647 30.2991 2.21001 28.1691 1.32742C26.0391 0.444838 23.7552 -0.00632582 21.4496 6.69976e-05Z" fill="#F5F5F5"/>
</svg>
