<svg width="50" height="49" viewBox="0 0 50 49" fill="none" xmlns="http://www.w3.org/2000/svg">
<path d="M25 34.4138L11.8571 21.4483M25 49V23.069V49ZM25 24.6897V34.4138V24.6897ZM25 24.6897C25 21.251 23.6153 17.9532 21.1505 15.5216C18.6858 13.0901 15.3428 11.7241 11.8571 11.7241H2V21.4483C2 24.8869 3.38469 28.1848 5.84945 30.6163C8.31422 33.0478 11.6572 34.4138 15.1429 34.4138H25V24.6897ZM25 24.6897H34.8571C38.3428 24.6897 41.6858 23.3236 44.1505 20.8921C46.6153 18.4606 48 15.1628 48 11.7241V2H38.1429C34.6572 2 31.3142 3.36601 28.8495 5.79751C26.3847 8.22902 25 11.5268 25 14.9655V24.6897ZM25 24.6897L38.1429 11.7241L25 24.6897Z" stroke="white" stroke-width="3"/>
</svg>
