<svg width="36" height="35" viewBox="0 0 36 35" fill="none" xmlns="http://www.w3.org/2000/svg">
<path d="M6.6825 1.15688C6.89374 0.909913 7.15598 0.711634 7.45118 0.57569C7.74637 0.439746 8.06751 0.369363 8.3925 0.369385H27.6075C27.9325 0.369363 28.2536 0.439746 28.5488 0.57569C28.844 0.711634 29.1063 0.909913 29.3175 1.15688L35.1878 8.00589C35.7119 8.61751 36 9.39641 36 10.2019V10.7756C36.0001 11.8893 35.6523 12.9752 35.0051 13.8816C34.3579 14.7879 33.4437 15.4694 32.3903 15.8308C31.3368 16.1922 30.1968 16.2154 29.1295 15.8972C28.0623 15.5791 27.1211 14.9354 26.4375 14.0561C25.9383 14.6991 25.2986 15.2193 24.5674 15.577C23.8361 15.9346 23.0328 16.1201 22.2188 16.1194C21.4047 16.1203 20.6013 15.9348 19.87 15.5772C19.1387 15.2195 18.4991 14.6992 18 14.0561C17.5009 14.6992 16.8613 15.2195 16.13 15.5772C15.3987 15.9348 14.5953 16.1203 13.7812 16.1194C12.9672 16.1203 12.1638 15.9348 11.4325 15.5772C10.7012 15.2195 10.0616 14.6992 9.5625 14.0561C8.87893 14.9354 7.93774 15.5791 6.87046 15.8972C5.80318 16.2154 4.66316 16.1922 3.60973 15.8308C2.5563 15.4694 1.6421 14.7879 0.99491 13.8816C0.347719 12.9752 -0.000122847 11.8893 3.25452e-08 10.7756V10.2019C2.8367e-05 9.39641 0.288127 8.61751 0.81225 8.00589L6.68475 1.15463L6.6825 1.15688ZM10.6875 10.7756C10.6875 11.5961 11.0134 12.3831 11.5936 12.9632C12.1738 13.5434 12.9607 13.8694 13.7812 13.8694C14.6018 13.8694 15.3887 13.5434 15.9689 12.9632C16.5491 12.3831 16.875 11.5961 16.875 10.7756C16.875 10.4773 16.9935 10.1911 17.2045 9.98014C17.4155 9.76916 17.7016 9.65063 18 9.65063C18.2984 9.65063 18.5845 9.76916 18.7955 9.98014C19.0065 10.1911 19.125 10.4773 19.125 10.7756C19.125 11.5961 19.4509 12.3831 20.0311 12.9632C20.6113 13.5434 21.3982 13.8694 22.2188 13.8694C23.0393 13.8694 23.8262 13.5434 24.4064 12.9632C24.9866 12.3831 25.3125 11.5961 25.3125 10.7756C25.3125 10.4773 25.431 10.1911 25.642 9.98014C25.853 9.76916 26.1391 9.65063 26.4375 9.65063C26.7359 9.65063 27.022 9.76916 27.233 9.98014C27.444 10.1911 27.5625 10.4773 27.5625 10.7756C27.5625 11.5961 27.8884 12.3831 28.4686 12.9632C29.0488 13.5434 29.8357 13.8694 30.6562 13.8694C31.4768 13.8694 32.2637 13.5434 32.8439 12.9632C33.4241 12.3831 33.75 11.5961 33.75 10.7756V10.2019C33.75 9.93375 33.6543 9.67442 33.48 9.47063L27.6075 2.61938H8.3925L2.52 9.47063C2.34573 9.67442 2.24998 9.93375 2.25 10.2019V10.7756C2.25 11.5961 2.57595 12.3831 3.15614 12.9632C3.73633 13.5434 4.52324 13.8694 5.34375 13.8694C6.16426 13.8694 6.95117 13.5434 7.53136 12.9632C8.11155 12.3831 8.4375 11.5961 8.4375 10.7756C8.4375 10.4773 8.55603 10.1911 8.767 9.98014C8.97798 9.76916 9.26413 9.65063 9.5625 9.65063C9.86087 9.65063 10.147 9.76916 10.358 9.98014C10.569 10.1911 10.6875 10.4773 10.6875 10.7756ZM3.375 17.2444C3.67337 17.2444 3.95952 17.3629 4.1705 17.5739C4.38147 17.7849 4.5 18.071 4.5 18.3694V31.8694H6.75V20.6194C6.75 20.0226 6.98705 19.4504 7.40901 19.0284C7.83097 18.6064 8.40326 18.3694 9 18.3694H15.75C16.3467 18.3694 16.919 18.6064 17.341 19.0284C17.7629 19.4504 18 20.0226 18 20.6194V31.8694H31.5V18.3694C31.5 18.071 31.6185 17.7849 31.8295 17.5739C32.0405 17.3629 32.3266 17.2444 32.625 17.2444C32.9234 17.2444 33.2095 17.3629 33.4205 17.5739C33.6315 17.7849 33.75 18.071 33.75 18.3694V31.8694H34.875C35.1734 31.8694 35.4595 31.9879 35.6705 32.1989C35.8815 32.4099 36 32.696 36 32.9944C36 33.2928 35.8815 33.5789 35.6705 33.7899C35.4595 34.0009 35.1734 34.1194 34.875 34.1194H1.125C0.826631 34.1194 0.540483 34.0009 0.329505 33.7899C0.118526 33.5789 3.25452e-08 33.2928 3.25452e-08 32.9944C3.25452e-08 32.696 0.118526 32.4099 0.329505 32.1989C0.540483 31.9879 0.826631 31.8694 1.125 31.8694H2.25V18.3694C2.25 18.071 2.36853 17.7849 2.5795 17.5739C2.79048 17.3629 3.07663 17.2444 3.375 17.2444ZM9 31.8694H15.75V20.6194H9V31.8694ZM20.25 20.6194C20.25 20.0226 20.4871 19.4504 20.909 19.0284C21.331 18.6064 21.9033 18.3694 22.5 18.3694H27C27.5967 18.3694 28.169 18.6064 28.591 19.0284C29.0129 19.4504 29.25 20.0226 29.25 20.6194V27.3694C29.25 27.9661 29.0129 28.5384 28.591 28.9604C28.169 29.3823 27.5967 29.6194 27 29.6194H22.5C21.9033 29.6194 21.331 29.3823 20.909 28.9604C20.4871 28.5384 20.25 27.9661 20.25 27.3694V20.6194ZM27 20.6194H22.5V27.3694H27V20.6194Z" fill="#F5F5F5"/>
</svg>
