<svg width="66" height="66" viewBox="0 0 66 66" fill="none" xmlns="http://www.w3.org/2000/svg">
<circle cx="33" cy="33" r="33" fill="white"/>
<path d="M21.6825 16.7875C21.8937 16.5405 22.156 16.3422 22.4512 16.2063C22.7464 16.0704 23.0675 16 23.3925 16H42.6075C42.9325 16 43.2536 16.0704 43.5488 16.2063C43.844 16.3422 44.1063 16.5405 44.3175 16.7875L50.1878 23.6365C50.7119 24.2481 51 25.027 51 25.8325V26.4062C51.0001 27.5199 50.6523 28.6059 50.0051 29.5122C49.3579 30.4185 48.4437 31.1 47.3903 31.4614C46.3368 31.8228 45.1968 31.846 44.1295 31.5279C43.0623 31.2097 42.1211 30.566 41.4375 29.6868C40.9383 30.3297 40.2986 30.8499 39.5674 31.2076C38.8361 31.5652 38.0328 31.7507 37.2188 31.75C36.4047 31.7509 35.6013 31.5654 34.87 31.2078C34.1387 30.8502 33.4991 30.3299 33 29.6868C32.5009 30.3299 31.8613 30.8502 31.13 31.2078C30.3987 31.5654 29.5953 31.7509 28.7812 31.75C27.9672 31.7509 27.1638 31.5654 26.4325 31.2078C25.7012 30.8502 25.0616 30.3299 24.5625 29.6868C23.8789 30.566 22.9377 31.2097 21.8705 31.5279C20.8032 31.846 19.6632 31.8228 18.6097 31.4614C17.5563 31.1 16.6421 30.4185 15.9949 29.5122C15.3477 28.6059 14.9999 27.5199 15 26.4062V25.8325C15 25.027 15.2881 24.2481 15.8123 23.6365L21.6848 16.7852L21.6825 16.7875ZM25.6875 26.4062C25.6875 27.2268 26.0134 28.0137 26.5936 28.5939C27.1738 29.1741 27.9607 29.5 28.7812 29.5C29.6018 29.5 30.3887 29.1741 30.9689 28.5939C31.5491 28.0137 31.875 27.2268 31.875 26.4062C31.875 26.1079 31.9935 25.8217 32.2045 25.6108C32.4155 25.3998 32.7016 25.2812 33 25.2812C33.2984 25.2812 33.5845 25.3998 33.7955 25.6108C34.0065 25.8217 34.125 26.1079 34.125 26.4062C34.125 27.2268 34.4509 28.0137 35.0311 28.5939C35.6113 29.1741 36.3982 29.5 37.2188 29.5C38.0393 29.5 38.8262 29.1741 39.4064 28.5939C39.9866 28.0137 40.3125 27.2268 40.3125 26.4062C40.3125 26.1079 40.431 25.8217 40.642 25.6108C40.853 25.3998 41.1391 25.2812 41.4375 25.2812C41.7359 25.2812 42.022 25.3998 42.233 25.6108C42.444 25.8217 42.5625 26.1079 42.5625 26.4062C42.5625 27.2268 42.8884 28.0137 43.4686 28.5939C44.0488 29.1741 44.8357 29.5 45.6562 29.5C46.4768 29.5 47.2637 29.1741 47.8439 28.5939C48.4241 28.0137 48.75 27.2268 48.75 26.4062V25.8325C48.75 25.5644 48.6543 25.305 48.48 25.1012L42.6075 18.25H23.3925L17.52 25.1012C17.3457 25.305 17.25 25.5644 17.25 25.8325V26.4062C17.25 27.2268 17.5759 28.0137 18.1561 28.5939C18.7363 29.1741 19.5232 29.5 20.3438 29.5C21.1643 29.5 21.9512 29.1741 22.5314 28.5939C23.1116 28.0137 23.4375 27.2268 23.4375 26.4062C23.4375 26.1079 23.556 25.8217 23.767 25.6108C23.978 25.3998 24.2641 25.2812 24.5625 25.2812C24.8609 25.2812 25.147 25.3998 25.358 25.6108C25.569 25.8217 25.6875 26.1079 25.6875 26.4062ZM18.375 32.875C18.6734 32.875 18.9595 32.9935 19.1705 33.2045C19.3815 33.4155 19.5 33.7016 19.5 34V47.5H21.75V36.25C21.75 35.6533 21.9871 35.081 22.409 34.659C22.831 34.2371 23.4033 34 24 34H30.75C31.3467 34 31.919 34.2371 32.341 34.659C32.7629 35.081 33 35.6533 33 36.25V47.5H46.5V34C46.5 33.7016 46.6185 33.4155 46.8295 33.2045C47.0405 32.9935 47.3266 32.875 47.625 32.875C47.9234 32.875 48.2095 32.9935 48.4205 33.2045C48.6315 33.4155 48.75 33.7016 48.75 34V47.5H49.875C50.1734 47.5 50.4595 47.6185 50.6705 47.8295C50.8815 48.0405 51 48.3266 51 48.625C51 48.9234 50.8815 49.2095 50.6705 49.4205C50.4595 49.6315 50.1734 49.75 49.875 49.75H16.125C15.8266 49.75 15.5405 49.6315 15.3295 49.4205C15.1185 49.2095 15 48.9234 15 48.625C15 48.3266 15.1185 48.0405 15.3295 47.8295C15.5405 47.6185 15.8266 47.5 16.125 47.5H17.25V34C17.25 33.7016 17.3685 33.4155 17.5795 33.2045C17.7905 32.9935 18.0766 32.875 18.375 32.875ZM24 47.5H30.75V36.25H24V47.5ZM35.25 36.25C35.25 35.6533 35.4871 35.081 35.909 34.659C36.331 34.2371 36.9033 34 37.5 34H42C42.5967 34 43.169 34.2371 43.591 34.659C44.0129 35.081 44.25 35.6533 44.25 36.25V43C44.25 43.5967 44.0129 44.169 43.591 44.591C43.169 45.0129 42.5967 45.25 42 45.25H37.5C36.9033 45.25 36.331 45.0129 35.909 44.591C35.4871 44.169 35.25 43.5967 35.25 43V36.25ZM42 36.25H37.5V43H42V36.25Z" fill="#8BC53E"/>
</svg>
