<svg width="220" height="29" viewBox="0 0 220 29" fill="none" xmlns="http://www.w3.org/2000/svg">
<path d="M31.517 23V5.54545H43.2784V8.58807H35.2074V12.7472H42.6733V15.7898H35.2074V19.9574H43.3125V23H31.517ZM49.6726 5.54545L53.1925 11.4943H53.3288L56.8658 5.54545H61.0334L55.7067 14.2727L61.1527 23H56.9084L53.3288 17.0426H53.1925L49.6129 23H45.3857L50.8487 14.2727L45.4879 5.54545H49.6726ZM63.3686 23V5.54545H70.255C71.5788 5.54545 72.7067 5.7983 73.6385 6.30398C74.5703 6.80398 75.2805 7.5 75.7692 8.39204C76.2635 9.27841 76.5107 10.3011 76.5107 11.4602C76.5107 12.6193 76.2607 13.642 75.7607 14.5284C75.2607 15.4148 74.5362 16.1051 73.5874 16.5994C72.6442 17.0937 71.5021 17.3409 70.1612 17.3409H65.772V14.3835H69.5646C70.2749 14.3835 70.8601 14.2614 71.3203 14.017C71.7862 13.767 72.1328 13.4233 72.3601 12.9858C72.593 12.5426 72.7095 12.0341 72.7095 11.4602C72.7095 10.8807 72.593 10.375 72.3601 9.94318C72.1328 9.50568 71.7862 9.16761 71.3203 8.92898C70.8544 8.68466 70.2635 8.5625 69.5476 8.5625H67.0589V23H63.3686ZM94.9474 14.2727C94.9474 16.1761 94.5866 17.7955 93.8651 19.1307C93.1491 20.4659 92.1719 21.4858 90.9332 22.1903C89.7003 22.8892 88.3139 23.2386 86.7741 23.2386C85.223 23.2386 83.831 22.8864 82.598 22.1818C81.3651 21.4773 80.3906 20.4574 79.6747 19.1222C78.9588 17.7869 78.6009 16.1705 78.6009 14.2727C78.6009 12.3693 78.9588 10.75 79.6747 9.41477C80.3906 8.07955 81.3651 7.0625 82.598 6.36364C83.831 5.65909 85.223 5.30682 86.7741 5.30682C88.3139 5.30682 89.7003 5.65909 90.9332 6.36364C92.1719 7.0625 93.1491 8.07955 93.8651 9.41477C94.5866 10.75 94.9474 12.3693 94.9474 14.2727ZM91.206 14.2727C91.206 13.0398 91.0213 12 90.652 11.1534C90.2884 10.3068 89.7741 9.66477 89.1094 9.22727C88.4446 8.78977 87.6662 8.57102 86.7741 8.57102C85.8821 8.57102 85.1037 8.78977 84.4389 9.22727C83.7741 9.66477 83.2571 10.3068 82.8878 11.1534C82.5241 12 82.3423 13.0398 82.3423 14.2727C82.3423 15.5057 82.5241 16.5455 82.8878 17.392C83.2571 18.2386 83.7741 18.8807 84.4389 19.3182C85.1037 19.7557 85.8821 19.9744 86.7741 19.9744C87.6662 19.9744 88.4446 19.7557 89.1094 19.3182C89.7741 18.8807 90.2884 18.2386 90.652 17.392C91.0213 16.5455 91.206 15.5057 91.206 14.2727ZM97.6811 23V5.54545H104.567C105.886 5.54545 107.011 5.78125 107.942 6.25284C108.88 6.71875 109.593 7.38068 110.082 8.23864C110.576 9.09091 110.823 10.0937 110.823 11.2472C110.823 12.4062 110.573 13.4034 110.073 14.2386C109.573 15.0682 108.849 15.7045 107.9 16.1477C106.957 16.5909 105.815 16.8125 104.474 16.8125H99.8629V13.8466H103.877C104.582 13.8466 105.167 13.75 105.633 13.5568C106.099 13.3636 106.445 13.0739 106.673 12.6875C106.906 12.3011 107.022 11.821 107.022 11.2472C107.022 10.6676 106.906 10.179 106.673 9.78125C106.445 9.38352 106.096 9.08239 105.624 8.87784C105.158 8.66761 104.57 8.5625 103.86 8.5625H101.371V23H97.6811ZM107.107 15.0568L111.445 23H107.371L103.127 15.0568H107.107ZM112.766 8.58807V5.54545H127.102V8.58807H121.758V23H118.11V8.58807H112.766ZM138.026 23H134.071L140.097 5.54545H144.852L150.869 23H146.915L142.543 9.53409H142.406L138.026 23ZM137.778 16.1392H147.119V19.0199H137.778V16.1392ZM162.04 10.5653C161.972 9.87784 161.68 9.34375 161.163 8.96307C160.646 8.58239 159.944 8.39204 159.058 8.39204C158.455 8.39204 157.947 8.47727 157.532 8.64773C157.117 8.8125 156.799 9.04261 156.577 9.33807C156.362 9.63352 156.254 9.96875 156.254 10.3438C156.242 10.6562 156.308 10.929 156.45 11.1619C156.597 11.3949 156.799 11.5966 157.055 11.767C157.31 11.9318 157.606 12.0767 157.941 12.2017C158.276 12.321 158.634 12.4233 159.015 12.5085L160.583 12.8835C161.344 13.054 162.043 13.2812 162.68 13.5653C163.316 13.8494 163.867 14.1989 164.333 14.6136C164.799 15.0284 165.16 15.517 165.415 16.0795C165.677 16.642 165.81 17.2869 165.816 18.0142C165.81 19.0824 165.538 20.0085 164.998 20.7926C164.464 21.571 163.691 22.1761 162.68 22.608C161.674 23.0341 160.461 23.2472 159.04 23.2472C157.631 23.2472 156.404 23.0312 155.359 22.5994C154.319 22.1676 153.506 21.5284 152.921 20.6818C152.342 19.8295 152.038 18.7756 152.009 17.5199H155.58C155.62 18.1051 155.788 18.5937 156.083 18.9858C156.384 19.3722 156.785 19.6648 157.285 19.8636C157.79 20.0568 158.362 20.1534 158.998 20.1534C159.623 20.1534 160.165 20.0625 160.626 19.8807C161.092 19.6989 161.452 19.446 161.708 19.1222C161.964 18.7983 162.092 18.4261 162.092 18.0057C162.092 17.6136 161.975 17.2841 161.742 17.017C161.515 16.75 161.18 16.5227 160.737 16.3352C160.299 16.1477 159.762 15.9773 159.126 15.8239L157.225 15.3466C155.754 14.9886 154.592 14.429 153.739 13.6676C152.887 12.9062 152.464 11.8807 152.469 10.5909C152.464 9.53409 152.745 8.6108 153.313 7.82102C153.887 7.03125 154.674 6.41477 155.674 5.97159C156.674 5.52841 157.81 5.30682 159.083 5.30682C160.379 5.30682 161.509 5.52841 162.475 5.97159C163.447 6.41477 164.202 7.03125 164.742 7.82102C165.282 8.6108 165.56 9.52557 165.577 10.5653H162.04ZM173.853 23V5.54545H180.739C182.063 5.54545 183.191 5.7983 184.123 6.30398C185.055 6.80398 185.765 7.5 186.254 8.39204C186.748 9.27841 186.995 10.3011 186.995 11.4602C186.995 12.6193 186.745 13.642 186.245 14.5284C185.745 15.4148 185.021 16.1051 184.072 16.5994C183.129 17.0937 181.987 17.3409 180.646 17.3409H176.256V14.3835H180.049C180.759 14.3835 181.344 14.2614 181.805 14.017C182.271 13.767 182.617 13.4233 182.844 12.9858C183.077 12.5426 183.194 12.0341 183.194 11.4602C183.194 10.8807 183.077 10.375 182.844 9.94318C182.617 9.50568 182.271 9.16761 181.805 8.92898C181.339 8.68466 180.748 8.5625 180.032 8.5625H177.543V23H173.853ZM195.58 23H189.392V5.54545H195.631C197.386 5.54545 198.898 5.89489 200.165 6.59375C201.432 7.28693 202.406 8.28409 203.088 9.58523C203.776 10.8864 204.119 12.4432 204.119 14.2557C204.119 16.0739 203.776 17.6364 203.088 18.9432C202.406 20.25 201.426 21.2528 200.148 21.9517C198.875 22.6506 197.352 23 195.58 23ZM193.082 19.8381H195.426C196.517 19.8381 197.435 19.6449 198.179 19.2585C198.929 18.8665 199.491 18.2614 199.866 17.4432C200.247 16.6193 200.438 15.5568 200.438 14.2557C200.438 12.9659 200.247 11.9119 199.866 11.0938C199.491 10.2756 198.932 9.6733 198.188 9.28693C197.443 8.90057 196.526 8.70739 195.435 8.70739H193.082V19.8381ZM206.853 23V5.54545H218.41V8.58807H210.543V12.7472H217.643V15.7898H210.543V23H206.853Z" fill="white"/>
<path fill-rule="evenodd" clip-rule="evenodd" d="M1.375 25.2632H20.625C20.9897 25.2632 21.3394 25.4073 21.5973 25.664C21.8551 25.9206 22 26.2687 22 26.6316C22 26.9945 21.8551 27.3426 21.5973 27.5992C21.3394 27.8558 20.9897 28 20.625 28H1.375C1.01033 28 0.660591 27.8558 0.402728 27.5992C0.144866 27.3426 0 26.9945 0 26.6316C0 26.2687 0.144866 25.9206 0.402728 25.664C0.660591 25.4073 1.01033 25.2632 1.375 25.2632ZM12.375 17.2921L16.8341 12.8557L18.7784 14.7906L11 22.5318L3.22163 14.7906L5.16587 12.8557L9.625 17.2921V2H12.375V17.2921Z" fill="white"/>
</svg>
