<svg width="29" height="29" viewBox="0 0 29 29" fill="none" xmlns="http://www.w3.org/2000/svg">
<path d="M27.6498 14.364C27.6576 11.727 26.8826 9.14687 25.4232 6.95046C23.9637 4.75405 21.8854 3.04011 19.4513 2.02558C17.0171 1.01105 14.3367 0.741562 11.7494 1.25129C9.16202 1.76101 6.78407 3.02701 4.91663 4.88897C3.0492 6.75093 1.77624 9.12516 1.25892 11.711C0.741595 14.2969 1.00318 16.978 2.01055 19.4151C3.01793 21.8522 4.72578 23.9356 6.9179 25.4015C9.11001 26.8674 11.6878 27.6499 14.3249 27.6499C17.8521 27.6499 21.2355 26.2514 23.7333 23.7609C26.2311 21.2705 27.6395 17.8913 27.6498 14.364V14.364Z" stroke="#545E66" stroke-width="1.9538" stroke-linecap="round" stroke-linejoin="round"/>
<path d="M24 14L9 5.33974L9 22.6603L24 14Z" fill="#545E66"/>
</svg>
