<svg width="66" height="66" viewBox="0 0 66 66" fill="none" xmlns="http://www.w3.org/2000/svg">
<circle cx="33" cy="33" r="33" fill="white"/>
<path d="M53 33.4632C53.0199 44.2071 44.258 52.9924 33.5141 53C28.8738 53.0033 24.6115 51.3857 21.262 48.6824C20.391 47.9794 20.3259 46.6741 21.1174 45.8826L22.0033 44.9967C22.6802 44.3198 23.7609 44.2457 24.5109 44.8407C26.9787 46.799 30.1017 47.9678 33.5 47.9678C41.4969 47.9678 47.9677 41.4958 47.9677 33.5C47.9677 25.5031 41.4957 19.0323 33.5 19.0323C29.6618 19.0323 26.1758 20.5238 23.5874 22.9584L27.5781 26.9491C28.3707 27.7417 27.8094 29.0968 26.6886 29.0968H15.2581C14.5632 29.0968 14 28.5336 14 27.8387L21.0273 24.5563C21.0273 23.4355 15.3551 14.7261 16.1477 15.5186L20.0297 19.4006C23.5305 16.0551 28.2752 14 33.5 14C44.2572 14 52.9801 22.7105 53 33.4632ZM38.775 39.6579L39.5474 38.6648C40.1873 37.8421 40.0391 36.6564 39.2164 36.0166L36.0161 33.5275V25.3226C36.0161 24.2804 35.1712 23.4355 34.129 23.4355H32.871C31.8287 23.4355 30.9839 24.2804 30.9839 25.3226V35.9887L36.1269 39.9889C36.9496 40.6287 38.1352 40.4806 38.775 39.6579Z" fill="#8BC53E"/>
</svg>
