<svg width="66" height="66" viewBox="0 0 66 66" fill="none" xmlns="http://www.w3.org/2000/svg">
<circle cx="33" cy="33" r="33" fill="white"/>
<path d="M40.2308 36.1923C39.8737 36.1923 39.5313 36.3341 39.2789 36.5866C39.0264 36.839 38.8846 37.1814 38.8846 37.5385C38.8846 37.8955 39.0264 38.2379 39.2789 38.4903C39.5313 38.7428 39.8737 38.8846 40.2308 38.8846H44.2692C44.6263 38.8846 44.9687 38.7428 45.2211 38.4903C45.4736 38.2379 45.6154 37.8955 45.6154 37.5385C45.6154 37.1814 45.4736 36.839 45.2211 36.5866C44.9687 36.3341 44.6263 36.1923 44.2692 36.1923H40.2308ZM16 20.0385C16 18.9674 16.4255 17.9402 17.1828 17.1828C17.9402 16.4255 18.9674 16 20.0385 16H42.5865C43.7469 16 44.8597 16.4609 45.6801 17.2814C46.5006 18.1019 46.9615 19.2147 46.9615 20.375V21.7292C49.3146 22.5612 51 24.8052 51 27.4423V44.9423C51 46.5489 50.3618 48.0897 49.2257 49.2257C48.0897 50.3618 46.5489 51 44.9423 51H22.0577C20.4511 51 18.9103 50.3618 17.7743 49.2257C16.6382 48.0897 16 46.5489 16 44.9423V20.375H16.0135C16.0044 20.2631 15.9999 20.1508 16 20.0385ZM44.9423 24.0769H18.6923V44.9423C18.6923 45.8349 19.0469 46.6909 19.678 47.322C20.3091 47.9531 21.1651 48.3077 22.0577 48.3077H44.9423C45.8349 48.3077 46.6909 47.9531 47.322 47.322C47.9531 46.6909 48.3077 45.8349 48.3077 44.9423V27.4423C48.3077 26.5497 47.9531 25.6938 47.322 25.0626C46.6909 24.4315 45.8349 24.0769 44.9423 24.0769ZM44.2692 20.375C44.2692 19.4462 43.5154 18.6923 42.5865 18.6923H20.0385C19.6814 18.6923 19.339 18.8341 19.0866 19.0866C18.8341 19.339 18.6923 19.6814 18.6923 20.0385C18.6923 20.3955 18.8341 20.7379 19.0866 20.9903C19.339 21.2428 19.6814 21.3846 20.0385 21.3846H44.2692V20.375Z" fill="#8BC53E"/>
</svg>
