<svg width="35" height="35" viewBox="0 0 35 35" fill="none" xmlns="http://www.w3.org/2000/svg">
<path d="M24.2308 20.1923C23.8737 20.1923 23.5313 20.3341 23.2789 20.5866C23.0264 20.839 22.8846 21.1814 22.8846 21.5385C22.8846 21.8955 23.0264 22.2379 23.2789 22.4903C23.5313 22.7428 23.8737 22.8846 24.2308 22.8846H28.2692C28.6263 22.8846 28.9687 22.7428 29.2211 22.4903C29.4736 22.2379 29.6154 21.8955 29.6154 21.5385C29.6154 21.1814 29.4736 20.839 29.2211 20.5866C28.9687 20.3341 28.6263 20.1923 28.2692 20.1923H24.2308ZM2.86958e-06 4.03846C2.86958e-06 2.96739 0.425483 1.9402 1.18284 1.18284C1.9402 0.42548 2.9674 0 4.03846 0H26.5865C27.7469 0 28.8597 0.460936 29.6801 1.28141C30.5006 2.10188 30.9615 3.21468 30.9615 4.375V5.72923C33.3146 6.56115 35 8.80519 35 11.4423V28.9423C35 30.5489 34.3618 32.0897 33.2257 33.2257C32.0897 34.3618 30.5489 35 28.9423 35H6.05769C4.45109 35 2.9103 34.3618 1.77426 33.2257C0.638222 32.0897 2.86958e-06 30.5489 2.86958e-06 28.9423V4.375H0.0134644C0.00436083 4.26305 -0.00013014 4.15078 2.86958e-06 4.03846ZM28.9423 8.07692H2.69231V28.9423C2.69231 29.8349 3.04688 30.6909 3.67801 31.322C4.30914 31.9531 5.16514 32.3077 6.05769 32.3077H28.9423C29.8349 32.3077 30.6909 31.9531 31.322 31.322C31.9531 30.6909 32.3077 29.8349 32.3077 28.9423V11.4423C32.3077 10.5497 31.9531 9.69375 31.322 9.06262C30.6909 8.43149 29.8349 8.07692 28.9423 8.07692ZM28.2692 4.375C28.2692 3.44615 27.5154 2.69231 26.5865 2.69231H4.03846C3.68144 2.69231 3.33904 2.83413 3.08659 3.08659C2.83414 3.33904 2.69231 3.68144 2.69231 4.03846C2.69231 4.39548 2.83414 4.73788 3.08659 4.99033C3.33904 5.24279 3.68144 5.38461 4.03846 5.38461H28.2692V4.375Z" fill="#F5F5F5"/>
</svg>
